<svg width="1920" height="598" viewBox="0 0 1920 598" fill="none" xmlns="http://www.w3.org/2000/svg">
<path d="M0.123783 300.138C-1.97831 327.961 21.9415 385.912 133.941 395.017C252.182 404.631 267.859 434.542 282.794 463.036L282.794 463.037C285.542 468.28 288.265 473.475 291.597 478.487C313.039 510.736 347.093 542.986 466.912 517.376C586.731 491.766 704.027 483.229 793.576 543.934C865.216 592.498 934.564 598 960.062 598C985.561 598 1054.91 592.498 1126.55 543.934C1216.1 483.229 1333.39 491.766 1453.21 517.376C1573.03 542.986 1607.09 510.736 1628.53 478.487C1631.86 473.475 1634.58 468.279 1637.33 463.036C1652.26 434.542 1667.94 404.631 1786.18 395.017C1898.18 385.912 1921.98 327.989 1919.88 300.166L1919.88 0.5H1.78457H0.247382L0.123783 300.138Z" fill="#D9D9D9"/>
</svg>
