<?xml version="1.0" encoding="UTF-8"?>
<!DOCTYPE svg PUBLIC "-//W3C//DTD SVG 1.1//EN" "http://www.w3.org/Graphics/SVG/1.1/DTD/svg11.dtd">
<!-- Creator: CorelDRAW -->
<svg xmlns="http://www.w3.org/2000/svg" xml:space="preserve" width="64.9206mm" height="64.4825mm" version="1.1" style="shape-rendering:geometricPrecision; text-rendering:geometricPrecision; image-rendering:optimizeQuality; fill-rule:evenodd; clip-rule:evenodd"
viewBox="0 0 383.08 380.5"
 xmlns:xlink="http://www.w3.org/1999/xlink"
 xmlns:xodm="http://www.corel.com/coreldraw/odm/2003">
 <defs>
  <style type="text/css">
   <![CDATA[
    .fil3 {fill:#FEFEFE}
    .fil10 {fill:#E6E7E8}
    .fil9 {fill:#E6E7E8}
    .fil11 {fill:#373435}
    .fil8 {fill:#201E1E}
    .fil0 {fill:black}
    .fil4 {fill:black}
    .fil7 {fill:#C24C1A}
    .fil5 {fill:#D22328}
    .fil2 {fill:#E97F11}
    .fil12 {fill:#E97F11}
    .fil1 {fill:#FBC761}
    .fil6 {fill:#FC7A02}
   ]]>
  </style>
 </defs>
 <g id="Camada_x0020_1">
  <metadata id="CorelCorpID_0Corel-Layer"/>
  <path class="fil0" d="M1.17 271.39c-6.44,-40.38 15.86,-56.2 15.86,-56.2 0,0 -4.07,-115.3 92.91,-157.04 -17.34,-14.13 -26.67,-12.24 -23.46,-15.87 3.2,-3.63 12.77,-9.3 44.1,-8.33 -8.08,-19.54 -8.82,-26.79 -8.73,-31.21 0.09,-4.41 3.46,-3.12 8.57,1.21 5.11,4.33 68.72,35.05 68.72,35.05 136.23,-1.77 222.26,135.92 166.97,258.21 -66.21,132.93 -341.16,93.64 -364.94,-25.83z"/>
  <path class="fil1" d="M29.8 217.04c0,0 -5.4,-127.18 105.94,-154.46 -16.14,-13.92 -32.44,-18.83 -32.44,-18.83 0,0 19.14,-2.45 45.42,3.19 -7.84,-16.79 -13.05,-29.87 -13.05,-29.87 0,0 52.57,27.82 61.93,30.8 32.58,1.28 91.32,8.82 132.44,68.15 113.1,163.2 -44.51,313.26 -249.48,229.79 -76.26,-36.08 -86.76,-99.67 -50.77,-128.77z"/>
  <path class="fil2" d="M291.23 77.99c13.43,9.45 27.22,21.41 38.83,38.03 114.05,163.13 -44.48,313.24 -249.48,229.79 -36.54,-17.29 -57.97,-40.89 -66.44,-63.99 0.25,0.22 108.14,101.06 216.63,58.28 108.49,-42.78 153.63,-134.34 60.46,-262.1z"/>
  <path class="fil3" d="M29.8 217.04c0,0 -5.4,-127.18 105.94,-154.46 -1.85,-1.6 -3.71,-3.08 -5.55,-4.45 4.46,2.43 8.47,5.39 10.72,8.85 -111.36,24.75 -105.59,150.67 -105.59,150.67 0,0 -22.99,18.13 -20.35,42.96 3.66,43.88 43.11,72.44 45.32,74.01 -57.57,-36.87 -63,-91.3 -30.5,-117.59zm86.05 -167.89c-7.39,-3.84 -12.55,-5.39 -12.55,-5.39 0,0 18.43,-2.36 43.95,2.88 1.92,1.04 4.01,2.16 6.29,3.37 -13.56,-1.99 -28.69,-1.47 -37.7,-0.86zm21.79 -27.29c-1.26,-3.03 -1.96,-4.78 -1.96,-4.78 0,0 52.57,27.82 61.93,30.8 32.58,1.28 89.92,8.2 133.31,65.9 76.63,101.9 36.12,246.98 -109.95,255.94 48.37,-7.92 99.47,-37.25 118.29,-72.39 57.34,-107.12 -15.51,-237.01 -142.96,-244.44 -29.77,-9.81 -58.65,-31.02 -58.66,-31.03z"/>
  <path class="fil4" d="M125.63 218.75c-14.35,1.24 -29.33,25.53 -42.13,31.2 -12.8,5.67 -42.79,5.47 -48.11,15.6 -5.31,10.13 -2.61,21.45 10.19,25.83 9.57,2.42 24.46,0.53 24.46,0.53 29.58,9.63 -8.74,25.92 9.61,35.14 48.6,24.41 144.61,7.42 173.57,-45.59 14.83,-26.48 -18.23,-37.8 -34.4,-34.49 -21.32,4.35 -37.21,9.36 -56.77,-7.45 -13.06,-11.22 -19.92,-21.12 -36.44,-20.77z"/>
  <path class="fil5" d="M140.72 298.57c3.84,0.66 8.35,1.28 13.41,1.71 -10.31,3.64 -22.96,8.33 -27.01,10.75 -0.9,-1.21 7.59,-7.94 13.6,-12.47z"/>
  <path class="fil6" d="M75.45 281.02c0,0 -22.65,3.67 -29.79,1.31 -7.14,-2.36 -6.61,-14.31 5.23,-17.34 11.84,-3.04 19.27,-1.86 19.27,-1.86 0,0 19.85,-4.66 32.18,-20.29 12.33,-15.63 22.12,-19.42 32.17,-15.72 10.05,3.7 24.61,24.85 39.64,28.5 15.03,3.65 37.61,0.47 52.37,-1.69 14.37,-2.11 25.56,7.9 20.34,21.41 -0.13,0.36 -0.28,0.73 -0.46,1.12 -21,47.9 -115.47,64.23 -158.05,48.21 -9.14,-3.44 -6.79,-7.99 -3.06,-11.52 3.73,-3.52 5.18,-7.67 5.18,-12.44 0,-4.77 -10.78,-10.57 -10.78,-10.57l9.63 -0.2c0,0 8.11,4.77 10.01,10.49 1.91,5.72 -4.31,10.36 -5.25,14.07 -3.51,13.87 103.79,13.44 138.05,-34.81 6.84,-9.64 -7.82,-14.28 -15.77,-12.96 -1.46,0.24 6.09,3.4 4.47,3.98 -17.97,6.44 -45.58,31.4 -75.93,24.72 -30.07,-6.62 -50.3,-13.84 -69.47,-14.4z"/>
  <path class="fil7" d="M248.12 267.46c0.21,2.42 -0.17,5.07 -1.25,7.87 -0.13,0.36 -0.28,0.73 -0.46,1.12 -21,47.9 -115.47,64.23 -158.05,48.21 -5.21,-1.96 -6.69,-4.28 -6.3,-6.57 0.05,0.05 7.96,7.62 43.11,8.64 50.48,1.46 99.57,-15.97 122.95,-59.26z"/>
  <path class="fil7" d="M75.45 281.02c0,0 -22.65,3.67 -29.79,1.31 -1.2,-0.4 -2.19,-1.07 -2.94,-1.93l30.3 -3.86c0,0 27.56,2.54 53,9.12 25.44,6.57 33.09,8.32 50.37,2.89 16.89,-6.07 36.06,-18.56 41.03,-20.72 1.71,1.05 4.47,2.49 3.43,2.87 -17.97,6.44 -45.58,31.4 -75.93,24.72 -30.07,-6.62 -50.3,-13.84 -69.47,-14.4z"/>
  <path class="fil3" d="M41.14 274.04c0.67,-3.7 3.77,-7.52 9.75,-9.05 11.84,-3.04 19.27,-1.86 19.27,-1.86 0,0 19.85,-4.66 32.18,-20.29 12.33,-15.63 22.12,-19.42 32.17,-15.72 5.72,2.11 12.9,9.87 20.81,16.84 -4.12,-2.08 -8.58,-4.8 -12.74,-8.27 -12.54,-10.47 -24.2,-5.71 -37.38,10.59 -13.18,16.3 -30.29,18.66 -30.29,18.66 0,0 2.53,1.24 12.82,5.55 -24.56,-6.3 -38.63,-2.2 -46.59,3.56z"/>
  <ellipse class="fil4" transform="matrix(0.463655 -0.407714 0.407714 0.463655 141.843 249.052)" rx="8.45" ry="12.78"/>
  <path class="fil8" d="M198.4 133.43c26.42,0 49.05,28.48 49.05,61.24 0,32.76 -23.6,52.63 -50.77,52.63 -75.76,0 -44.79,-113.42 1.72,-113.87z"/>
  <path class="fil9" d="M197.55 144.04c22.06,0 40.95,25.21 40.95,54.2 0,28.99 -19.71,46.58 -42.39,46.58 -22.68,0 -37.8,-9.01 -37.8,-46.96 0,-32.3 26.97,-53.69 39.24,-53.81z"/>
  <path class="fil3" d="M215.39 240.17c-5.85,3.04 -12.43,4.65 -19.28,4.65 -22.68,0 -37.8,-9.01 -37.8,-46.96 0,-11.22 3.25,-21.12 8.01,-29.27 8.54,-11.54 19.9,-18.28 26.67,-18.35 21.37,0 39.67,24.42 39.67,52.5 0,16.93 -6.94,29.84 -17.27,37.43z"/>
  <path class="fil8" d="M78.92 135.85c-17.55,0 -32.59,27.85 -32.59,59.89 0,32.04 15.68,51.47 33.73,51.47 50.34,0 29.76,-110.92 -1.14,-111.36z"/>
  <path class="fil3" d="M79.49 146.22c-14.66,0 -27.21,24.65 -27.21,53 0,28.35 13.09,45.55 28.17,45.55 15.07,0 25.12,-8.81 25.12,-45.93 0,-31.58 -17.92,-52.5 -26.07,-52.63z"/>
  <path class="fil10" d="M79.49 146.22c-7.74,0 -14.89,6.88 -19.92,17.54 4.68,-7.37 10.56,-11.88 16.82,-11.88 8.16,0.12 26.07,21.04 26.07,52.63 0,14.9 -1.62,25.24 -4.53,32.28 4.84,-6.69 7.63,-18.39 7.63,-37.94 0,-31.58 -17.92,-52.5 -26.07,-52.63z"/>
  <ellipse class="fil4" cx="190.3" cy="199.98" rx="28.04" ry="40.57"/>
  <path class="fil11" d="M215.6 217.49c-4.52,13.64 -14.15,23.06 -25.3,23.06 -9.11,0 -17.2,-6.28 -22.32,-16.02 1.08,-4.93 9.13,-22.85 11.06,-18.65 4.83,12.81 9.13,15.09 15.79,10.29 5.23,-3.77 1.82,-13.65 3.26,-13.58 8.19,0.44 16.16,12.85 17.52,14.89z"/>
  <ellipse class="fil4" cx="190.04" cy="199.98" rx="21.36" ry="33.11"/>
  <ellipse class="fil3" cx="176.61" cy="177.11" rx="10.16" ry="10.25"/>
  <path class="fil12" d="M135.75 62.58c-16.14,-13.92 -32.44,-18.83 -32.44,-18.83l0.04 -0c12.73,3.35 41.69,11.69 59.37,22.51 -19.86,-0.95 -69.97,27.42 -69.97,27.42 5.21,-9.28 26.48,-28.28 43,-31.1zm12.51 -16.65c-7.58,-16.3 -12.58,-28.85 -12.58,-28.85 0,0 2,1.06 5.29,2.78l21.75 32.22 -14.46 -6.15z"/>
  <path class="fil4" d="M187.53 110.58c0,0 25.58,-7.72 54.05,20.05 -16.82,-39.57 -49.69,-29.64 -54.05,-20.05z"/>
  <path class="fil4" d="M106.33 111.51c0,0 -28.97,-4.35 -44.91,16.66 19.2,-34.04 41.29,-24.63 44.91,-16.66z"/>
  <ellipse class="fil4" cx="83.44" cy="202.73" rx="21.25" ry="35.92"/>
  <path class="fil11" d="M102.62 218.24c-3.42,12.08 -10.72,20.42 -19.17,20.42 -6.9,0 -13.03,-5.56 -16.92,-14.18 0.81,-4.36 6.92,-20.24 8.38,-16.51 3.66,11.34 6.92,13.36 11.96,9.11 3.96,-3.34 1.38,-12.09 2.47,-12.02 6.21,0.39 12.25,11.38 13.28,13.18z"/>
  <ellipse class="fil4" cx="83.25" cy="204.13" rx="16.47" ry="28.38"/>
  <ellipse class="fil3" cx="73.07" cy="182.49" rx="7.7" ry="9.08"/>
 </g>
</svg>
