<?xml version="1.0" encoding="UTF-8"?>
<!DOCTYPE svg PUBLIC "-//W3C//DTD SVG 1.1//EN" "http://www.w3.org/Graphics/SVG/1.1/DTD/svg11.dtd">
<!-- Creator: CorelDRAW -->
<svg xmlns="http://www.w3.org/2000/svg" xml:space="preserve" width="64.9206mm" height="64.4825mm" version="1.1" style="shape-rendering:geometricPrecision; text-rendering:geometricPrecision; image-rendering:optimizeQuality; fill-rule:evenodd; clip-rule:evenodd"
viewBox="0 0 547.22 543.53"
 xmlns:xlink="http://www.w3.org/1999/xlink"
 xmlns:xodm="http://www.corel.com/coreldraw/odm/2003">
 <defs>
  <style type="text/css">
   <![CDATA[
    .str0 {stroke:black;stroke-width:4.21;stroke-miterlimit:22.9256}
    .fil3 {fill:#FEFEFE}
    .fil9 {fill:#E6E7E8}
    .fil8 {fill:#E6E7E8}
    .fil10 {fill:#373435}
    .fil7 {fill:#201E1E}
    .fil0 {fill:black}
    .fil4 {fill:black}
    .fil6 {fill:#C24C1A}
    .fil12 {fill:#D22328}
    .fil2 {fill:#E97F11}
    .fil11 {fill:#E97F11}
    .fil1 {fill:#FBC761}
    .fil5 {fill:#FC7A02}
   ]]>
  </style>
 </defs>
 <g id="Camada_x0020_1">
  <metadata id="CorelCorpID_0Corel-Layer"/>
  <path class="fil0" d="M1.67 387.66c-9.2,-57.68 22.65,-80.27 22.65,-80.27 0,0 -5.81,-164.7 132.72,-224.33 -24.77,-20.18 -38.09,-17.49 -33.51,-22.67 4.58,-5.19 18.25,-13.28 63,-11.9 -11.54,-27.91 -12.6,-38.27 -12.47,-44.58 0.12,-6.3 4.95,-4.45 12.24,1.73 7.29,6.18 98.16,50.07 98.16,50.07 194.6,-2.53 317.49,194.16 238.51,368.84 -94.57,189.88 -487.33,133.76 -521.29,-36.9z"/>
  <path class="fil1" d="M42.58 310.03c0,0 -7.71,-181.67 151.33,-220.64 -23.06,-19.88 -46.34,-26.9 -46.34,-26.9 0,0 27.34,-3.5 64.89,4.56 -11.2,-23.98 -18.64,-42.67 -18.64,-42.67 0,0 75.09,39.74 88.47,43.99 46.54,1.83 130.45,12.59 189.19,97.35 161.56,233.12 -63.57,447.48 -356.37,328.24 -108.93,-51.54 -123.93,-142.37 -72.53,-183.94z"/>
  <path class="fil2" d="M416.01 111.41c19.18,13.5 38.88,30.59 55.47,54.32 162.92,233.03 -63.54,447.45 -356.37,328.24 -52.19,-24.7 -82.81,-58.41 -94.9,-91.41 0.36,0.32 154.48,144.35 309.45,83.25 154.97,-61.11 219.45,-191.9 86.36,-374.4z"/>
  <path class="fil3" d="M42.58 310.03c0,0 -7.71,-181.67 151.33,-220.64 -2.65,-2.28 -5.3,-4.4 -7.92,-6.35 6.38,3.48 12.1,7.7 15.31,12.65 -159.08,35.35 -150.83,215.23 -150.83,215.23 0,0 -32.83,25.9 -29.07,61.37 5.22,62.68 61.58,103.47 64.74,105.72 -82.23,-52.67 -89.99,-130.42 -43.56,-167.98zm122.91 -239.83c-10.55,-5.48 -17.92,-7.71 -17.92,-7.71 0,0 26.33,-3.37 62.79,4.12 2.75,1.49 5.73,3.09 8.98,4.82 -19.37,-2.84 -40.98,-2.1 -53.85,-1.23zm31.13 -38.99c-1.81,-4.33 -2.8,-6.83 -2.8,-6.83 0,0 75.09,39.74 88.47,43.99 46.54,1.83 128.45,11.72 190.43,94.14 109.46,145.56 51.59,352.8 -157.06,365.6 69.1,-11.31 142.09,-53.2 168.97,-103.41 81.91,-153.02 -22.15,-338.56 -204.21,-349.17 -42.52,-14.02 -83.78,-44.31 -83.8,-44.32z"/>
  <path class="fil4" d="M179.46 312.47c-20.5,1.78 -41.89,36.47 -60.18,44.57 -18.29,8.09 -61.13,7.81 -68.72,22.29 -7.59,14.48 -3.73,30.64 14.56,36.9 6.47,1.64 35.37,-3.65 59.64,-2.62 26.98,1.15 49.21,8.55 49.21,8.55 -1.96,99.54 54.16,120.61 116.5,93.9 42.13,-18.05 65.47,-62.42 104.17,-90.59 52.8,-62.59 -0.38,-109.7 -56.56,-79.98 -27.47,14.53 -78.64,20.64 -106.58,-3.36 -18.66,-16.03 -28.46,-30.17 -52.05,-29.66z"/>
  <path class="fil5" d="M107.78 401.43c0,0 -32.36,5.24 -42.56,1.87 -10.2,-3.37 -9.44,-20.44 7.47,-24.77 16.91,-4.34 27.53,-2.65 27.53,-2.65 0,0 28.35,-6.66 45.96,-28.99 17.61,-22.33 31.6,-27.74 45.95,-22.46 14.35,5.29 35.15,35.5 56.63,40.71 21.48,5.21 51.91,0.94 74.81,-2.42 12.88,-1.89 37.77,-24.9 69.62,-9.26 18.21,8.94 11.42,37.91 2.92,53.78 0,0 -16.84,17.33 -36.37,33.53 -19.53,16.2 -51.52,80.6 -116.33,76.45 -71.46,-4.15 -62.53,-93.41 -62.53,-93.41 0,0 0,0 8.6,1.91 1.43,69.76 41.35,87.82 81.72,74.15 40.37,-13.66 61.65,-78.24 69.54,-89.46 7.89,-11.22 35.4,-32.5 35.4,-32.5 4,-0.24 11.16,3.15 14.04,4.29 -4.7,-12.66 -11.22,-19.92 -25.51,-17.15 -14.29,2.77 -23.56,1.92 -23.56,1.92 0,0 6.92,5.11 14.18,6.9 7.26,1.78 -0.39,9.22 -9.53,13.77 -9.14,4.55 -42.9,33.17 -118.21,30.08 -75.32,-3.1 -75.69,-20.79 -119.8,-16.27z"/>
  <path class="fil6" d="M404.57 379.49c-0.8,9.84 -4.43,20.25 -8.45,27.74 0,0 -16.84,17.33 -36.37,33.53 -19.53,16.2 -51.52,80.6 -116.33,76.45 -8.93,-0.52 -16.6,-2.37 -23.2,-5.2 0.07,0.02 31.19,7.14 58.76,-3.98 27.6,-11.14 54.91,-63.34 75.42,-80.67 16.69,-14.11 41.38,-34.1 50.16,-47.85z"/>
  <path class="fil6" d="M107.78 401.43c0,0 -32.36,5.24 -42.56,1.87 -2.65,-0.87 -4.56,-2.68 -5.64,-4.94 20.47,-3.71 54.86,-8.65 76.58,-4.81 32.54,5.74 60.93,21.8 109.36,18.02 42.8,-3.34 93.92,-32.51 105.23,-39.25 1.47,0.61 3.01,1.15 4.58,1.53 7.26,1.78 -0.39,9.22 -9.53,13.77 -9.14,4.55 -42.9,33.17 -118.21,30.08 -75.32,-3.1 -75.69,-20.79 -119.8,-16.27z"/>
  <path class="fil3" d="M58.76 391.46c0.96,-5.29 5.38,-10.74 13.93,-12.93 16.91,-4.34 27.53,-2.65 27.53,-2.65 0,0 28.35,-6.66 45.96,-28.99 17.61,-22.33 31.6,-27.74 45.95,-22.46 8.17,3.01 18.43,14.1 29.72,24.05 -5.88,-2.98 -12.26,-6.86 -18.2,-11.82 -17.91,-14.96 -34.57,-8.16 -53.4,15.12 -18.83,23.28 -43.27,26.66 -43.27,26.66 0,0 3.62,1.78 18.31,7.92 -35.08,-8.99 -55.18,-3.14 -66.55,5.09z"/>
  <ellipse class="fil4" transform="matrix(0.463655 -0.407714 0.407714 0.463655 202.617 355.761)" rx="12.07" ry="18.26"/>
  <path class="fil7" d="M283.41 190.6c37.74,0 70.06,40.69 70.06,87.48 0,46.8 -33.72,75.18 -72.53,75.18 -108.22,0 -63.98,-162.01 2.46,-162.66z"/>
  <path class="fil8" d="M282.2 205.75c31.51,0 58.5,36.01 58.5,77.42 0,41.42 -28.15,66.53 -60.56,66.53 -32.4,0 -54,-12.87 -54,-67.08 0,-46.13 38.52,-76.69 56.05,-76.87z"/>
  <path class="fil3" d="M307.68 343.07c-8.35,4.34 -17.75,6.64 -27.54,6.64 -32.4,0 -54,-12.87 -54,-67.08 0,-16.02 4.65,-30.16 11.45,-41.81 12.21,-16.49 28.43,-26.11 38.09,-26.21 30.52,0 56.66,34.88 56.66,74.99 0,24.19 -9.91,42.63 -24.66,53.47z"/>
  <path class="fil7" d="M112.74 194.06c-25.07,0 -46.55,39.79 -46.55,85.55 0,45.76 22.4,73.52 48.19,73.52 71.91,0 42.51,-158.44 -1.64,-159.07z"/>
  <path class="fil3" d="M113.54 208.88c-20.94,0 -38.87,35.21 -38.87,75.71 0,40.5 18.7,65.06 40.23,65.06 21.53,0 35.88,-12.59 35.88,-65.6 0,-45.11 -25.59,-75 -37.24,-75.17z"/>
  <path class="fil9" d="M113.54 208.88c-11.06,0 -21.28,9.82 -28.46,25.06 6.69,-10.53 15.08,-16.97 24.03,-16.97 11.65,0.18 37.24,30.06 37.24,75.17 0,21.29 -2.32,36.05 -6.48,46.11 6.92,-9.56 10.9,-26.26 10.9,-54.2 0,-45.11 -25.59,-75 -37.24,-75.17z"/>
  <ellipse class="fil4" cx="271.83" cy="285.67" rx="40.06" ry="57.96"/>
  <path class="fil10" d="M307.98 310.68c-6.45,19.49 -20.21,32.94 -36.15,32.94 -13.01,0 -24.57,-8.98 -31.89,-22.88 1.54,-7.04 13.04,-32.65 15.8,-26.64 6.89,18.3 13.04,21.56 22.55,14.69 7.47,-5.39 2.6,-19.5 4.66,-19.4 11.7,0.63 23.09,18.36 25.03,21.27z"/>
  <ellipse class="fil4" cx="271.46" cy="285.67" rx="30.51" ry="47.29"/>
  <path class="fil11" d="M193.91 89.39c-23.06,-19.88 -46.34,-26.9 -46.34,-26.9l0.06 -0.01c18.19,4.78 59.56,16.7 84.81,32.16 -28.36,-1.35 -99.95,39.17 -99.95,39.17 7.44,-13.25 37.82,-40.4 61.42,-44.43zm17.87 -23.79c-10.83,-23.28 -17.96,-41.22 -17.96,-41.22 0,0 2.86,1.51 7.55,3.98l31.07 46.03 -20.66 -8.79z"/>
  <path class="fil4" d="M267.88 137.64c0,0 36.53,-11.02 77.2,28.64 -24.02,-56.53 -70.98,-42.34 -77.2,-28.64z"/>
  <path class="fil4" d="M151.89 138.96c0,0 -41.39,-6.21 -64.15,23.8 27.42,-48.63 58.98,-35.18 64.15,-23.8z"/>
  <ellipse class="fil4" cx="119.19" cy="289.6" rx="30.36" ry="51.32"/>
  <path class="fil10" d="M146.58 311.74c-4.89,17.25 -15.32,29.17 -27.39,29.17 -9.86,0 -18.62,-7.95 -24.16,-20.26 1.16,-6.23 9.88,-28.91 11.97,-23.59 5.22,16.2 9.88,19.09 17.09,13.01 5.66,-4.77 1.97,-17.27 3.53,-17.17 8.87,0.56 17.5,16.26 18.97,18.83z"/>
  <ellipse class="fil4" cx="118.91" cy="291.59" rx="23.53" ry="40.53"/>
  <path class="fil5" d="M196.03 425.88c0,0 80.36,10.46 141.47,-23.63 -15.8,24.53 -32.01,69.42 -62.36,87.3 -30.35,17.88 -79.82,11.64 -79.11,-63.67z"/>
  <path class="fil12 str0" d="M249.33 424.47c10.47,-0.36 22.36,-1.3 34.85,-3.26 -12.14,19.21 -26.38,43.5 -28.2,54.39 -5.59,-3.48 -6.61,-31.83 -6.65,-51.13z"/>
  <polygon class="fil3" points="112,247.13 120.88,261.06 137.17,265.42 126.67,278.16 127.56,295.01 112.19,288.96 96.45,295.01 97.45,278.52 86.84,265.42 102.82,261.28 "/>
  <polygon class="fil3" points="256.74,239.51 265.62,253.44 281.91,257.8 271.41,270.55 272.29,287.39 256.93,281.34 241.18,287.39 242.19,270.9 231.57,257.8 247.56,253.66 "/>
 </g>
</svg>
