<svg width="341" height="339" viewBox="0 0 341 339" fill="none" xmlns="http://www.w3.org/2000/svg">
<path fill-rule="evenodd" clip-rule="evenodd" d="M339.899 241.529C345.634 205.593 325.787 191.515 325.787 191.515C325.787 191.515 329.406 88.902 243.1 51.7506C258.532 39.1762 266.832 40.8564 263.981 37.6251C261.129 34.3932 252.613 29.3502 224.729 30.2122C231.916 12.8205 232.575 6.3659 232.498 2.43731C232.421 -1.49081 229.417 -0.335422 224.873 3.51554C220.329 7.3665 163.715 34.7128 163.715 34.7128C42.471 33.1393 -34.0943 155.68 15.1114 264.516C74.0341 382.818 318.74 347.854 339.899 241.528L339.899 241.529Z" fill="black"/>
<path fill-rule="evenodd" clip-rule="evenodd" d="M314.414 193.159C314.414 193.159 319.217 79.971 220.128 55.6941C234.496 43.3083 249 38.9358 249 38.9358C249 38.9358 231.965 36.7536 208.572 41.7747C215.553 26.8329 220.185 15.1914 220.185 15.1914C220.185 15.1914 173.402 39.9483 165.064 42.6015C136.07 43.7388 83.7889 50.4482 47.1915 103.256C-53.4645 248.497 86.8007 382.055 269.226 307.763C337.093 275.652 346.438 219.059 314.414 193.159Z" fill="#FBC761"/>
<path fill-rule="evenodd" clip-rule="evenodd" d="M81.7526 69.4102C69.8001 77.8198 57.5314 88.4678 47.1925 103.255C-54.3145 248.439 86.7784 382.036 269.227 307.762C301.745 292.376 320.82 271.37 328.354 250.812C328.128 251.009 232.109 340.749 135.556 302.678C39.0048 264.608 -1.16737 183.118 81.7526 69.4102Z" fill="#E97F11"/>
<path fill-rule="evenodd" clip-rule="evenodd" d="M314.413 193.159C314.413 193.159 319.216 79.971 220.128 55.6941C221.778 54.2711 223.431 52.9552 225.063 51.7374C221.091 53.9034 217.527 56.5342 215.522 59.6179C314.634 81.6426 309.492 193.713 309.492 193.713C309.492 193.713 329.949 209.852 327.605 231.949C324.351 270.998 289.241 296.417 287.272 297.814C338.505 264.997 343.341 216.557 314.413 193.159L314.413 193.159ZM237.833 43.7364C244.408 40.3193 248.999 38.9358 248.999 38.9358C248.999 38.9358 232.597 36.8351 209.88 41.5004C208.169 42.4263 206.31 43.4235 204.284 44.5018C216.349 42.732 229.816 43.1906 237.833 43.7364ZM218.44 19.4472C219.565 16.7464 220.184 15.1914 220.184 15.1914C220.184 15.1914 173.4 39.9483 165.063 42.6015C136.068 43.7388 85.0349 49.9029 46.4196 101.253C-21.7771 191.942 14.277 321.063 144.275 329.036C101.222 321.988 55.7464 295.887 39.0024 264.608C-12.034 169.274 52.8037 53.672 166.231 47.0597C192.722 38.3267 218.428 19.4553 218.44 19.4472H218.44Z" fill="#FEFEFE"/>
<path fill-rule="evenodd" clip-rule="evenodd" d="M229.132 194.684C241.907 195.791 255.232 217.408 266.626 222.451C278.02 227.494 304.712 227.318 309.44 236.338C314.167 245.358 311.764 255.426 300.367 259.329C291.852 261.485 278.594 259.803 278.594 259.803C235.362 296.47 149.135 296.943 115.565 250.497C102.364 226.931 131.788 216.859 146.177 219.798C165.15 223.673 179.294 228.124 196.701 213.166C208.325 203.178 214.433 194.371 229.133 194.684H229.132Z" fill="black"/>
<path fill-rule="evenodd" clip-rule="evenodd" d="M273.79 250.103C273.79 250.103 293.952 253.366 300.305 251.268C306.657 249.17 306.184 238.536 295.648 235.834C285.112 233.132 278.493 234.181 278.493 234.181C278.493 234.181 260.83 230.034 249.857 216.12C238.883 202.207 230.168 198.835 221.225 202.128C212.282 205.422 199.324 224.243 185.943 227.489C172.563 230.735 153.599 228.074 139.331 225.981C125.063 223.888 111.807 237.39 126.702 253.397C141.598 269.404 172.253 278.177 189.493 280.094C211.751 282.571 254.338 273.288 271.071 257.657C226.934 265.188 199.205 286.415 152.749 255.348C140.111 246.897 140.18 244.417 140.18 244.417C140.18 244.417 134.192 242.871 129.492 245.574C132.422 237.688 139.166 236.385 148.067 238.109C156.968 239.832 162.746 239.302 162.746 239.302C162.746 239.302 158.432 242.489 153.909 243.598C149.385 244.708 154.149 249.344 159.847 252.178C165.544 255.012 184.713 265.787 211.964 262.919C239.216 260.052 256.727 250.603 273.789 250.104L273.79 250.103Z" fill="#FC7A02"/>
<path fill-rule="evenodd" clip-rule="evenodd" d="M273.79 250.108C273.79 250.108 293.952 253.371 300.304 251.273C301.732 250.802 302.815 249.898 303.516 248.75C293.603 245.87 279.529 243.089 267.329 245.582C245.79 249.983 227.426 257.368 204.853 257.268C182.279 257.169 158.515 241.846 158.515 241.846H158.515C157.134 242.537 155.535 243.204 153.909 243.603C149.386 244.713 154.149 249.349 159.847 252.183C165.545 255.017 184.714 265.792 211.965 262.924C239.216 260.057 256.728 250.608 273.789 250.109L273.79 250.108ZM121.619 233.703C118.907 238.772 119.633 245.804 126.702 253.402C161.442 290.733 232.027 286.137 271.071 257.662C225.392 277.291 181.128 287.522 133.416 253.343C124.36 246.856 121.976 239.174 121.62 233.703H121.619Z" fill="#BE4D13"/>
<path fill-rule="evenodd" clip-rule="evenodd" d="M304.328 243.891C303.729 240.597 300.976 237.201 295.646 235.834C285.11 233.132 278.492 234.181 278.492 234.181C278.492 234.181 260.829 230.034 249.855 216.12C238.882 202.207 230.166 198.835 221.223 202.128C216.132 204.003 209.739 210.912 202.707 217.113C206.37 215.259 210.346 212.84 214.045 209.751C225.201 200.433 235.583 204.667 247.316 219.173C259.048 233.678 274.273 235.782 274.273 235.782C274.273 235.782 272.017 236.889 262.863 240.719C284.721 235.115 297.244 238.759 304.327 243.891L304.328 243.891Z" fill="#FEFEFE"/>
<path d="M210.064 226.928C208.138 225.235 208.654 221.501 211.215 218.588C213.777 215.675 217.414 214.686 219.34 216.38C221.265 218.073 220.75 221.807 218.188 224.72C215.627 227.632 211.989 228.621 210.064 226.928Z" fill="black"/>
<path fill-rule="evenodd" clip-rule="evenodd" d="M164.364 118.75C140.851 118.75 120.712 144.099 120.712 173.255C120.712 202.411 141.718 220.093 165.898 220.093C233.325 220.093 205.76 119.151 164.364 118.75L164.364 118.75Z" fill="#201E1E"/>
<path fill-rule="evenodd" clip-rule="evenodd" d="M165.122 128.192C145.49 128.192 128.674 150.626 128.674 176.429C128.674 202.233 146.213 217.881 166.402 217.881C186.59 217.881 200.046 209.862 200.046 176.085C200.046 147.343 176.047 128.304 165.121 128.191L165.122 128.192Z" fill="#E6E7E8"/>
<path fill-rule="evenodd" clip-rule="evenodd" d="M149.244 213.747C154.448 216.451 160.303 217.881 166.402 217.881C186.59 217.881 200.046 209.862 200.046 176.085C200.046 166.103 197.149 157.292 192.913 150.037C185.309 139.764 175.199 133.773 169.182 133.711C150.165 133.711 133.877 155.441 133.877 180.435C133.877 195.503 140.054 206.994 149.243 213.746L149.244 213.747Z" fill="#FEFEFE"/>
<path fill-rule="evenodd" clip-rule="evenodd" d="M270.701 120.906C286.324 120.906 299.705 145.696 299.705 174.209C299.705 202.722 285.748 220.013 269.682 220.013C224.882 220.013 243.197 121.298 270.701 120.906Z" fill="#201E1E"/>
<path fill-rule="evenodd" clip-rule="evenodd" d="M270.199 130.137C283.243 130.137 294.416 152.076 294.416 177.31C294.416 202.543 282.762 217.847 269.348 217.847C255.935 217.847 246.994 210.005 246.994 176.973C246.994 148.865 262.94 130.247 270.199 130.137Z" fill="#FEFEFE"/>
<path fill-rule="evenodd" clip-rule="evenodd" d="M270.199 130.137C277.088 130.137 283.455 136.259 287.93 145.751C283.764 139.19 278.531 135.179 272.955 135.179C265.697 135.288 249.751 153.907 249.751 182.015C249.751 195.278 251.193 204.477 253.787 210.741C249.476 204.785 246.994 194.377 246.994 176.973C246.994 148.865 262.94 130.246 270.199 130.137V130.137Z" fill="#E6E7E8"/>
<path d="M171.578 214.091C157.794 214.091 146.62 197.924 146.62 177.981C146.62 158.038 157.794 141.871 171.578 141.871C185.362 141.871 196.536 158.038 196.536 177.981C196.536 197.924 185.362 214.091 171.578 214.091Z" fill="black"/>
<path fill-rule="evenodd" clip-rule="evenodd" d="M149.058 193.566C153.079 205.707 161.652 214.092 171.578 214.092C179.683 214.092 186.885 208.499 191.444 199.838C190.487 195.451 183.318 179.498 181.602 183.242C177.306 194.642 173.48 196.672 167.553 192.397C162.897 189.039 165.935 180.244 164.652 180.313C157.36 180.705 150.267 191.752 149.059 193.566H149.058Z" fill="#373435"/>
<path d="M171.808 207.445C161.309 207.445 152.798 194.253 152.798 177.98C152.798 161.707 161.309 148.516 171.808 148.516C182.307 148.516 190.818 161.707 190.818 177.98C190.818 194.253 182.307 207.445 171.808 207.445Z" fill="black"/>
<path d="M183.762 166.75C178.769 166.75 174.722 162.665 174.722 157.627C174.722 152.588 178.769 148.504 183.762 148.504C188.754 148.504 192.801 152.588 192.801 157.627C192.801 162.665 188.754 166.75 183.762 166.75Z" fill="#FEFEFE"/>
<path fill-rule="evenodd" clip-rule="evenodd" d="M220.129 55.6941C234.497 43.3083 249 38.9358 249 38.9358L248.962 38.9311C237.631 41.9095 211.856 49.3362 196.123 58.9688C213.796 58.1273 258.396 83.3733 258.396 83.3733C253.76 75.1185 234.83 58.2035 220.129 55.6946V55.6941ZM208.993 40.8718C215.739 26.3666 220.185 15.1914 220.185 15.1914C220.185 15.1914 218.403 16.1344 215.481 17.6679L196.123 46.3458L208.993 40.8718Z" fill="#E97F11"/>
<path fill-rule="evenodd" clip-rule="evenodd" d="M174.041 98.4159C174.041 98.4159 151.28 91.5489 125.941 116.26C140.906 81.0394 170.161 89.8825 174.041 98.4159Z" fill="black"/>
<path fill-rule="evenodd" clip-rule="evenodd" d="M246.307 99.2389C246.307 99.2389 272.093 95.3708 286.275 114.066C269.192 83.767 249.53 92.1476 246.307 99.2389Z" fill="black"/>
<path d="M266.677 212.406C256.231 212.406 247.763 198.091 247.763 180.434C247.763 162.776 256.231 148.461 266.677 148.461C277.122 148.461 285.59 162.776 285.59 180.434C285.59 198.091 277.122 212.406 266.677 212.406Z" fill="black"/>
<path fill-rule="evenodd" clip-rule="evenodd" d="M249.612 194.231C252.658 204.981 259.155 212.405 266.677 212.405C272.82 212.405 278.277 207.454 281.732 199.784C281.007 195.901 275.574 181.774 274.273 185.09C271.019 195.184 268.119 196.981 263.627 193.196C260.1 190.224 262.401 182.436 261.429 182.496C255.903 182.844 250.529 192.625 249.612 194.231H249.612Z" fill="#373435"/>
<path d="M266.853 206.926C258.757 206.926 252.193 195.62 252.193 181.672C252.193 167.725 258.757 156.418 266.853 156.418C274.95 156.418 281.514 167.725 281.514 181.672C281.514 195.62 274.95 206.926 266.853 206.926Z" fill="black"/>
<path d="M275.91 170.487C272.127 170.487 269.06 166.871 269.06 162.41C269.06 157.949 272.127 154.332 275.91 154.332C279.693 154.332 282.76 157.949 282.76 162.41C282.76 166.871 279.693 170.487 275.91 170.487Z" fill="#FEFEFE"/>
</svg>
