<svg xmlns="http://www.w3.org/2000/svg" xmlns:xlink="http://www.w3.org/1999/xlink" width="500" zoomAndPan="magnify" viewBox="0 0 375 374.999991" height="500" preserveAspectRatio="xMidYMid meet" version="1.0"><defs><clipPath id="0d5ce6507d"><path d="M 71 209 L 305.851562 209 L 305.851562 296.25 L 71 296.25 Z M 71 209 " clip-rule="nonzero"/></clipPath><clipPath id="726ff5f30e"><path d="M 163 236 L 302 236 L 302 296.25 L 163 296.25 Z M 163 236 " clip-rule="nonzero"/></clipPath><clipPath id="3d9cf405f0"><path d="M 94 283 L 136 283 L 136 296.25 L 94 296.25 Z M 94 283 " clip-rule="nonzero"/></clipPath><clipPath id="5f26c0999a"><path d="M 94 293 L 125 293 L 125 296.25 L 94 296.25 Z M 94 293 " clip-rule="nonzero"/></clipPath><clipPath id="3e46b8d981"><path d="M 84 268 L 125 268 L 125 296.25 L 84 296.25 Z M 84 268 " clip-rule="nonzero"/></clipPath><clipPath id="fba9313388"><path d="M 84 272 L 100 272 L 100 296.25 L 84 296.25 Z M 84 272 " clip-rule="nonzero"/></clipPath><clipPath id="471f502030"><path d="M 87 227 L 184 227 L 184 296.25 L 87 296.25 Z M 87 227 " clip-rule="nonzero"/></clipPath><clipPath id="bb33b4c2f9"><path d="M 126 267 L 184 267 L 184 296.25 L 126 296.25 Z M 126 267 " clip-rule="nonzero"/></clipPath><clipPath id="067e631821"><path d="M 136 280 L 158 280 L 158 296.25 L 136 296.25 Z M 136 280 " clip-rule="nonzero"/></clipPath><clipPath id="b1c7d851e3"><path d="M 68.851562 37.5 L 257 37.5 L 257 225 L 68.851562 225 Z M 68.851562 37.5 " clip-rule="nonzero"/></clipPath></defs><g clip-path="url(#0d5ce6507d)"><path fill="#000000" d="M 290.460938 301.242188 C 290.460938 301.242188 304.234375 247.503906 305.398438 242.523438 C 306.5625 237.542969 304.65625 234.257812 298.835938 234.148438 C 293.011719 234.042969 235.328125 236.914062 231.835938 237.1875 C 228.347656 237.460938 224.421875 239.667969 223.085938 246.519531 C 216 236.4375 203.289062 224.519531 203.289062 224.519531 L 203.496094 209.648438 C 203.496094 209.648438 141.953125 208.246094 120.632812 227.09375 C 99.3125 245.945312 94.488281 255.601562 94.488281 255.601562 C 94.488281 255.601562 85.03125 258.835938 77.046875 244.207031 C 74.207031 266.289062 69.015625 302.742188 115.898438 338.167969 C 114.386719 350.578125 116.195312 352.304688 119.707031 354.21875 C 118.351562 358.613281 116.9375 365.253906 115.066406 366.363281 C 113.191406 367.476562 84.300781 378.605469 77.011719 381.59375 C 69.722656 384.582031 69.929688 389.722656 74.375 392.015625 C 78.816406 394.308594 86.226562 395.953125 86.226562 395.953125 C 86.226562 395.953125 85.421875 402.191406 91.386719 403.292969 C 97.351562 404.390625 104.730469 403.527344 112.578125 404.863281 C 120.425781 406.195312 125.9375 409.929688 132.738281 405.757812 C 139.542969 401.589844 155.519531 393.824219 156.492188 385.761719 C 157.460938 377.699219 149.703125 373.9375 150.015625 370.9375 C 150.328125 367.933594 151.265625 360.179688 151.265625 360.179688 C 151.265625 360.179688 160.207031 358.988281 160.515625 349.953125 C 168.5625 348.414062 172.429688 348.230469 172.429688 348.230469 C 172.429688 348.230469 172.582031 353.875 173.371094 355.960938 C 174.160156 358.046875 179.046875 359.988281 179.046875 359.988281 C 179.046875 359.988281 180.578125 370.871094 180.4375 372.214844 C 180.296875 373.558594 173.8125 380.179688 174.023438 385.394531 C 174.230469 390.605469 180.0625 392.320312 186.34375 397.207031 C 192.621094 402.097656 196.90625 407.246094 204.058594 407.507812 C 211.210938 407.769531 221.292969 403.632812 226.78125 403.804688 C 232.269531 403.976562 239.902344 405.953125 242.988281 400.886719 C 246.074219 395.824219 248.992188 396.082031 254.136719 393.59375 C 259.28125 391.101562 258.816406 386.8125 254.871094 385.136719 C 250.929688 383.457031 234.925781 379.652344 224.945312 375.90625 C 214.96875 372.160156 212.777344 371.519531 211.480469 369.09375 C 210.183594 366.667969 208.027344 355.394531 208.027344 355.394531 C 208.027344 355.394531 212.488281 353.347656 213.109375 349.5625 C 213.730469 345.78125 213.175781 338.980469 213.175781 338.980469 L 218.753906 323.355469 C 218.753906 323.355469 233.644531 333.421875 254.554688 327.769531 C 275.460938 322.117188 276.417969 307.386719 276.417969 307.386719 C 283.28125 306.792969 289.023438 307.585938 290.460938 301.242188 Z M 290.460938 301.242188 " fill-opacity="1" fill-rule="evenodd"/></g><g clip-path="url(#726ff5f30e)"><path fill="#fefefe" d="M 299.707031 236.398438 C 299.707031 236.398438 238.339844 239.203125 233.839844 239.765625 C 229.339844 240.328125 227.503906 241.53125 225.902344 248.296875 C 224.300781 255.058594 212.046875 304.402344 211.128906 308.238281 C 210.207031 312.074219 208.011719 310.898438 204.691406 310.179688 C 201.367188 309.464844 181.097656 303.574219 178.894531 302.800781 C 176.691406 302.027344 179.707031 301.371094 179.707031 301.371094 L 211.300781 297.308594 L 212.074219 293.59375 C 212.074219 293.59375 168.402344 299.652344 165.441406 300.105469 C 162.476562 300.554688 163.320312 301.902344 165.183594 302.242188 C 167.046875 302.582031 201.550781 312.617188 205.214844 313.554688 C 208.875 314.492188 212.199219 313.296875 213.390625 308.863281 C 214.582031 304.429688 227.042969 254.011719 228.113281 249.152344 C 229.183594 244.292969 231.160156 242.066406 235.6875 241.902344 C 240.210938 241.738281 297.886719 239.082031 300.4375 238.792969 C 302.984375 238.503906 301.941406 236.300781 299.707031 236.398438 Z M 299.707031 236.398438 " fill-opacity="1" fill-rule="evenodd"/></g><path fill="#fefefe" d="M 259.472656 283.617188 C 255.710938 283.617188 253.6875 279.4375 254.949219 274.277344 C 256.210938 269.121094 260.285156 264.941406 264.046875 264.941406 C 267.808594 264.941406 269.835938 269.121094 268.570312 274.277344 C 267.308594 279.4375 263.234375 283.617188 259.472656 283.617188 Z M 259.472656 283.617188 " fill-opacity="1" fill-rule="nonzero"/><g clip-path="url(#3d9cf405f0)"><path fill="#fbc761" d="M 118.605469 331.96875 L 119.28125 330.980469 L 135.730469 306.953125 C 135.730469 306.953125 132.175781 289.253906 123.582031 284.542969 C 114.988281 279.828125 92.964844 293.738281 94.523438 307.761719 C 101.371094 321.941406 112.890625 330.042969 118.605469 331.96875 Z M 118.605469 331.96875 " fill-opacity="1" fill-rule="evenodd"/></g><g clip-path="url(#5f26c0999a)"><path fill="#e97f11" d="M 118.605469 331.96875 L 119.28125 330.984375 L 124.359375 323.5625 C 117.25 319.414062 106.539062 310.617188 100.453125 293.34375 C 96.535156 297.53125 93.953125 302.636719 94.523438 307.761719 C 101.371094 321.941406 112.890625 330.042969 118.605469 331.96875 Z M 118.605469 331.96875 " fill-opacity="1" fill-rule="evenodd"/></g><g clip-path="url(#3e46b8d981)"><path fill="#fefefe" d="M 90.46875 304.371094 C 90.46875 304.371094 97.492188 275.839844 124.761719 280.664062 C 121.042969 270.601562 114.84375 266.605469 101.210938 269.085938 C 87.578125 271.566406 83.308594 285.074219 84.273438 289.898438 C 85.238281 294.722656 90.46875 304.371094 90.46875 304.371094 Z M 90.46875 304.371094 " fill-opacity="1" fill-rule="evenodd"/></g><path fill="#d2d3d5" d="M 123.984375 278.738281 C 123.199219 276.953125 122.308594 275.394531 121.28125 274.066406 C 119.066406 273.886719 114.445312 273.882812 110.664062 276.347656 C 114.523438 274.457031 120.769531 276.675781 120.769531 276.675781 C 120.769531 276.675781 111.023438 274.820312 102.734375 283.1875 C 110.53125 277.832031 119.800781 277.921875 123.984375 278.738281 Z M 120.734375 273.398438 C 119.449219 271.910156 117.953125 270.746094 116.1875 269.914062 C 112.519531 269.03125 107.835938 268.761719 103.015625 270.734375 C 109.078125 269.058594 117.152344 271.90625 120.734375 273.398438 Z M 120.734375 273.398438 " fill-opacity="1" fill-rule="evenodd"/><g clip-path="url(#fba9313388)"><path fill="#d2d3d5" d="M 90.46875 304.371094 C 90.46875 304.371094 91.5 300.199219 94.292969 295.316406 C 94.488281 293.234375 95.375 288.769531 99.179688 283.28125 C 93.972656 287.773438 91.460938 292.085938 91.460938 292.085938 C 91.460938 292.085938 92.351562 286.15625 98.046875 279.59375 C 90.632812 282.25 87.824219 288.8125 87.824219 288.8125 C 87.824219 288.8125 89.980469 279.464844 96.175781 272.8125 C 91.835938 274.964844 88.703125 277.324219 86.582031 279.804688 C 84.476562 283.730469 83.835938 287.707031 84.273438 289.898438 C 85.238281 294.722656 90.46875 304.371094 90.46875 304.371094 Z M 90.46875 304.371094 " fill-opacity="1" fill-rule="evenodd"/></g><g clip-path="url(#471f502030)"><path fill="#fefefe" d="M 87.175781 275.261719 C 87.175781 275.261719 103.097656 247.355469 123.863281 232.839844 C 127.625 233.375 131.234375 238.058594 132.390625 243.851562 C 131.324219 233.691406 126.519531 231.199219 126.519531 231.199219 L 132.480469 227.277344 C 132.480469 227.277344 152.664062 244.875 163.40625 254.535156 C 169.011719 245.808594 170.101562 242.847656 170.101562 242.847656 C 170.101562 242.847656 171.8125 247.054688 173.679688 247.835938 C 172.746094 258.898438 165.605469 286.726562 165.605469 286.726562 L 174.101562 295.628906 C 174.101562 295.628906 161.179688 297.929688 159.476562 298.160156 C 157.773438 298.394531 157.542969 299.554688 157.464844 301.261719 C 157.386719 302.964844 157.078125 304.980469 159.011719 305.832031 C 160.945312 306.683594 183.238281 313.121094 183.238281 313.121094 C 162.167969 316.328125 139.855469 302.789062 137.90625 298.886719 C 133.9375 290.941406 130.191406 282.839844 126.433594 274.789062 C 131.375 268.601562 133.765625 259.902344 133.816406 259.726562 C 134.574219 255.5 133.5 250.128906 133.5 250.128906 C 133.5 250.128906 136.535156 261.347656 122.746094 269.757812 C 113.054688 264.582031 97.054688 264.300781 87.175781 275.261719 Z M 87.175781 275.261719 " fill-opacity="1" fill-rule="evenodd"/></g><g clip-path="url(#bb33b4c2f9)"><path fill="#d2d3d5" d="M 170.386719 296.289062 C 166.429688 296.988281 160.585938 298.011719 159.476562 298.160156 C 157.773438 298.394531 157.542969 299.554688 157.464844 301.261719 C 157.386719 302.964844 157.078125 304.980469 159.011719 305.832031 C 160.949219 306.683594 183.242188 313.121094 183.242188 313.121094 C 162.167969 316.328125 139.855469 302.789062 137.90625 298.886719 C 134.066406 291.199219 126.433594 274.789062 126.433594 274.789062 C 126.433594 274.789062 128.539062 271.785156 130.8125 267.597656 C 134.875 273.753906 149.320312 293.871094 170.386719 296.289062 Z M 170.386719 296.289062 " fill-opacity="1" fill-rule="evenodd"/></g><path fill="#d2d3d5" d="M 103.820312 251.816406 C 109.527344 245.039062 116.378906 238.070312 123.863281 232.839844 C 125.917969 233.132812 127.929688 234.664062 129.519531 236.9375 C 122.078125 239.777344 113.472656 244.429688 103.820312 251.816406 Z M 130.609375 236.535156 C 128.835938 232.402344 126.519531 231.199219 126.519531 231.199219 L 132.480469 227.277344 C 132.480469 227.277344 135.597656 229.992188 140.027344 233.875 C 137.144531 234.445312 134.003906 235.300781 130.609375 236.535156 Z M 130.609375 236.535156 " fill-opacity="1" fill-rule="evenodd"/><path fill="#d2d3d5" d="M 87.175781 275.261719 C 87.175781 275.261719 88.167969 273.519531 89.984375 270.679688 C 97.402344 263.96875 109.808594 260.578125 118.625 263.835938 C 114.816406 258.984375 114.125 258.175781 117.933594 259.90625 C 121.742188 261.640625 132.96875 262.085938 133.761719 252.046875 C 133.691406 253.242188 133.648438 254.269531 133.617188 255.167969 C 133.027344 259.191406 130.652344 264.9375 122.746094 269.757812 C 113.054688 264.582031 97.058594 264.300781 87.175781 275.261719 Z M 87.175781 275.261719 " fill-opacity="1" fill-rule="evenodd"/><path fill="#fefefe" d="M 192.707031 292.710938 L 212.566406 289.710938 C 212.566406 289.710938 216.445312 271.375 211.117188 246.699219 C 215.828125 258.230469 218.304688 268.398438 218.304688 268.398438 L 221.648438 254.015625 C 221.648438 254.015625 212.816406 237.355469 202.84375 229.796875 C 200.421875 241.777344 195.105469 251.578125 195.105469 251.578125 L 188.761719 240.664062 C 188.761719 240.664062 187.039062 245.535156 185.191406 247.324219 C 187.902344 254.78125 197.535156 285.84375 197.535156 285.84375 Z M 192.707031 292.710938 " fill-opacity="1" fill-rule="evenodd"/><path fill="#d2d3d5" d="M 192.707031 292.710938 L 212.566406 289.710938 C 212.566406 289.710938 215.664062 275.058594 212.515625 254.320312 C 211.878906 263.273438 205.441406 275.539062 197.136719 284.550781 L 197.535156 285.84375 Z M 192.707031 292.710938 " fill-opacity="1" fill-rule="evenodd"/><path fill="#fefefe" d="M 194.542969 244.1875 C 194.542969 244.1875 188.863281 233.304688 183.476562 228.308594 C 193.660156 221.835938 195.132812 220.464844 195.132812 220.464844 L 199.046875 219.484375 C 199.046875 219.484375 201.59375 230.070312 194.542969 244.1875 Z M 194.542969 244.1875 " fill-opacity="1" fill-rule="evenodd"/><path fill="#d2d3d5" d="M 185.003906 229.863281 C 184.496094 229.300781 183.984375 228.777344 183.476562 228.308594 C 193.660156 221.835938 195.132812 220.464844 195.132812 220.464844 L 199.046875 219.484375 C 199.046875 219.484375 199.347656 220.730469 199.457031 222.929688 C 199.105469 223.179688 198.738281 223.433594 198.363281 223.695312 C 195.460938 225.300781 190.941406 227.71875 185.003906 229.863281 Z M 185.003906 229.863281 " fill-opacity="1" fill-rule="evenodd"/><path fill="#fefefe" d="M 175.597656 228.605469 L 169.976562 224.429688 C 169.976562 224.429688 155.015625 226.703125 135.804688 224.171875 C 147.71875 234.605469 161.933594 247.382812 161.933594 247.382812 C 161.933594 247.382812 166.96875 239.894531 175.597656 228.605469 Z M 175.597656 228.605469 " fill-opacity="1" fill-rule="evenodd"/><path fill="#d2d3d5" d="M 175.597656 228.605469 L 169.976562 224.429688 C 169.976562 224.429688 155.015625 226.703125 135.804688 224.171875 C 137.414062 225.582031 139.070312 227.035156 140.722656 228.496094 C 152.632812 230.625 164.011719 229.992188 170.375 229.316406 L 170.523438 229.285156 L 170.511719 229.300781 C 173.707031 228.957031 175.597656 228.605469 175.597656 228.605469 Z M 175.597656 228.605469 " fill-opacity="1" fill-rule="evenodd"/><path fill="#fbc761" d="M 187.296875 221.375 C 187.296875 221.375 180.363281 223.746094 175.296875 223.691406 C 178.875 226.226562 180.140625 227.160156 180.140625 227.160156 C 180.140625 227.160156 184.269531 224.40625 187.296875 221.375 Z M 187.296875 221.375 " fill-opacity="1" fill-rule="evenodd"/><path fill="#fbc761" d="M 90.390625 260.90625 C 90.390625 260.90625 83.976562 269.832031 81.257812 279.292969 C 79.078125 264.957031 79.609375 256.109375 79.609375 256.109375 C 79.609375 256.109375 84.484375 261.167969 90.390625 260.90625 Z M 90.390625 260.90625 " fill-opacity="1" fill-rule="evenodd"/><path fill="#4b4b4d" d="M 185.847656 294.636719 L 193.960938 285.339844 L 183.40625 248.324219 C 183.40625 248.324219 181.859375 248.582031 178.675781 248.496094 C 180.738281 259.089844 186.390625 276.605469 179.195312 290.355469 C 183.371094 293.648438 185.847656 294.636719 185.847656 294.636719 Z M 185.847656 294.636719 " fill-opacity="1" fill-rule="evenodd"/><path fill="#bdbfc1" d="M 186.953125 293.371094 L 193.960938 285.339844 L 183.40625 248.324219 C 183.40625 248.324219 182.675781 248.445312 181.191406 248.496094 L 189.773438 286.1875 Z M 186.953125 293.371094 " fill-opacity="1" fill-rule="evenodd"/><path fill="#4b4b4d" d="M 183.023438 244.785156 C 180.847656 243.792969 176.035156 240.890625 176.230469 233.035156 C 179.265625 230.59375 181.707031 228.8125 184.738281 234.6875 C 185.859375 241.683594 183.023438 244.785156 183.023438 244.785156 Z M 183.023438 244.785156 " fill-opacity="1" fill-rule="evenodd"/><path fill="#bdbfc1" d="M 183.023438 244.785156 L 182.984375 244.765625 C 185.011719 240.679688 182.019531 234.164062 180.140625 230.769531 C 181.625 230.566406 183.09375 231.5 184.738281 234.6875 C 185.859375 241.683594 183.023438 244.785156 183.023438 244.785156 Z M 183.023438 244.785156 " fill-opacity="1" fill-rule="evenodd"/><g clip-path="url(#067e631821)"><path fill="#fefefe" d="M 157.382812 307.101562 C 157.382812 307.101562 148.222656 301.789062 144.503906 298.730469 C 140.789062 295.675781 136.804688 280.261719 136.804688 280.261719 C 136.804688 280.261719 144.503906 298.730469 157.382812 307.101562 Z M 157.382812 307.101562 " fill-opacity="1" fill-rule="evenodd"/></g><path fill="#d2d3d5" d="M 168.550781 245.984375 C 169.773438 243.738281 170.101562 242.847656 170.101562 242.847656 C 170.101562 242.847656 171.8125 247.054688 173.683594 247.835938 C 173.621094 248.5625 173.53125 249.367188 173.417969 250.230469 C 170.828125 249 169.371094 247.429688 168.550781 245.984375 Z M 202.324219 232.148438 C 201.875 234.046875 201.363281 235.871094 200.824219 237.589844 C 202.332031 237.683594 204.933594 238.65625 209.082031 242.484375 C 207.574219 238.902344 204.367188 234.660156 202.324219 232.148438 Z M 195.109375 251.578125 L 188.765625 240.664062 C 188.765625 240.664062 187.039062 245.535156 185.191406 247.320312 C 185.527344 248.246094 185.96875 249.535156 186.488281 251.078125 C 189.683594 249.25 189.796875 245.734375 189.796875 245.734375 Z M 195.109375 251.578125 " fill-opacity="1" fill-rule="evenodd"/><g clip-path="url(#b1c7d851e3)"><path fill="#000000" d="M 256.089844 170.683594 C 259.25 150.867188 248.316406 143.105469 248.316406 143.105469 C 248.316406 143.105469 250.3125 86.523438 202.769531 66.039062 C 211.269531 59.105469 215.839844 60.03125 214.269531 58.25 C 212.699219 56.464844 208.007812 53.6875 192.648438 54.160156 C 196.605469 44.570312 196.96875 41.011719 196.925781 38.84375 C 196.882812 36.679688 195.230469 37.316406 192.726562 39.441406 C 190.222656 41.5625 159.035156 56.644531 159.035156 56.644531 C 92.246094 55.773438 50.070312 123.34375 77.175781 183.359375 C 109.632812 248.589844 244.433594 229.3125 256.089844 170.683594 Z M 256.089844 170.683594 " fill-opacity="1" fill-rule="evenodd"/></g><path fill="#fbc761" d="M 242.050781 144.011719 C 242.050781 144.011719 244.699219 81.597656 190.113281 68.210938 C 198.027344 61.382812 206.015625 58.96875 206.015625 58.96875 C 206.015625 58.96875 196.632812 57.765625 183.746094 60.535156 C 187.59375 52.296875 190.144531 45.878906 190.144531 45.878906 C 190.144531 45.878906 164.371094 59.527344 159.78125 60.992188 C 143.808594 61.617188 115.007812 65.320312 94.847656 94.4375 C 39.398438 174.527344 116.667969 248.171875 217.160156 207.207031 C 254.546875 189.5 259.691406 158.292969 242.050781 144.011719 Z M 242.050781 144.011719 " fill-opacity="1" fill-rule="evenodd"/><path fill="#e97f11" d="M 113.886719 75.773438 C 107.300781 80.410156 100.542969 86.28125 94.847656 94.4375 C 38.929688 174.492188 116.65625 248.160156 217.160156 207.203125 C 235.074219 198.71875 245.582031 187.136719 249.730469 175.800781 C 249.605469 175.910156 196.710938 225.394531 143.523438 204.402344 C 90.335938 183.410156 68.207031 138.472656 113.886719 75.773438 Z M 113.886719 75.773438 " fill-opacity="1" fill-rule="evenodd"/><path fill="#fefefe" d="M 242.050781 144.011719 C 242.050781 144.011719 244.699219 81.597656 190.113281 68.210938 C 191.023438 67.425781 191.933594 66.699219 192.832031 66.03125 C 190.644531 67.222656 188.679688 68.675781 187.574219 70.375 C 242.171875 82.519531 239.339844 144.316406 239.339844 144.316406 C 239.339844 144.316406 250.609375 153.214844 249.320312 165.402344 C 247.527344 186.933594 228.183594 200.949219 227.101562 201.71875 C 255.324219 183.625 257.988281 156.914062 242.050781 144.011719 Z M 199.867188 61.617188 C 203.488281 59.734375 206.015625 58.96875 206.015625 58.96875 C 206.015625 58.96875 196.980469 57.8125 184.46875 60.382812 C 183.523438 60.894531 182.5 61.445312 181.386719 62.039062 C 188.03125 61.0625 195.449219 61.316406 199.867188 61.617188 Z M 189.183594 48.222656 C 189.800781 46.734375 190.144531 45.878906 190.144531 45.878906 C 190.144531 45.878906 164.371094 59.527344 159.777344 60.992188 C 143.808594 61.617188 115.695312 65.019531 94.421875 93.332031 C 56.855469 143.339844 76.714844 214.539062 148.328125 218.933594 C 124.609375 215.046875 99.558594 200.65625 90.335938 183.410156 C 62.222656 130.839844 97.9375 67.097656 160.421875 63.449219 C 175.015625 58.632812 189.175781 48.230469 189.183594 48.222656 Z M 189.183594 48.222656 " fill-opacity="1" fill-rule="evenodd"/><path fill="#000000" d="M 195.074219 144.851562 C 202.109375 145.460938 209.449219 157.382812 215.726562 160.164062 C 222.003906 162.945312 236.707031 162.847656 239.3125 167.820312 C 241.917969 172.792969 240.59375 178.34375 234.3125 180.496094 C 229.625 181.6875 222.320312 180.757812 222.320312 180.757812 C 198.503906 200.976562 151.003906 201.238281 132.511719 175.628906 C 125.242188 162.632812 141.449219 157.078125 149.375 158.699219 C 159.828125 160.835938 167.617188 163.292969 177.207031 155.042969 C 183.609375 149.535156 186.976562 144.679688 195.074219 144.851562 Z M 195.074219 144.851562 " fill-opacity="1" fill-rule="evenodd"/><path fill="#fc7a02" d="M 219.675781 175.410156 C 219.675781 175.410156 230.78125 177.210938 234.28125 176.054688 C 237.78125 174.898438 237.519531 169.035156 231.714844 167.542969 C 225.910156 166.054688 222.265625 166.632812 222.265625 166.632812 C 222.265625 166.632812 212.535156 164.34375 206.488281 156.671875 C 200.445312 149 195.644531 147.140625 190.71875 148.957031 C 185.789062 150.773438 178.652344 161.152344 171.28125 162.941406 C 163.910156 164.730469 153.464844 163.265625 145.605469 162.109375 C 137.746094 160.957031 130.441406 168.402344 138.648438 177.226562 C 146.851562 186.054688 163.738281 190.890625 173.238281 191.949219 C 185.5 193.316406 208.957031 188.195312 218.175781 179.578125 C 193.863281 183.730469 178.585938 195.433594 152.996094 178.304688 C 146.035156 173.644531 146.070312 172.277344 146.070312 172.277344 C 146.070312 172.277344 142.773438 171.421875 140.183594 172.914062 C 141.796875 168.566406 145.511719 167.847656 150.417969 168.796875 C 155.320312 169.75 158.503906 169.457031 158.503906 169.457031 C 158.503906 169.457031 156.125 171.214844 153.632812 171.824219 C 151.144531 172.4375 153.765625 174.992188 156.90625 176.554688 C 160.042969 178.117188 170.605469 184.058594 185.617188 182.480469 C 200.628906 180.898438 210.273438 175.6875 219.671875 175.410156 Z M 219.675781 175.410156 " fill-opacity="1" fill-rule="evenodd"/><path fill="#be4d13" d="M 219.671875 175.414062 C 219.671875 175.414062 230.78125 177.210938 234.28125 176.054688 C 235.066406 175.796875 235.660156 175.296875 236.046875 174.664062 C 230.589844 173.078125 222.835938 171.542969 216.113281 172.917969 C 204.25 175.34375 194.132812 179.417969 181.699219 179.363281 C 169.261719 179.308594 156.171875 170.859375 156.171875 170.859375 C 155.410156 171.238281 154.53125 171.605469 153.632812 171.828125 C 151.140625 172.4375 153.765625 174.996094 156.90625 176.558594 C 160.042969 178.121094 170.605469 184.0625 185.617188 182.480469 C 200.628906 180.898438 210.273438 175.6875 219.671875 175.414062 Z M 135.847656 166.367188 C 134.351562 169.164062 134.753906 173.039062 138.648438 177.230469 C 157.785156 197.816406 196.667969 195.28125 218.175781 179.578125 C 193.011719 190.402344 168.628906 196.042969 142.34375 177.195312 C 137.355469 173.621094 136.042969 169.382812 135.847656 166.367188 Z M 135.847656 166.367188 " fill-opacity="1" fill-rule="evenodd"/><path fill="#fefefe" d="M 236.496094 171.984375 C 236.167969 170.167969 234.648438 168.296875 231.714844 167.542969 C 225.910156 166.054688 222.265625 166.632812 222.265625 166.632812 C 222.265625 166.632812 212.535156 164.34375 206.488281 156.671875 C 200.445312 149 195.644531 147.140625 190.71875 148.957031 C 187.910156 149.992188 184.390625 153.800781 180.515625 157.222656 C 182.535156 156.199219 184.726562 154.863281 186.761719 153.160156 C 192.90625 148.023438 198.625 150.359375 205.089844 158.355469 C 211.554688 166.355469 219.941406 167.515625 219.941406 167.515625 C 219.941406 167.515625 218.695312 168.125 213.65625 170.238281 C 225.695312 167.148438 232.59375 169.15625 236.496094 171.984375 Z M 236.496094 171.984375 " fill-opacity="1" fill-rule="evenodd"/><path fill="#000000" d="M 184.570312 162.632812 C 183.507812 161.699219 183.792969 159.640625 185.203125 158.03125 C 186.613281 156.425781 188.617188 155.882812 189.679688 156.816406 C 190.738281 157.75 190.457031 159.808594 189.042969 161.414062 C 187.632812 163.019531 185.628906 163.566406 184.570312 162.632812 Z M 184.570312 162.632812 " fill-opacity="1" fill-rule="nonzero"/><path fill="#201e1e" d="M 159.394531 102.980469 C 146.441406 102.980469 135.347656 116.960938 135.347656 133.039062 C 135.347656 149.113281 146.917969 158.863281 160.238281 158.863281 C 197.382812 158.863281 182.199219 103.203125 159.394531 102.984375 Z M 159.394531 102.980469 " fill-opacity="1" fill-rule="evenodd"/><path fill="#e6e7e8" d="M 159.8125 108.1875 C 148.996094 108.1875 139.734375 120.558594 139.734375 134.789062 C 139.734375 149.015625 149.394531 157.644531 160.515625 157.644531 C 171.636719 157.644531 179.050781 153.222656 179.050781 134.597656 C 179.050781 118.75 165.828125 108.25 159.8125 108.1875 Z M 159.8125 108.1875 " fill-opacity="1" fill-rule="evenodd"/><path fill="#fefefe" d="M 151.0625 155.363281 C 153.929688 156.855469 157.15625 157.644531 160.515625 157.644531 C 171.636719 157.644531 179.050781 153.222656 179.050781 134.597656 C 179.050781 129.089844 177.453125 124.234375 175.121094 120.234375 C 170.933594 114.566406 165.363281 111.265625 162.046875 111.230469 C 151.574219 111.230469 142.597656 123.214844 142.597656 136.996094 C 142.597656 145.304688 146 151.640625 151.0625 155.363281 Z M 151.0625 155.363281 " fill-opacity="1" fill-rule="evenodd"/><path fill="#201e1e" d="M 217.972656 104.171875 C 226.578125 104.171875 233.949219 117.839844 233.949219 133.5625 C 233.949219 149.285156 226.261719 158.820312 217.410156 158.820312 C 192.730469 158.820312 202.820312 104.386719 217.972656 104.171875 Z M 217.972656 104.171875 " fill-opacity="1" fill-rule="evenodd"/><path fill="#fefefe" d="M 217.695312 109.261719 C 224.882812 109.261719 231.035156 121.359375 231.035156 135.273438 C 231.035156 149.1875 224.617188 157.625 217.226562 157.625 C 209.835938 157.625 204.914062 153.300781 204.914062 135.085938 C 204.914062 119.585938 213.695312 109.320312 217.695312 109.261719 Z M 217.695312 109.261719 " fill-opacity="1" fill-rule="evenodd"/><path fill="#e6e7e8" d="M 217.695312 109.261719 C 221.492188 109.261719 225 112.636719 227.460938 117.871094 C 225.167969 114.253906 222.285156 112.039062 219.214844 112.039062 C 215.214844 112.101562 206.429688 122.367188 206.429688 137.867188 C 206.429688 145.179688 207.226562 150.253906 208.65625 153.707031 C 206.28125 150.421875 204.914062 144.683594 204.914062 135.085938 C 204.914062 119.585938 213.695312 109.320312 217.695312 109.261719 Z M 217.695312 109.261719 " fill-opacity="1" fill-rule="evenodd"/><path fill="#000000" d="M 163.367188 155.554688 C 155.773438 155.554688 149.621094 146.640625 149.621094 135.644531 C 149.621094 124.644531 155.773438 115.730469 163.367188 115.730469 C 170.960938 115.730469 177.117188 124.644531 177.117188 135.644531 C 177.117188 146.640625 170.960938 155.554688 163.367188 155.554688 Z M 163.367188 155.554688 " fill-opacity="1" fill-rule="nonzero"/><path fill="#373435" d="M 150.960938 144.238281 C 153.175781 150.929688 157.898438 155.554688 163.367188 155.554688 C 167.832031 155.554688 171.800781 152.472656 174.3125 147.695312 C 173.785156 145.277344 169.835938 136.480469 168.890625 138.542969 C 166.523438 144.832031 164.417969 145.949219 161.152344 143.59375 C 158.585938 141.742188 160.261719 136.890625 159.554688 136.929688 C 155.535156 137.144531 151.628906 143.238281 150.960938 144.238281 Z M 150.960938 144.238281 " fill-opacity="1" fill-rule="evenodd"/><path fill="#000000" d="M 163.496094 151.890625 C 157.710938 151.890625 153.023438 144.617188 153.023438 135.644531 C 153.023438 126.671875 157.710938 119.394531 163.496094 119.394531 C 169.277344 119.394531 173.96875 126.671875 173.96875 135.644531 C 173.96875 144.617188 169.277344 151.890625 163.496094 151.890625 Z M 163.496094 151.890625 " fill-opacity="1" fill-rule="nonzero"/><path fill="#fefefe" d="M 170.078125 129.449219 C 167.328125 129.449219 165.101562 127.199219 165.101562 124.417969 C 165.101562 121.640625 167.328125 119.390625 170.078125 119.390625 C 172.828125 119.390625 175.058594 121.640625 175.058594 124.417969 C 175.058594 127.199219 172.828125 129.449219 170.078125 129.449219 Z M 170.078125 129.449219 " fill-opacity="1" fill-rule="nonzero"/><path fill="#e97f11" d="M 190.113281 68.210938 C 198.027344 61.382812 206.015625 58.96875 206.015625 58.96875 L 205.996094 58.96875 C 199.753906 60.609375 185.554688 64.707031 176.890625 70.015625 C 186.625 69.554688 211.195312 83.472656 211.195312 83.472656 C 208.640625 78.921875 198.210938 69.59375 190.113281 68.210938 Z M 183.976562 60.039062 C 187.695312 52.039062 190.144531 45.878906 190.144531 45.878906 C 190.144531 45.878906 189.164062 46.398438 187.550781 47.242188 L 176.890625 63.054688 Z M 183.976562 60.039062 " fill-opacity="1" fill-rule="evenodd"/><path fill="#000000" d="M 164.726562 91.769531 C 164.726562 91.769531 152.1875 87.984375 138.230469 101.609375 C 146.472656 82.1875 162.589844 87.066406 164.726562 91.769531 Z M 164.726562 91.769531 " fill-opacity="1" fill-rule="evenodd"/><path fill="#000000" d="M 204.535156 92.222656 C 204.535156 92.222656 218.738281 90.089844 226.550781 100.398438 C 217.140625 83.691406 206.308594 88.3125 204.535156 92.222656 Z M 204.535156 92.222656 " fill-opacity="1" fill-rule="evenodd"/><path fill="#000000" d="M 215.753906 154.625 C 210 154.625 205.335938 146.730469 205.335938 136.996094 C 205.335938 127.257812 210 119.363281 215.753906 119.363281 C 221.507812 119.363281 226.175781 127.257812 226.175781 136.996094 C 226.175781 146.730469 221.507812 154.625 215.753906 154.625 Z M 215.753906 154.625 " fill-opacity="1" fill-rule="nonzero"/><path fill="#373435" d="M 206.355469 144.601562 C 208.03125 150.53125 211.613281 154.625 215.753906 154.625 C 219.140625 154.625 222.144531 151.894531 224.050781 147.664062 C 223.648438 145.523438 220.65625 137.734375 219.941406 139.5625 C 218.148438 145.128906 216.550781 146.117188 214.074219 144.03125 C 212.132812 142.394531 213.398438 138.097656 212.863281 138.132812 C 209.820312 138.324219 206.859375 143.71875 206.355469 144.601562 Z M 206.355469 144.601562 " fill-opacity="1" fill-rule="evenodd"/><path fill="#000000" d="M 215.851562 151.605469 C 211.390625 151.605469 207.777344 145.371094 207.777344 137.679688 C 207.777344 129.988281 211.390625 123.753906 215.851562 123.753906 C 220.3125 123.753906 223.929688 129.988281 223.929688 137.679688 C 223.929688 145.371094 220.3125 151.605469 215.851562 151.605469 Z M 215.851562 151.605469 " fill-opacity="1" fill-rule="nonzero"/><path fill="#fefefe" d="M 220.839844 131.511719 C 218.757812 131.511719 217.066406 129.515625 217.066406 127.058594 C 217.066406 124.597656 218.757812 122.601562 220.839844 122.601562 C 222.925781 122.601562 224.617188 124.597656 224.617188 127.058594 C 224.617188 129.515625 222.925781 131.511719 220.839844 131.511719 Z M 220.839844 131.511719 " fill-opacity="1" fill-rule="nonzero"/><path fill="#e97f11" d="M 86.574219 267.027344 C 84.695312 270.386719 82.554688 274.777344 81.257812 279.292969 C 79.078125 264.957031 79.613281 256.109375 79.613281 256.109375 C 79.613281 256.109375 79.738281 256.242188 79.972656 256.460938 C 80.363281 261.371094 83 265.445312 86.574219 267.027344 Z M 86.574219 267.027344 " fill-opacity="1" fill-rule="evenodd"/></svg>