<svg xmlns="http://www.w3.org/2000/svg" xmlns:xlink="http://www.w3.org/1999/xlink" width="500" zoomAndPan="magnify" viewBox="0 0 375 374.999991" height="500" preserveAspectRatio="xMidYMid meet" version="1.0"><defs><clipPath id="bee701dd77"><path d="M 18 249 L 359.550781 249 L 359.550781 375 L 18 375 Z M 18 249 " clip-rule="nonzero"/></clipPath><clipPath id="8304adc073"><path d="M 15.300781 0 L 289 0 L 289 272 L 15.300781 272 Z M 15.300781 0 " clip-rule="nonzero"/></clipPath></defs><g clip-path="url(#bee701dd77)"><path fill="#000000" d="M 337.199219 382.800781 C 337.199219 382.800781 357.203125 304.804688 358.894531 297.574219 C 360.585938 290.34375 357.820312 285.574219 349.359375 285.421875 C 340.902344 285.265625 257.113281 289.429688 252.042969 289.828125 C 246.972656 290.226562 241.273438 293.429688 239.332031 303.375 C 229.042969 288.738281 210.578125 271.441406 210.578125 271.441406 L 210.878906 249.855469 C 210.878906 249.855469 121.484375 247.820312 90.515625 275.179688 C 59.546875 302.539062 52.539062 316.558594 52.539062 316.558594 C 52.539062 316.558594 38.804688 321.253906 27.207031 300.019531 C 23.078125 332.066406 15.542969 384.976562 83.640625 436.390625 C 81.445312 454.410156 84.070312 456.910156 89.171875 459.691406 C 87.199219 466.066406 85.148438 475.703125 82.429688 477.316406 C 79.707031 478.929688 37.742188 495.085938 27.152344 499.421875 C 16.566406 503.757812 16.871094 511.222656 23.324219 514.550781 C 29.777344 517.878906 40.539062 520.265625 40.539062 520.265625 C 40.539062 520.265625 39.375 529.320312 48.035156 530.914062 C 56.699219 532.511719 67.414062 531.257812 78.8125 533.195312 C 90.214844 535.132812 98.21875 540.546875 108.101562 534.496094 C 117.984375 528.445312 141.1875 517.171875 142.601562 505.472656 C 144.011719 493.773438 132.742188 488.3125 133.195312 483.953125 C 133.648438 479.597656 135.011719 468.339844 135.011719 468.339844 C 135.011719 468.339844 148 466.617188 148.445312 453.5 C 160.132812 451.265625 165.753906 451 165.753906 451 C 165.753906 451 165.972656 459.191406 167.121094 462.21875 C 168.269531 465.246094 175.367188 468.066406 175.367188 468.066406 C 175.367188 468.066406 177.589844 483.863281 177.382812 485.8125 C 177.179688 487.761719 167.765625 497.371094 168.066406 504.9375 C 168.367188 512.503906 176.839844 514.988281 185.960938 522.085938 C 195.082031 529.183594 201.304688 536.65625 211.695312 537.035156 C 222.085938 537.417969 236.730469 531.414062 244.699219 531.664062 C 252.671875 531.910156 263.757812 534.777344 268.242188 527.425781 C 272.726562 520.078125 276.960938 520.449219 284.433594 516.835938 C 291.90625 513.226562 291.234375 507 285.503906 504.5625 C 279.773438 502.128906 256.53125 496.605469 242.035156 491.167969 C 227.539062 485.730469 224.359375 484.804688 222.476562 481.28125 C 220.59375 477.757812 217.457031 461.398438 217.457031 461.398438 C 217.457031 461.398438 223.941406 458.425781 224.839844 452.933594 C 225.742188 447.445312 224.9375 437.574219 224.9375 437.574219 L 233.042969 414.894531 C 233.042969 414.894531 254.671875 429.507812 285.042969 421.304688 C 315.410156 413.101562 316.800781 391.71875 316.800781 391.71875 C 326.765625 390.855469 335.113281 392.003906 337.199219 382.800781 Z M 337.199219 382.800781 " fill-opacity="1" fill-rule="evenodd"/></g><path fill="#fefefe" d="M 350.628906 288.683594 C 350.628906 288.683594 261.488281 292.753906 254.953125 293.570312 C 248.417969 294.386719 245.75 296.132812 243.425781 305.953125 C 241.097656 315.769531 223.300781 387.386719 221.964844 392.953125 C 220.628906 398.519531 217.4375 396.816406 212.613281 395.773438 C 207.785156 394.734375 178.34375 386.1875 175.140625 385.0625 C 171.941406 383.941406 176.320312 382.984375 176.320312 382.984375 L 222.214844 377.089844 L 223.335938 371.699219 C 223.335938 371.699219 159.902344 380.492188 155.601562 381.148438 C 151.296875 381.804688 152.519531 383.757812 155.226562 384.25 C 157.933594 384.746094 208.054688 399.308594 213.375 400.667969 C 218.695312 402.03125 223.519531 400.296875 225.25 393.863281 C 226.984375 387.429688 245.082031 314.25 246.636719 307.195312 C 248.191406 300.140625 251.058594 296.910156 257.632812 296.671875 C 264.210938 296.433594 347.984375 292.578125 351.6875 292.160156 C 355.386719 291.738281 353.875 288.539062 350.628906 288.683594 Z M 350.628906 288.683594 " fill-opacity="1" fill-rule="evenodd"/><path fill="#fefefe" d="M 292.1875 357.21875 C 286.722656 357.21875 283.78125 351.148438 285.617188 343.664062 C 287.449219 336.179688 293.367188 330.109375 298.832031 330.109375 C 304.296875 330.109375 307.238281 336.179688 305.402344 343.664062 C 303.566406 351.148438 297.652344 357.21875 292.1875 357.21875 Z M 292.1875 357.21875 " fill-opacity="1" fill-rule="nonzero"/><path fill="#fbc761" d="M 87.570312 427.394531 L 88.550781 425.964844 L 112.445312 391.085938 C 112.445312 391.085938 107.28125 365.402344 94.800781 358.5625 C 82.320312 351.722656 50.328125 371.90625 52.589844 392.261719 C 62.539062 412.84375 79.273438 424.601562 87.570312 427.394531 Z M 87.570312 427.394531 " fill-opacity="1" fill-rule="evenodd"/><path fill="#e97f11" d="M 87.570312 427.394531 L 88.550781 425.964844 L 95.925781 415.199219 C 85.601562 409.175781 70.046875 396.40625 61.207031 371.335938 C 55.511719 377.414062 51.765625 384.824219 52.589844 392.261719 C 62.539062 412.84375 79.273438 424.601562 87.570312 427.394531 Z M 87.570312 427.394531 " fill-opacity="1" fill-rule="evenodd"/><path fill="#fefefe" d="M 46.703125 387.34375 C 46.703125 387.34375 56.90625 345.929688 96.511719 352.929688 C 91.109375 338.324219 82.109375 332.523438 62.304688 336.125 C 42.503906 339.726562 36.300781 359.332031 37.703125 366.335938 C 39.101562 373.335938 46.703125 387.34375 46.703125 387.34375 Z M 46.703125 387.34375 " fill-opacity="1" fill-rule="evenodd"/><path fill="#d2d3d5" d="M 95.382812 350.136719 C 94.246094 347.546875 92.953125 345.285156 91.457031 343.355469 C 88.242188 343.09375 81.53125 343.09375 76.035156 346.667969 C 81.644531 343.921875 90.714844 347.144531 90.714844 347.144531 C 90.714844 347.144531 76.558594 344.453125 64.519531 356.597656 C 75.84375 348.820312 89.308594 348.953125 95.382812 350.136719 Z M 90.664062 342.386719 C 88.796875 340.222656 86.621094 338.535156 84.058594 337.332031 C 78.730469 336.050781 71.929688 335.65625 64.925781 338.519531 C 73.730469 336.085938 85.457031 340.222656 90.664062 342.386719 Z M 90.664062 342.386719 " fill-opacity="1" fill-rule="evenodd"/><path fill="#d2d3d5" d="M 46.703125 387.34375 C 46.703125 387.34375 48.199219 381.285156 52.253906 374.199219 C 52.542969 371.179688 53.828125 364.695312 59.355469 356.730469 C 51.792969 363.25 48.144531 369.511719 48.144531 369.511719 C 48.144531 369.511719 49.433594 360.902344 57.710938 351.378906 C 46.941406 355.234375 42.859375 364.757812 42.859375 364.757812 C 42.859375 364.757812 45.996094 351.1875 54.992188 341.539062 C 48.6875 344.664062 44.140625 348.085938 41.054688 351.683594 C 38 357.382812 37.066406 363.15625 37.703125 366.335938 C 39.105469 373.335938 46.703125 387.34375 46.703125 387.34375 Z M 46.703125 387.34375 " fill-opacity="1" fill-rule="evenodd"/><path fill="#fefefe" d="M 41.917969 345.089844 C 41.917969 345.089844 65.046875 304.585938 95.210938 283.519531 C 100.671875 284.296875 105.917969 291.09375 107.597656 299.5 C 106.046875 284.757812 99.066406 281.136719 99.066406 281.136719 L 107.726562 275.445312 C 107.726562 275.445312 137.042969 300.984375 152.644531 315.007812 C 160.785156 302.34375 162.371094 298.046875 162.371094 298.046875 C 162.371094 298.046875 164.855469 304.152344 167.570312 305.28125 C 166.214844 321.339844 155.839844 361.730469 155.839844 361.730469 L 168.179688 374.652344 C 168.179688 374.652344 149.410156 377.992188 146.9375 378.328125 C 144.464844 378.664062 144.128906 380.351562 144.015625 382.828125 C 143.902344 385.300781 143.453125 388.222656 146.261719 389.460938 C 149.074219 390.699219 181.457031 400.039062 181.457031 400.039062 C 150.847656 404.699219 118.433594 385.042969 115.605469 379.378906 C 109.839844 367.847656 104.398438 356.089844 98.941406 344.40625 C 106.121094 335.421875 109.59375 322.800781 109.664062 322.542969 C 110.765625 316.410156 109.207031 308.617188 109.207031 308.617188 C 109.207031 308.617188 113.613281 324.898438 93.585938 337.105469 C 79.507812 329.589844 56.269531 329.183594 41.917969 345.089844 Z M 41.917969 345.089844 " fill-opacity="1" fill-rule="evenodd"/><path fill="#d2d3d5" d="M 162.785156 375.609375 C 157.035156 376.625 148.546875 378.109375 146.9375 378.328125 C 144.464844 378.664062 144.128906 380.351562 144.015625 382.828125 C 143.902344 385.300781 143.453125 388.226562 146.265625 389.460938 C 149.074219 390.699219 181.457031 400.039062 181.457031 400.039062 C 150.847656 404.699219 118.4375 385.042969 115.605469 379.378906 C 110.027344 368.222656 98.941406 344.40625 98.941406 344.40625 C 98.941406 344.40625 102.003906 340.046875 105.300781 333.96875 C 111.203125 342.90625 132.1875 372.097656 162.785156 375.609375 Z M 162.785156 375.609375 " fill-opacity="1" fill-rule="evenodd"/><path fill="#d2d3d5" d="M 66.09375 311.0625 C 74.382812 301.226562 84.339844 291.113281 95.210938 283.519531 C 98.195312 283.945312 101.113281 286.167969 103.421875 289.46875 C 92.617188 293.589844 80.113281 300.34375 66.09375 311.0625 Z M 105.003906 288.882812 C 102.429688 282.882812 99.066406 281.136719 99.066406 281.136719 L 107.726562 275.445312 C 107.726562 275.445312 112.25 279.386719 118.6875 285.019531 C 114.503906 285.847656 109.9375 287.089844 105.003906 288.882812 Z M 105.003906 288.882812 " fill-opacity="1" fill-rule="evenodd"/><path fill="#d2d3d5" d="M 41.917969 345.089844 C 41.917969 345.089844 43.363281 342.5625 46 338.441406 C 56.769531 328.699219 74.792969 323.78125 87.601562 328.507812 C 82.070312 321.464844 81.066406 320.289062 86.597656 322.804688 C 92.128906 325.320312 108.4375 325.96875 109.585938 311.394531 C 109.484375 313.128906 109.421875 314.621094 109.375 315.925781 C 108.519531 321.765625 105.070312 330.105469 93.585938 337.105469 C 79.507812 329.59375 56.269531 329.183594 41.917969 345.089844 Z M 41.917969 345.089844 " fill-opacity="1" fill-rule="evenodd"/><path fill="#fefefe" d="M 195.207031 370.417969 L 224.050781 366.0625 C 224.050781 366.0625 229.6875 339.453125 221.949219 303.636719 C 228.789062 320.375 232.386719 335.132812 232.386719 335.132812 L 237.246094 314.253906 C 237.246094 314.253906 224.414062 290.074219 209.929688 279.105469 C 206.410156 296.488281 198.691406 310.714844 198.691406 310.714844 L 189.476562 294.875 C 189.476562 294.875 186.972656 301.945312 184.289062 304.539062 C 188.226562 315.367188 202.222656 360.449219 202.222656 360.449219 Z M 195.207031 370.417969 " fill-opacity="1" fill-rule="evenodd"/><path fill="#d2d3d5" d="M 195.207031 370.417969 L 224.050781 366.0625 C 224.050781 366.0625 228.554688 344.792969 223.980469 314.695312 C 223.054688 327.6875 213.703125 345.496094 201.636719 358.574219 L 202.222656 360.449219 Z M 195.207031 370.417969 " fill-opacity="1" fill-rule="evenodd"/><path fill="#fefefe" d="M 197.875 299.988281 C 197.875 299.988281 189.625 284.195312 181.800781 276.941406 C 196.59375 267.550781 198.726562 265.558594 198.726562 265.558594 L 204.417969 264.136719 C 204.417969 264.136719 208.117188 279.503906 197.875 299.988281 Z M 197.875 299.988281 " fill-opacity="1" fill-rule="evenodd"/><path fill="#d2d3d5" d="M 184.015625 279.199219 C 183.277344 278.386719 182.539062 277.625 181.800781 276.941406 C 196.59375 267.550781 198.726562 265.558594 198.726562 265.558594 L 204.417969 264.136719 C 204.417969 264.136719 204.851562 265.941406 205.011719 269.136719 C 204.5 269.5 203.96875 269.867188 203.421875 270.246094 C 199.207031 272.574219 192.640625 276.085938 184.015625 279.199219 Z M 184.015625 279.199219 " fill-opacity="1" fill-rule="evenodd"/><path fill="#fefefe" d="M 170.355469 277.375 L 162.191406 271.3125 C 162.191406 271.3125 140.460938 274.613281 112.550781 270.9375 C 129.859375 286.082031 150.507812 304.625 150.507812 304.625 C 150.507812 304.625 157.824219 293.757812 170.355469 277.375 Z M 170.355469 277.375 " fill-opacity="1" fill-rule="evenodd"/><path fill="#d2d3d5" d="M 170.355469 277.375 L 162.191406 271.3125 C 162.191406 271.3125 140.460938 274.613281 112.550781 270.9375 C 114.890625 272.984375 117.292969 275.097656 119.699219 277.214844 C 136.996094 280.304688 153.527344 279.386719 162.765625 278.40625 L 162.984375 278.359375 L 162.96875 278.382812 C 167.605469 277.882812 170.355469 277.375 170.355469 277.375 Z M 170.355469 277.375 " fill-opacity="1" fill-rule="evenodd"/><path fill="#fbc761" d="M 187.351562 266.882812 C 187.351562 266.882812 177.277344 270.320312 169.921875 270.242188 C 175.117188 273.917969 176.957031 275.277344 176.957031 275.277344 C 176.957031 275.277344 182.953125 271.28125 187.351562 266.882812 Z M 187.351562 266.882812 " fill-opacity="1" fill-rule="evenodd"/><path fill="#fbc761" d="M 46.585938 324.257812 C 46.585938 324.257812 37.273438 337.210938 33.324219 350.941406 C 30.15625 330.136719 30.929688 317.296875 30.929688 317.296875 C 30.929688 317.296875 38.007812 324.636719 46.585938 324.257812 Z M 46.585938 324.257812 " fill-opacity="1" fill-rule="evenodd"/><path fill="#4b4b4d" d="M 185.242188 373.214844 L 197.027344 359.71875 L 181.699219 305.996094 C 181.699219 305.996094 179.449219 306.371094 174.824219 306.246094 C 177.824219 321.617188 186.03125 347.042969 175.582031 367 C 181.644531 371.777344 185.242188 373.214844 185.242188 373.214844 Z M 185.242188 373.214844 " fill-opacity="1" fill-rule="evenodd"/><path fill="#bdbfc1" d="M 186.847656 371.378906 L 197.027344 359.71875 L 181.699219 305.996094 C 181.699219 305.996094 180.636719 306.171875 178.476562 306.242188 L 190.945312 360.953125 Z M 186.847656 371.378906 " fill-opacity="1" fill-rule="evenodd"/><path fill="#4b4b4d" d="M 181.140625 300.855469 C 177.980469 299.417969 170.988281 295.203125 171.277344 283.804688 C 175.683594 280.261719 179.226562 277.671875 183.632812 286.199219 C 185.257812 296.355469 181.140625 300.855469 181.140625 300.855469 Z M 181.140625 300.855469 " fill-opacity="1" fill-rule="evenodd"/><path fill="#bdbfc1" d="M 181.140625 300.855469 L 181.082031 300.828125 C 184.027344 294.898438 179.683594 285.441406 176.953125 280.511719 C 179.109375 280.222656 181.246094 281.578125 183.632812 286.199219 C 185.257812 296.351562 181.140625 300.855469 181.140625 300.855469 Z M 181.140625 300.855469 " fill-opacity="1" fill-rule="evenodd"/><path fill="#fefefe" d="M 143.894531 391.304688 C 143.894531 391.304688 130.589844 383.59375 125.191406 379.15625 C 119.792969 374.71875 114.007812 352.347656 114.007812 352.347656 C 114.007812 352.347656 125.191406 379.15625 143.894531 391.304688 Z M 143.894531 391.304688 " fill-opacity="1" fill-rule="evenodd"/><path fill="#d2d3d5" d="M 160.121094 302.597656 C 161.894531 299.339844 162.371094 298.042969 162.371094 298.042969 C 162.371094 298.042969 164.859375 304.152344 167.570312 305.28125 C 167.484375 306.339844 167.351562 307.507812 167.191406 308.757812 C 163.429688 306.972656 161.308594 304.695312 160.121094 302.597656 Z M 209.175781 282.515625 C 208.523438 285.269531 207.777344 287.917969 206.996094 290.417969 C 209.191406 290.550781 212.96875 291.960938 218.992188 297.519531 C 216.804688 292.320312 212.140625 286.160156 209.175781 282.515625 Z M 198.695312 310.714844 L 189.480469 294.875 C 189.480469 294.875 186.972656 301.945312 184.289062 304.539062 C 184.777344 305.882812 185.417969 307.75 186.171875 309.992188 C 190.8125 307.335938 190.980469 302.238281 190.980469 302.238281 Z M 198.695312 310.714844 " fill-opacity="1" fill-rule="evenodd"/><g clip-path="url(#8304adc073)"><path fill="#000000" d="M 287.273438 193.304688 C 291.863281 164.542969 275.980469 153.277344 275.980469 153.277344 C 275.980469 153.277344 278.878906 71.152344 209.820312 41.421875 C 222.167969 31.355469 228.808594 32.703125 226.527344 30.113281 C 224.246094 27.527344 217.429688 23.492188 195.121094 24.183594 C 200.871094 10.261719 201.398438 5.097656 201.335938 1.953125 C 201.273438 -1.191406 198.871094 -0.265625 195.234375 2.816406 C 191.597656 5.898438 146.300781 27.785156 146.300781 27.785156 C 49.285156 26.523438 -11.980469 124.597656 27.390625 211.703125 C 74.539062 306.382812 270.34375 278.398438 287.273438 193.304688 Z M 287.273438 193.304688 " fill-opacity="1" fill-rule="evenodd"/></g><path fill="#fbc761" d="M 266.882812 154.59375 C 266.882812 154.59375 270.726562 64.003906 191.4375 44.574219 C 202.933594 34.664062 214.539062 31.164062 214.539062 31.164062 C 214.539062 31.164062 200.910156 29.417969 182.191406 33.433594 C 187.777344 21.476562 191.484375 12.160156 191.484375 12.160156 C 191.484375 12.160156 154.050781 31.972656 147.378906 34.097656 C 124.179688 35.007812 82.34375 40.378906 53.0625 82.640625 C -27.480469 198.882812 84.753906 305.769531 230.722656 246.3125 C 285.027344 220.613281 292.503906 175.320312 266.882812 154.59375 Z M 266.882812 154.59375 " fill-opacity="1" fill-rule="evenodd"/><path fill="#e97f11" d="M 80.714844 55.550781 C 71.152344 62.28125 61.335938 70.804688 53.0625 82.640625 C -28.160156 198.835938 84.738281 305.753906 230.726562 246.3125 C 256.746094 233.996094 272.007812 217.1875 278.035156 200.734375 C 277.855469 200.890625 201.023438 272.710938 123.765625 242.242188 C 46.511719 211.773438 14.367188 146.554688 80.714844 55.550781 Z M 80.714844 55.550781 " fill-opacity="1" fill-rule="evenodd"/><path fill="#fefefe" d="M 266.882812 154.59375 C 266.882812 154.59375 270.722656 64.003906 191.4375 44.574219 C 192.757812 43.4375 194.082031 42.382812 195.386719 41.410156 C 192.207031 43.140625 189.355469 45.246094 187.753906 47.714844 C 267.058594 65.34375 262.945312 155.035156 262.945312 155.035156 C 262.945312 155.035156 279.3125 167.953125 277.4375 185.636719 C 274.832031 216.890625 246.738281 237.230469 245.164062 238.351562 C 286.15625 212.085938 290.027344 173.316406 266.882812 154.59375 Z M 205.605469 35.003906 C 210.867188 32.269531 214.539062 31.164062 214.539062 31.164062 C 214.539062 31.164062 201.414062 29.480469 183.238281 33.214844 C 181.867188 33.957031 180.382812 34.753906 178.761719 35.617188 C 188.414062 34.203125 199.191406 34.570312 205.605469 35.003906 Z M 190.085938 15.566406 C 190.988281 13.40625 191.484375 12.160156 191.484375 12.160156 C 191.484375 12.160156 154.046875 31.972656 147.378906 34.097656 C 124.175781 35.007812 83.34375 39.941406 52.445312 81.039062 C -2.125 153.617188 26.726562 256.957031 130.742188 263.339844 C 96.292969 257.699219 59.90625 236.808594 46.507812 211.773438 C 5.671875 135.476562 57.550781 42.957031 148.3125 37.664062 C 169.507812 30.675781 190.078125 15.574219 190.085938 15.566406 Z M 190.085938 15.566406 " fill-opacity="1" fill-rule="evenodd"/><path fill="#000000" d="M 198.644531 155.8125 C 208.867188 156.699219 219.527344 174 228.644531 178.035156 C 237.761719 182.070312 259.117188 181.929688 262.902344 189.148438 C 266.683594 196.367188 264.761719 204.425781 255.640625 207.550781 C 248.828125 209.277344 238.21875 207.929688 238.21875 207.929688 C 203.628906 237.273438 134.632812 237.652344 107.773438 200.480469 C 97.207031 181.621094 120.753906 173.558594 132.265625 175.910156 C 147.445312 179.011719 158.765625 182.574219 172.691406 170.605469 C 181.992188 162.609375 186.878906 155.5625 198.644531 155.8125 Z M 198.644531 155.8125 " fill-opacity="1" fill-rule="evenodd"/><path fill="#fc7a02" d="M 234.375 200.167969 C 234.375 200.167969 250.507812 202.777344 255.59375 201.101562 C 260.675781 199.421875 260.296875 190.910156 251.867188 188.746094 C 243.433594 186.585938 238.140625 187.425781 238.140625 187.425781 C 238.140625 187.425781 224.007812 184.105469 215.226562 172.96875 C 206.445312 161.835938 199.472656 159.136719 192.316406 161.773438 C 185.160156 164.40625 174.792969 179.472656 164.085938 182.070312 C 153.378906 184.667969 138.203125 182.539062 126.789062 180.863281 C 115.371094 179.1875 104.765625 189.992188 116.683594 202.804688 C 128.601562 215.613281 153.132812 222.636719 166.925781 224.171875 C 184.734375 226.152344 218.8125 218.722656 232.199219 206.214844 C 196.882812 212.242188 174.695312 229.230469 137.523438 204.363281 C 127.414062 197.601562 127.46875 195.617188 127.46875 195.617188 C 127.46875 195.617188 122.675781 194.378906 118.914062 196.542969 C 121.261719 190.230469 126.65625 189.1875 133.777344 190.566406 C 140.898438 191.949219 145.523438 191.523438 145.523438 191.523438 C 145.523438 191.523438 142.070312 194.074219 138.453125 194.960938 C 134.832031 195.847656 138.644531 199.558594 143.203125 201.828125 C 147.761719 204.097656 163.101562 212.71875 184.90625 210.425781 C 206.710938 208.128906 220.722656 200.566406 234.375 200.167969 Z M 234.375 200.167969 " fill-opacity="1" fill-rule="evenodd"/><path fill="#be4d13" d="M 234.375 200.171875 C 234.375 200.171875 250.507812 202.78125 255.589844 201.101562 C 256.734375 200.726562 257.597656 200.003906 258.160156 199.082031 C 250.230469 196.777344 238.96875 194.554688 229.207031 196.546875 C 211.972656 200.070312 197.277344 205.980469 179.214844 205.902344 C 161.152344 205.820312 142.136719 193.558594 142.136719 193.558594 C 141.03125 194.109375 139.753906 194.644531 138.453125 194.964844 C 134.832031 195.851562 138.644531 199.5625 143.203125 201.832031 C 147.761719 204.097656 163.101562 212.722656 184.90625 210.425781 C 206.710938 208.132812 220.722656 200.570312 234.375 200.171875 Z M 112.617188 187.042969 C 110.445312 191.097656 111.027344 196.726562 116.683594 202.808594 C 144.480469 232.683594 200.957031 229.003906 232.199219 206.214844 C 195.648438 221.925781 160.230469 230.113281 122.054688 202.757812 C 114.808594 197.566406 112.902344 191.417969 112.617188 187.042969 Z M 112.617188 187.042969 " fill-opacity="1" fill-rule="evenodd"/><path fill="#fefefe" d="M 258.8125 195.195312 C 258.332031 192.558594 256.128906 189.839844 251.863281 188.746094 C 243.433594 186.585938 238.140625 187.425781 238.140625 187.425781 C 238.140625 187.425781 224.003906 184.105469 215.226562 172.96875 C 206.445312 161.835938 199.472656 159.136719 192.316406 161.773438 C 188.242188 163.273438 183.125 168.800781 177.5 173.765625 C 180.429688 172.28125 183.613281 170.34375 186.570312 167.871094 C 195.496094 160.414062 203.804688 163.804688 213.191406 175.414062 C 222.582031 187.023438 234.761719 188.707031 234.761719 188.707031 C 234.761719 188.707031 232.957031 189.589844 225.632812 192.65625 C 243.125 188.171875 253.144531 191.089844 258.8125 195.195312 Z M 258.8125 195.195312 " fill-opacity="1" fill-rule="evenodd"/><path fill="#000000" d="M 183.386719 181.617188 C 181.84375 180.261719 182.257812 177.273438 184.308594 174.941406 C 186.355469 172.613281 189.265625 171.820312 190.808594 173.175781 C 192.347656 174.53125 191.933594 177.519531 189.886719 179.851562 C 187.835938 182.183594 184.925781 182.972656 183.386719 181.617188 Z M 183.386719 181.617188 " fill-opacity="1" fill-rule="nonzero"/><path fill="#201e1e" d="M 146.816406 95.042969 C 128.003906 95.042969 111.890625 115.332031 111.890625 138.664062 C 111.890625 162 128.699219 176.152344 148.046875 176.152344 C 201.996094 176.152344 179.941406 95.363281 146.820312 95.042969 Z M 146.816406 95.042969 " fill-opacity="1" fill-rule="evenodd"/><path fill="#e6e7e8" d="M 147.421875 102.597656 C 131.714844 102.597656 118.261719 120.554688 118.261719 141.203125 C 118.261719 161.855469 132.292969 174.378906 148.449219 174.378906 C 164.601562 174.378906 175.367188 167.960938 175.367188 140.929688 C 175.367188 117.925781 156.164062 102.6875 147.421875 102.597656 Z M 147.421875 102.597656 " fill-opacity="1" fill-rule="evenodd"/><path fill="#fefefe" d="M 134.71875 171.070312 C 138.882812 173.234375 143.570312 174.378906 148.449219 174.378906 C 164.601562 174.378906 175.367188 167.960938 175.367188 140.925781 C 175.367188 132.9375 173.050781 125.886719 169.660156 120.082031 C 163.578125 111.859375 155.488281 107.0625 150.671875 107.015625 C 135.457031 107.015625 122.421875 124.40625 122.421875 144.410156 C 122.421875 156.46875 127.367188 165.664062 134.71875 171.070312 Z M 134.71875 171.070312 " fill-opacity="1" fill-rule="evenodd"/><path fill="#201e1e" d="M 231.902344 96.769531 C 244.40625 96.769531 255.113281 116.609375 255.113281 139.429688 C 255.113281 162.25 243.945312 176.085938 231.089844 176.085938 C 195.242188 176.085938 209.894531 97.082031 231.902344 96.769531 Z M 231.902344 96.769531 " fill-opacity="1" fill-rule="evenodd"/><path fill="#fefefe" d="M 231.503906 104.15625 C 241.941406 104.15625 250.878906 121.714844 250.878906 141.910156 C 250.878906 162.105469 241.554688 174.351562 230.820312 174.351562 C 220.089844 174.351562 212.933594 168.074219 212.933594 141.640625 C 212.933594 119.144531 225.695312 104.242188 231.503906 104.15625 Z M 231.503906 104.15625 " fill-opacity="1" fill-rule="evenodd"/><path fill="#e6e7e8" d="M 231.503906 104.15625 C 237.015625 104.15625 242.109375 109.054688 245.691406 116.652344 C 242.355469 111.402344 238.167969 108.191406 233.707031 108.191406 C 227.902344 108.277344 215.140625 123.179688 215.140625 145.675781 C 215.140625 156.289062 216.292969 163.652344 218.371094 168.664062 C 214.921875 163.898438 212.933594 155.566406 212.933594 141.640625 C 212.933594 119.144531 225.695312 104.242188 231.503906 104.15625 Z M 231.503906 104.15625 " fill-opacity="1" fill-rule="evenodd"/><path fill="#000000" d="M 152.589844 171.347656 C 141.5625 171.347656 132.621094 158.40625 132.621094 142.445312 C 132.621094 126.484375 141.5625 113.546875 152.589844 113.546875 C 163.621094 113.546875 172.5625 126.484375 172.5625 142.445312 C 172.5625 158.40625 163.621094 171.347656 152.589844 171.347656 Z M 152.589844 171.347656 " fill-opacity="1" fill-rule="nonzero"/><path fill="#373435" d="M 134.570312 154.917969 C 137.789062 164.636719 144.648438 171.347656 152.589844 171.347656 C 159.074219 171.347656 164.839844 166.871094 168.488281 159.941406 C 167.71875 156.429688 161.984375 143.660156 160.609375 146.65625 C 157.171875 155.78125 154.113281 157.40625 149.371094 153.984375 C 145.644531 151.296875 148.074219 144.257812 147.046875 144.3125 C 141.214844 144.625 135.539062 153.46875 134.570312 154.917969 Z M 134.570312 154.917969 " fill-opacity="1" fill-rule="evenodd"/><path fill="#000000" d="M 152.773438 166.027344 C 144.375 166.027344 137.5625 155.46875 137.5625 142.445312 C 137.5625 129.421875 144.375 118.863281 152.773438 118.863281 C 161.175781 118.863281 167.984375 129.421875 167.984375 142.445312 C 167.984375 155.46875 161.175781 166.027344 152.773438 166.027344 Z M 152.773438 166.027344 " fill-opacity="1" fill-rule="nonzero"/><path fill="#fefefe" d="M 162.339844 133.457031 C 158.34375 133.457031 155.105469 130.191406 155.105469 126.15625 C 155.105469 122.125 158.34375 118.855469 162.339844 118.855469 C 166.332031 118.855469 169.570312 122.125 169.570312 126.15625 C 169.570312 130.191406 166.332031 133.457031 162.339844 133.457031 Z M 162.339844 133.457031 " fill-opacity="1" fill-rule="nonzero"/><path fill="#e97f11" d="M 191.4375 44.574219 C 202.933594 34.664062 214.539062 31.164062 214.539062 31.164062 L 214.511719 31.160156 C 205.441406 33.542969 184.820312 39.488281 172.230469 47.195312 C 186.371094 46.523438 222.058594 66.726562 222.058594 66.726562 C 218.347656 60.121094 203.203125 46.582031 191.4375 44.574219 Z M 182.527344 32.710938 C 187.925781 21.105469 191.484375 12.160156 191.484375 12.160156 C 191.484375 12.160156 190.058594 12.914062 187.71875 14.140625 L 172.230469 37.09375 Z M 182.527344 32.710938 " fill-opacity="1" fill-rule="evenodd"/><path fill="#000000" d="M 154.5625 78.769531 C 154.5625 78.769531 136.347656 73.273438 116.074219 93.050781 C 128.046875 64.863281 151.457031 71.9375 154.5625 78.769531 Z M 154.5625 78.769531 " fill-opacity="1" fill-rule="evenodd"/><path fill="#000000" d="M 212.386719 79.429688 C 212.386719 79.429688 233.019531 76.332031 244.367188 91.292969 C 230.695312 67.046875 214.964844 73.753906 212.386719 79.429688 Z M 212.386719 79.429688 " fill-opacity="1" fill-rule="evenodd"/><path fill="#000000" d="M 228.683594 169.996094 C 220.328125 169.996094 213.550781 158.539062 213.550781 144.410156 C 213.550781 130.277344 220.328125 118.820312 228.683594 118.820312 C 237.042969 118.820312 243.816406 130.277344 243.816406 144.410156 C 243.816406 158.539062 237.042969 169.996094 228.683594 169.996094 Z M 228.683594 169.996094 " fill-opacity="1" fill-rule="nonzero"/><path fill="#373435" d="M 215.03125 155.449219 C 217.46875 164.054688 222.667969 169.996094 228.683594 169.996094 C 233.601562 169.996094 237.964844 166.035156 240.730469 159.894531 C 240.148438 156.785156 235.804688 145.480469 234.761719 148.132812 C 232.160156 156.214844 229.839844 157.652344 226.246094 154.621094 C 223.421875 152.242188 225.261719 146.011719 224.484375 146.058594 C 220.0625 146.335938 215.761719 154.164062 215.03125 155.449219 Z M 215.03125 155.449219 " fill-opacity="1" fill-rule="evenodd"/><path fill="#000000" d="M 228.824219 165.613281 C 222.347656 165.613281 217.09375 156.5625 217.09375 145.402344 C 217.09375 134.238281 222.347656 125.191406 228.824219 125.191406 C 235.304688 125.191406 240.554688 134.238281 240.554688 145.402344 C 240.554688 156.5625 235.304688 165.613281 228.824219 165.613281 Z M 228.824219 165.613281 " fill-opacity="1" fill-rule="nonzero"/><path fill="#fefefe" d="M 236.074219 136.449219 C 233.046875 136.449219 230.589844 133.554688 230.589844 129.984375 C 230.589844 126.414062 233.046875 123.519531 236.074219 123.519531 C 239.097656 123.519531 241.554688 126.414062 241.554688 129.984375 C 241.554688 133.554688 239.097656 136.449219 236.074219 136.449219 Z M 236.074219 136.449219 " fill-opacity="1" fill-rule="nonzero"/><path fill="#e97f11" d="M 41.046875 333.140625 C 38.3125 338.015625 35.207031 344.390625 33.324219 350.941406 C 30.15625 330.136719 30.929688 317.296875 30.929688 317.296875 C 30.929688 317.296875 31.113281 317.484375 31.457031 317.800781 C 32.019531 324.929688 35.855469 330.84375 41.046875 333.140625 Z M 41.046875 333.140625 " fill-opacity="1" fill-rule="evenodd"/></svg>