<svg xmlns="http://www.w3.org/2000/svg" xmlns:xlink="http://www.w3.org/1999/xlink" width="500" zoomAndPan="magnify" viewBox="0 0 375 374.999991" height="500" preserveAspectRatio="xMidYMid meet" version="1.0"><defs><clipPath id="e83e1b403f"><path d="M 15.441406 249 L 357 249 L 357 375 L 15.441406 375 Z M 15.441406 249 " clip-rule="nonzero"/></clipPath><clipPath id="dad9cff8b6"><path d="M 86 0 L 359.550781 0 L 359.550781 272 L 86 272 Z M 86 0 " clip-rule="nonzero"/></clipPath></defs><g clip-path="url(#e83e1b403f)"><path fill="#000000" d="M 37.792969 382.800781 C 37.792969 382.800781 17.789062 304.804688 16.097656 297.574219 C 14.40625 290.34375 17.171875 285.574219 25.632812 285.421875 C 34.09375 285.265625 117.878906 289.429688 122.949219 289.828125 C 128.019531 290.226562 133.71875 293.429688 135.660156 303.375 C 145.949219 288.738281 164.414062 271.441406 164.414062 271.441406 L 164.113281 249.855469 C 164.113281 249.855469 253.507812 247.820312 284.476562 275.179688 C 315.445312 302.539062 322.453125 316.554688 322.453125 316.554688 C 322.453125 316.554688 336.1875 321.253906 347.785156 300.019531 C 351.914062 332.066406 359.449219 384.976562 291.351562 436.390625 C 293.546875 454.410156 290.921875 456.910156 285.820312 459.691406 C 287.792969 466.066406 289.84375 475.703125 292.5625 477.316406 C 295.285156 478.929688 337.25 495.085938 347.839844 499.421875 C 358.425781 503.757812 358.125 511.222656 351.667969 514.550781 C 345.214844 517.878906 334.453125 520.265625 334.453125 520.265625 C 334.453125 520.265625 335.617188 529.316406 326.957031 530.914062 C 318.292969 532.511719 307.578125 531.257812 296.179688 533.195312 C 284.78125 535.132812 276.773438 540.546875 266.890625 534.496094 C 257.007812 528.445312 233.804688 517.171875 232.390625 505.472656 C 230.980469 493.773438 242.25 488.3125 241.796875 483.953125 C 241.34375 479.597656 239.980469 468.339844 239.980469 468.339844 C 239.980469 468.339844 226.992188 466.617188 226.546875 453.496094 C 214.859375 451.265625 209.238281 451 209.238281 451 C 209.238281 451 209.019531 459.191406 207.871094 462.21875 C 206.722656 465.246094 199.628906 468.066406 199.628906 468.066406 C 199.628906 468.066406 197.402344 483.863281 197.609375 485.8125 C 197.8125 487.761719 207.230469 497.371094 206.925781 504.9375 C 206.625 512.503906 198.152344 514.988281 189.03125 522.085938 C 179.910156 529.183594 173.6875 536.65625 163.296875 537.035156 C 152.910156 537.417969 138.261719 531.414062 130.292969 531.664062 C 122.320312 531.910156 111.234375 534.777344 106.753906 527.425781 C 102.269531 520.078125 98.03125 520.449219 90.558594 516.835938 C 83.085938 513.226562 83.757812 507 89.488281 504.5625 C 95.21875 502.128906 118.460938 496.601562 132.957031 491.167969 C 147.453125 485.730469 150.632812 484.804688 152.515625 481.28125 C 154.398438 477.757812 157.535156 461.398438 157.535156 461.398438 C 157.535156 461.398438 151.050781 458.425781 150.152344 452.933594 C 149.25 447.445312 150.054688 437.574219 150.054688 437.574219 L 141.953125 414.894531 C 141.953125 414.894531 120.320312 429.507812 89.953125 421.304688 C 59.582031 413.101562 58.191406 391.71875 58.191406 391.71875 C 48.226562 390.855469 39.882812 392.003906 37.792969 382.800781 Z M 37.792969 382.800781 " fill-opacity="1" fill-rule="evenodd"/></g><path fill="#fefefe" d="M 24.363281 288.683594 C 24.363281 288.683594 113.503906 292.753906 120.039062 293.570312 C 126.574219 294.386719 129.242188 296.132812 131.566406 305.953125 C 133.894531 315.769531 151.691406 387.386719 153.027344 392.953125 C 154.363281 398.519531 157.554688 396.816406 162.378906 395.773438 C 167.207031 394.734375 196.652344 386.1875 199.851562 385.0625 C 203.050781 383.941406 198.671875 382.984375 198.671875 382.984375 L 152.777344 377.089844 L 151.65625 371.699219 C 151.65625 371.699219 215.089844 380.492188 219.394531 381.148438 C 223.695312 381.804688 222.472656 383.757812 219.765625 384.25 C 217.058594 384.746094 166.9375 399.308594 161.617188 400.667969 C 156.300781 402.03125 151.472656 400.296875 149.742188 393.863281 C 148.007812 387.429688 129.910156 314.25 128.355469 307.195312 C 126.800781 300.140625 123.933594 296.910156 117.359375 296.671875 C 110.78125 296.433594 27.007812 292.578125 23.304688 292.160156 C 19.605469 291.738281 21.117188 288.539062 24.363281 288.683594 Z M 24.363281 288.683594 " fill-opacity="1" fill-rule="evenodd"/><path fill="#fefefe" d="M 82.804688 357.21875 C 88.269531 357.21875 91.210938 351.148438 89.378906 343.664062 C 87.542969 336.179688 81.625 330.109375 76.160156 330.109375 C 70.699219 330.109375 67.753906 336.179688 69.589844 343.664062 C 71.425781 351.148438 77.339844 357.21875 82.804688 357.21875 Z M 82.804688 357.21875 " fill-opacity="1" fill-rule="nonzero"/><path fill="#fbc761" d="M 287.421875 427.394531 L 286.441406 425.964844 L 262.550781 391.085938 C 262.550781 391.085938 267.710938 365.402344 280.191406 358.5625 C 292.671875 351.722656 324.664062 371.90625 322.402344 392.261719 C 312.453125 412.84375 295.722656 424.601562 287.421875 427.394531 Z M 287.421875 427.394531 " fill-opacity="1" fill-rule="evenodd"/><path fill="#e97f11" d="M 287.421875 427.394531 L 286.441406 425.964844 L 279.066406 415.199219 C 289.390625 409.175781 304.945312 396.40625 313.785156 371.335938 C 319.480469 377.414062 323.230469 384.824219 322.402344 392.261719 C 312.453125 412.84375 295.71875 424.601562 287.421875 427.394531 Z M 287.421875 427.394531 " fill-opacity="1" fill-rule="evenodd"/><path fill="#fefefe" d="M 328.289062 387.34375 C 328.289062 387.34375 318.085938 345.929688 278.480469 352.929688 C 283.882812 338.324219 292.882812 332.523438 312.6875 336.125 C 332.488281 339.726562 338.691406 359.332031 337.289062 366.335938 C 335.890625 373.335938 328.289062 387.34375 328.289062 387.34375 Z M 328.289062 387.34375 " fill-opacity="1" fill-rule="evenodd"/><path fill="#d2d3d5" d="M 279.609375 350.136719 C 280.75 347.546875 282.039062 345.285156 283.535156 343.355469 C 286.75 343.09375 293.460938 343.09375 298.957031 346.667969 C 293.347656 343.921875 284.277344 347.144531 284.277344 347.144531 C 284.277344 347.144531 298.433594 344.453125 310.472656 356.597656 C 299.148438 348.820312 285.683594 348.953125 279.609375 350.136719 Z M 284.328125 342.386719 C 286.195312 340.222656 288.371094 338.535156 290.933594 337.332031 C 296.261719 336.050781 303.0625 335.65625 310.066406 338.519531 C 301.261719 336.085938 289.535156 340.222656 284.328125 342.386719 Z M 284.328125 342.386719 " fill-opacity="1" fill-rule="evenodd"/><path fill="#d2d3d5" d="M 328.289062 387.34375 C 328.289062 387.34375 326.792969 381.285156 322.738281 374.199219 C 322.449219 371.179688 321.164062 364.695312 315.636719 356.730469 C 323.199219 363.25 326.851562 369.511719 326.851562 369.511719 C 326.851562 369.511719 325.558594 360.902344 317.28125 351.378906 C 328.050781 355.234375 332.132812 364.757812 332.132812 364.757812 C 332.132812 364.757812 329 351.1875 320 341.539062 C 326.304688 344.664062 330.855469 348.085938 333.9375 351.683594 C 336.992188 357.382812 337.925781 363.15625 337.289062 366.335938 C 335.890625 373.335938 328.289062 387.34375 328.289062 387.34375 Z M 328.289062 387.34375 " fill-opacity="1" fill-rule="evenodd"/><path fill="#fefefe" d="M 333.074219 345.089844 C 333.074219 345.089844 309.945312 304.585938 279.78125 283.519531 C 274.320312 284.296875 269.074219 291.09375 267.394531 299.5 C 268.945312 284.757812 275.929688 281.136719 275.929688 281.136719 L 267.265625 275.445312 C 267.265625 275.445312 237.949219 300.984375 222.347656 315.007812 C 214.207031 302.34375 212.621094 298.042969 212.621094 298.042969 C 212.621094 298.042969 210.136719 304.152344 207.421875 305.28125 C 208.777344 321.339844 219.152344 361.730469 219.152344 361.730469 L 206.8125 374.652344 C 206.8125 374.652344 225.582031 377.992188 228.054688 378.328125 C 230.527344 378.664062 230.867188 380.351562 230.976562 382.828125 C 231.089844 385.300781 231.539062 388.222656 228.730469 389.460938 C 225.917969 390.699219 193.539062 400.039062 193.539062 400.039062 C 224.144531 404.699219 256.558594 385.042969 259.390625 379.378906 C 265.152344 367.847656 270.59375 356.089844 276.050781 344.40625 C 268.871094 335.421875 265.398438 322.800781 265.328125 322.542969 C 264.226562 316.410156 265.785156 308.617188 265.785156 308.617188 C 265.785156 308.617188 261.378906 324.898438 281.40625 337.101562 C 295.484375 329.589844 318.722656 329.183594 333.074219 345.089844 Z M 333.074219 345.089844 " fill-opacity="1" fill-rule="evenodd"/><path fill="#d2d3d5" d="M 212.207031 375.609375 C 217.957031 376.625 226.445312 378.109375 228.054688 378.328125 C 230.527344 378.664062 230.863281 380.351562 230.976562 382.828125 C 231.089844 385.300781 231.539062 388.226562 228.726562 389.460938 C 225.917969 390.699219 193.535156 400.039062 193.535156 400.039062 C 224.144531 404.699219 256.554688 385.042969 259.386719 379.378906 C 264.964844 368.222656 276.050781 344.40625 276.050781 344.40625 C 276.050781 344.40625 272.988281 340.046875 269.691406 333.96875 C 263.789062 342.90625 242.804688 372.097656 212.207031 375.609375 Z M 212.207031 375.609375 " fill-opacity="1" fill-rule="evenodd"/><path fill="#d2d3d5" d="M 308.898438 311.0625 C 300.609375 301.226562 290.652344 291.113281 279.78125 283.519531 C 276.796875 283.945312 273.878906 286.167969 271.570312 289.46875 C 282.378906 293.589844 294.878906 300.34375 308.898438 311.0625 Z M 269.988281 288.882812 C 272.5625 282.882812 275.925781 281.136719 275.925781 281.136719 L 267.265625 275.445312 C 267.265625 275.445312 262.742188 279.386719 256.304688 285.019531 C 260.488281 285.847656 265.054688 287.089844 269.988281 288.882812 Z M 269.988281 288.882812 " fill-opacity="1" fill-rule="evenodd"/><path fill="#d2d3d5" d="M 333.074219 345.089844 C 333.074219 345.089844 331.628906 342.5625 328.996094 338.441406 C 318.222656 328.699219 300.199219 323.78125 287.390625 328.507812 C 292.921875 321.464844 293.929688 320.289062 288.394531 322.804688 C 282.863281 325.320312 266.554688 325.96875 265.40625 311.394531 C 265.507812 313.128906 265.570312 314.621094 265.617188 315.925781 C 266.472656 321.765625 269.921875 330.105469 281.40625 337.105469 C 295.484375 329.59375 318.722656 329.183594 333.074219 345.089844 Z M 333.074219 345.089844 " fill-opacity="1" fill-rule="evenodd"/><path fill="#fefefe" d="M 179.785156 370.417969 L 150.941406 366.0625 C 150.941406 366.0625 145.304688 339.453125 153.042969 303.636719 C 146.203125 320.375 142.605469 335.132812 142.605469 335.132812 L 137.746094 314.253906 C 137.746094 314.253906 150.578125 290.074219 165.0625 279.105469 C 168.582031 296.488281 176.300781 310.714844 176.300781 310.714844 L 185.515625 294.875 C 185.515625 294.875 188.019531 301.945312 190.703125 304.539062 C 186.765625 315.367188 172.769531 360.449219 172.769531 360.449219 Z M 179.785156 370.417969 " fill-opacity="1" fill-rule="evenodd"/><path fill="#d2d3d5" d="M 179.785156 370.417969 L 150.941406 366.0625 C 150.941406 366.0625 146.4375 344.792969 151.011719 314.695312 C 151.9375 327.6875 161.289062 345.496094 173.355469 358.574219 L 172.769531 360.449219 Z M 179.785156 370.417969 " fill-opacity="1" fill-rule="evenodd"/><path fill="#fefefe" d="M 177.117188 299.988281 C 177.117188 299.988281 185.367188 284.195312 193.191406 276.941406 C 178.398438 267.550781 176.265625 265.558594 176.265625 265.558594 L 170.574219 264.136719 C 170.574219 264.136719 166.875 279.503906 177.117188 299.988281 Z M 177.117188 299.988281 " fill-opacity="1" fill-rule="evenodd"/><path fill="#d2d3d5" d="M 190.976562 279.199219 C 191.714844 278.386719 192.457031 277.625 193.191406 276.941406 C 178.398438 267.550781 176.265625 265.558594 176.265625 265.558594 L 170.574219 264.136719 C 170.574219 264.136719 170.140625 265.941406 169.980469 269.136719 C 170.492188 269.5 171.023438 269.867188 171.570312 270.246094 C 175.785156 272.574219 182.351562 276.085938 190.976562 279.199219 Z M 190.976562 279.199219 " fill-opacity="1" fill-rule="evenodd"/><path fill="#fefefe" d="M 204.636719 277.375 L 212.800781 271.3125 C 212.800781 271.3125 234.53125 274.613281 262.441406 270.9375 C 245.132812 286.082031 224.484375 304.625 224.484375 304.625 C 224.484375 304.625 217.167969 293.757812 204.636719 277.375 Z M 204.636719 277.375 " fill-opacity="1" fill-rule="evenodd"/><path fill="#d2d3d5" d="M 204.636719 277.375 L 212.800781 271.3125 C 212.800781 271.3125 234.53125 274.613281 262.441406 270.9375 C 260.101562 272.984375 257.699219 275.097656 255.292969 277.214844 C 237.996094 280.304688 221.464844 279.386719 212.226562 278.40625 L 212.007812 278.359375 L 212.023438 278.382812 C 207.386719 277.882812 204.636719 277.375 204.636719 277.375 Z M 204.636719 277.375 " fill-opacity="1" fill-rule="evenodd"/><path fill="#fbc761" d="M 187.640625 266.882812 C 187.640625 266.882812 197.714844 270.320312 205.074219 270.242188 C 199.875 273.917969 198.035156 275.277344 198.035156 275.277344 C 198.035156 275.277344 192.039062 271.28125 187.640625 266.882812 Z M 187.640625 266.882812 " fill-opacity="1" fill-rule="evenodd"/><path fill="#fbc761" d="M 328.40625 324.257812 C 328.40625 324.257812 337.71875 337.210938 341.671875 350.941406 C 344.835938 330.136719 344.0625 317.296875 344.0625 317.296875 C 344.0625 317.296875 336.984375 324.636719 328.40625 324.257812 Z M 328.40625 324.257812 " fill-opacity="1" fill-rule="evenodd"/><path fill="#4b4b4d" d="M 189.75 373.214844 L 177.964844 359.71875 L 193.292969 305.996094 C 193.292969 305.996094 195.542969 306.371094 200.167969 306.246094 C 197.167969 321.617188 188.960938 347.042969 199.410156 367 C 193.351562 371.777344 189.75 373.214844 189.75 373.214844 Z M 189.75 373.214844 " fill-opacity="1" fill-rule="evenodd"/><path fill="#bdbfc1" d="M 188.148438 371.378906 L 177.964844 359.71875 L 193.292969 305.996094 C 193.292969 305.996094 194.355469 306.171875 196.515625 306.242188 L 184.050781 360.953125 Z M 188.148438 371.378906 " fill-opacity="1" fill-rule="evenodd"/><path fill="#4b4b4d" d="M 193.851562 300.855469 C 197.011719 299.417969 204.003906 295.203125 203.714844 283.804688 C 199.308594 280.261719 195.765625 277.671875 191.359375 286.199219 C 189.734375 296.355469 193.851562 300.855469 193.851562 300.855469 Z M 193.851562 300.855469 " fill-opacity="1" fill-rule="evenodd"/><path fill="#bdbfc1" d="M 193.851562 300.855469 L 193.910156 300.828125 C 190.964844 294.898438 195.308594 285.441406 198.039062 280.511719 C 195.882812 280.222656 193.75 281.578125 191.359375 286.199219 C 189.734375 296.351562 193.851562 300.855469 193.851562 300.855469 Z M 193.851562 300.855469 " fill-opacity="1" fill-rule="evenodd"/><path fill="#fefefe" d="M 231.097656 391.304688 C 231.097656 391.304688 244.402344 383.59375 249.800781 379.15625 C 255.203125 374.71875 260.984375 352.347656 260.984375 352.347656 C 260.984375 352.347656 249.800781 379.15625 231.097656 391.304688 Z M 231.097656 391.304688 " fill-opacity="1" fill-rule="evenodd"/><path fill="#d2d3d5" d="M 214.875 302.597656 C 213.097656 299.339844 212.621094 298.042969 212.621094 298.042969 C 212.621094 298.042969 210.132812 304.152344 207.421875 305.28125 C 207.507812 306.339844 207.640625 307.507812 207.800781 308.757812 C 211.5625 306.972656 213.683594 304.695312 214.875 302.597656 Z M 165.816406 282.515625 C 166.46875 285.269531 167.214844 287.917969 167.996094 290.417969 C 165.804688 290.550781 162.023438 291.960938 156 297.519531 C 158.191406 292.320312 162.851562 286.160156 165.816406 282.515625 Z M 176.300781 310.714844 L 185.511719 294.875 C 185.511719 294.875 188.019531 301.945312 190.703125 304.539062 C 190.214844 305.882812 189.574219 307.75 188.820312 309.992188 C 184.179688 307.335938 184.011719 302.238281 184.011719 302.238281 Z M 176.300781 310.714844 " fill-opacity="1" fill-rule="evenodd"/><g clip-path="url(#dad9cff8b6)"><path fill="#000000" d="M 87.71875 193.304688 C 83.128906 164.542969 99.011719 153.277344 99.011719 153.277344 C 99.011719 153.277344 96.117188 71.152344 165.171875 41.421875 C 152.824219 31.355469 146.183594 32.703125 148.464844 30.113281 C 150.746094 27.527344 157.5625 23.492188 179.875 24.183594 C 174.121094 10.261719 173.59375 5.097656 173.65625 1.953125 C 173.71875 -1.191406 176.121094 -0.265625 179.757812 2.816406 C 183.394531 5.898438 228.691406 27.785156 228.691406 27.785156 C 325.707031 26.523438 386.972656 124.597656 347.601562 211.703125 C 300.453125 306.382812 104.648438 278.398438 87.71875 193.304688 Z M 87.71875 193.304688 " fill-opacity="1" fill-rule="evenodd"/></g><path fill="#fbc761" d="M 108.109375 154.59375 C 108.109375 154.59375 104.265625 64.003906 183.554688 44.574219 C 172.058594 34.664062 160.453125 31.164062 160.453125 31.164062 C 160.453125 31.164062 174.082031 29.417969 192.800781 33.433594 C 187.214844 21.476562 183.507812 12.160156 183.507812 12.160156 C 183.507812 12.160156 220.941406 31.972656 227.613281 34.097656 C 250.8125 35.007812 292.648438 40.378906 321.929688 82.640625 C 402.472656 198.882812 290.238281 305.769531 144.269531 246.3125 C 89.964844 220.613281 82.488281 175.320312 108.109375 154.59375 Z M 108.109375 154.59375 " fill-opacity="1" fill-rule="evenodd"/><path fill="#e97f11" d="M 294.277344 55.550781 C 303.839844 62.28125 313.65625 70.804688 321.929688 82.640625 C 403.152344 198.835938 290.253906 305.753906 144.269531 246.3125 C 118.25 233.996094 102.984375 217.1875 96.957031 200.734375 C 97.136719 200.890625 173.96875 272.710938 251.226562 242.242188 C 328.480469 211.773438 360.625 146.554688 294.277344 55.550781 Z M 294.277344 55.550781 " fill-opacity="1" fill-rule="evenodd"/><path fill="#fefefe" d="M 108.113281 154.59375 C 108.113281 154.59375 104.269531 64.003906 183.554688 44.574219 C 182.234375 43.4375 180.910156 42.382812 179.605469 41.410156 C 182.785156 43.140625 185.636719 45.246094 187.238281 47.714844 C 107.933594 65.34375 112.050781 155.035156 112.050781 155.035156 C 112.050781 155.035156 95.679688 167.953125 97.554688 185.636719 C 100.160156 216.890625 128.253906 237.230469 129.828125 238.351562 C 88.835938 212.085938 84.964844 173.316406 108.113281 154.59375 Z M 169.386719 35.003906 C 164.125 32.269531 160.453125 31.164062 160.453125 31.164062 C 160.453125 31.164062 173.578125 29.480469 191.753906 33.214844 C 193.125 33.957031 194.609375 34.753906 196.230469 35.617188 C 186.578125 34.203125 175.804688 34.570312 169.386719 35.003906 Z M 184.90625 15.566406 C 184.003906 13.40625 183.511719 12.160156 183.511719 12.160156 C 183.511719 12.160156 220.945312 31.972656 227.617188 34.097656 C 250.816406 35.007812 291.648438 39.941406 322.546875 81.039062 C 377.117188 153.617188 348.269531 256.957031 244.25 263.339844 C 278.699219 257.699219 315.085938 236.808594 328.484375 211.773438 C 369.320312 135.476562 317.441406 42.957031 226.679688 37.664062 C 205.484375 30.675781 184.914062 15.574219 184.90625 15.566406 Z M 184.90625 15.566406 " fill-opacity="1" fill-rule="evenodd"/><path fill="#000000" d="M 176.351562 155.8125 C 166.128906 156.699219 155.464844 174 146.347656 178.035156 C 137.230469 182.070312 115.875 181.929688 112.089844 189.148438 C 108.308594 196.367188 110.230469 204.425781 119.351562 207.550781 C 126.164062 209.277344 136.773438 207.929688 136.773438 207.929688 C 171.363281 237.273438 240.359375 237.652344 267.222656 200.480469 C 277.785156 181.621094 254.238281 173.558594 242.726562 175.910156 C 227.546875 179.011719 216.226562 182.574219 202.300781 170.605469 C 193 162.609375 188.113281 155.5625 176.351562 155.8125 Z M 176.351562 155.8125 " fill-opacity="1" fill-rule="evenodd"/><path fill="#fc7a02" d="M 140.617188 200.167969 C 140.617188 200.167969 124.484375 202.777344 119.398438 201.101562 C 114.316406 199.421875 114.695312 190.910156 123.125 188.746094 C 131.558594 186.585938 136.851562 187.425781 136.851562 187.425781 C 136.851562 187.425781 150.984375 184.105469 159.765625 172.96875 C 168.546875 161.835938 175.519531 159.136719 182.675781 161.773438 C 189.832031 164.40625 200.199219 179.472656 210.90625 182.070312 C 221.613281 184.667969 236.789062 182.539062 248.203125 180.863281 C 259.621094 179.1875 270.226562 189.992188 258.308594 202.804688 C 246.390625 215.613281 221.863281 222.636719 208.066406 224.171875 C 190.257812 226.152344 156.179688 218.722656 142.792969 206.214844 C 178.109375 212.242188 200.296875 229.230469 237.46875 204.363281 C 247.582031 197.601562 247.523438 195.617188 247.523438 195.617188 C 247.523438 195.617188 252.316406 194.378906 256.078125 196.542969 C 253.734375 190.230469 248.335938 189.1875 241.214844 190.566406 C 234.09375 191.949219 229.46875 191.523438 229.46875 191.523438 C 229.46875 191.523438 232.921875 194.074219 236.539062 194.960938 C 240.160156 195.847656 236.347656 199.558594 231.789062 201.828125 C 227.230469 204.097656 211.890625 212.71875 190.085938 210.425781 C 168.28125 208.128906 154.269531 200.566406 140.617188 200.167969 Z M 140.617188 200.167969 " fill-opacity="1" fill-rule="evenodd"/><path fill="#be4d13" d="M 140.617188 200.171875 C 140.617188 200.171875 124.484375 202.78125 119.402344 201.101562 C 118.257812 200.726562 117.394531 200.003906 116.832031 199.082031 C 124.761719 196.777344 136.023438 194.554688 145.785156 196.546875 C 163.019531 200.070312 177.714844 205.980469 195.777344 205.902344 C 213.839844 205.820312 232.855469 193.558594 232.855469 193.558594 C 233.960938 194.109375 235.238281 194.644531 236.539062 194.964844 C 240.160156 195.851562 236.347656 199.5625 231.789062 201.832031 C 227.230469 204.097656 211.890625 212.722656 190.085938 210.425781 C 168.28125 208.132812 154.269531 200.570312 140.617188 200.171875 Z M 262.378906 187.042969 C 264.546875 191.097656 263.964844 196.726562 258.308594 202.804688 C 230.511719 232.683594 174.035156 229.003906 142.792969 206.214844 C 179.34375 221.925781 214.761719 230.113281 252.9375 202.757812 C 260.183594 197.566406 262.09375 191.417969 262.378906 187.042969 Z M 262.378906 187.042969 " fill-opacity="1" fill-rule="evenodd"/><path fill="#fefefe" d="M 116.179688 195.195312 C 116.660156 192.558594 118.863281 189.839844 123.128906 188.746094 C 131.558594 186.585938 136.851562 187.425781 136.851562 187.425781 C 136.851562 187.425781 150.988281 184.105469 159.765625 172.96875 C 168.546875 161.835938 175.519531 159.136719 182.675781 161.773438 C 186.75 163.273438 191.867188 168.800781 197.492188 173.765625 C 194.5625 172.28125 191.378906 170.34375 188.421875 167.871094 C 179.496094 160.414062 171.1875 163.804688 161.800781 175.414062 C 152.410156 187.023438 140.230469 188.707031 140.230469 188.707031 C 140.230469 188.707031 142.035156 189.589844 149.359375 192.65625 C 131.867188 188.171875 121.847656 191.089844 116.179688 195.195312 Z M 116.179688 195.195312 " fill-opacity="1" fill-rule="evenodd"/><path fill="#000000" d="M 191.609375 181.617188 C 193.148438 180.261719 192.734375 177.273438 190.6875 174.941406 C 188.636719 172.613281 185.726562 171.820312 184.183594 173.175781 C 182.644531 174.53125 183.058594 177.519531 185.105469 179.851562 C 187.15625 182.183594 190.066406 182.972656 191.609375 181.617188 Z M 191.609375 181.617188 " fill-opacity="1" fill-rule="nonzero"/><path fill="#201e1e" d="M 228.175781 95.042969 C 246.988281 95.042969 263.101562 115.332031 263.101562 138.664062 C 263.101562 162 246.296875 176.148438 226.945312 176.148438 C 172.996094 176.148438 195.050781 95.363281 228.175781 95.042969 Z M 228.175781 95.042969 " fill-opacity="1" fill-rule="evenodd"/><path fill="#e6e7e8" d="M 227.570312 102.597656 C 243.277344 102.597656 256.734375 120.554688 256.734375 141.203125 C 256.734375 161.855469 242.699219 174.378906 226.542969 174.378906 C 210.390625 174.378906 199.625 167.960938 199.625 140.929688 C 199.625 117.925781 218.828125 102.6875 227.570312 102.597656 Z M 227.570312 102.597656 " fill-opacity="1" fill-rule="evenodd"/><path fill="#fefefe" d="M 240.273438 171.070312 C 236.109375 173.234375 231.425781 174.378906 226.542969 174.378906 C 210.390625 174.378906 199.625 167.960938 199.625 140.925781 C 199.625 132.9375 201.941406 125.886719 205.332031 120.082031 C 211.414062 111.859375 219.503906 107.0625 224.320312 107.015625 C 239.535156 107.015625 252.570312 124.40625 252.570312 144.410156 C 252.570312 156.46875 247.625 165.664062 240.273438 171.070312 Z M 240.273438 171.070312 " fill-opacity="1" fill-rule="evenodd"/><path fill="#201e1e" d="M 143.089844 96.769531 C 130.585938 96.769531 119.882812 116.609375 119.882812 139.429688 C 119.882812 162.25 131.046875 176.085938 143.902344 176.085938 C 179.75 176.085938 165.097656 97.082031 143.089844 96.769531 Z M 143.089844 96.769531 " fill-opacity="1" fill-rule="evenodd"/><path fill="#fefefe" d="M 143.488281 104.15625 C 133.050781 104.15625 124.113281 121.714844 124.113281 141.910156 C 124.113281 162.105469 133.4375 174.351562 144.171875 174.351562 C 154.902344 174.351562 162.058594 168.074219 162.058594 141.640625 C 162.058594 119.144531 149.296875 104.242188 143.488281 104.15625 Z M 143.488281 104.15625 " fill-opacity="1" fill-rule="evenodd"/><path fill="#e6e7e8" d="M 143.488281 104.15625 C 137.976562 104.15625 132.882812 109.054688 129.300781 116.652344 C 132.636719 111.402344 136.824219 108.191406 141.285156 108.191406 C 147.09375 108.277344 159.851562 123.179688 159.851562 145.675781 C 159.851562 156.289062 158.699219 163.652344 156.621094 168.664062 C 160.070312 163.898438 162.058594 155.566406 162.058594 141.640625 C 162.058594 119.144531 149.296875 104.242188 143.488281 104.15625 Z M 143.488281 104.15625 " fill-opacity="1" fill-rule="evenodd"/><path fill="#000000" d="M 222.402344 171.347656 C 233.429688 171.347656 242.371094 158.40625 242.371094 142.445312 C 242.371094 126.484375 233.429688 113.546875 222.402344 113.546875 C 211.375 113.546875 202.433594 126.484375 202.433594 142.445312 C 202.433594 158.40625 211.375 171.347656 222.402344 171.347656 Z M 222.402344 171.347656 " fill-opacity="1" fill-rule="nonzero"/><path fill="#373435" d="M 240.421875 154.917969 C 237.203125 164.636719 230.34375 171.347656 222.402344 171.347656 C 215.917969 171.347656 210.152344 166.871094 206.507812 159.941406 C 207.273438 156.429688 213.007812 143.660156 214.382812 146.65625 C 217.820312 155.78125 220.878906 157.40625 225.625 153.984375 C 229.347656 151.296875 226.917969 144.257812 227.945312 144.3125 C 233.78125 144.625 239.453125 153.46875 240.421875 154.917969 Z M 240.421875 154.917969 " fill-opacity="1" fill-rule="evenodd"/><path fill="#000000" d="M 222.21875 166.027344 C 230.617188 166.027344 237.429688 155.46875 237.429688 142.445312 C 237.429688 129.421875 230.617188 118.863281 222.21875 118.863281 C 213.816406 118.863281 207.007812 129.421875 207.007812 142.445312 C 207.007812 155.46875 213.816406 166.027344 222.21875 166.027344 Z M 222.21875 166.027344 " fill-opacity="1" fill-rule="nonzero"/><path fill="#fefefe" d="M 212.652344 133.457031 C 216.648438 133.457031 219.886719 130.191406 219.886719 126.15625 C 219.886719 122.125 216.648438 118.855469 212.652344 118.855469 C 208.660156 118.855469 205.421875 122.125 205.421875 126.15625 C 205.421875 130.191406 208.660156 133.457031 212.652344 133.457031 Z M 212.652344 133.457031 " fill-opacity="1" fill-rule="nonzero"/><path fill="#e97f11" d="M 183.554688 44.574219 C 172.058594 34.664062 160.453125 31.164062 160.453125 31.164062 L 160.484375 31.160156 C 169.550781 33.542969 190.175781 39.488281 202.761719 47.195312 C 188.621094 46.523438 152.933594 66.726562 152.933594 66.726562 C 156.644531 60.121094 171.792969 46.582031 183.554688 44.574219 Z M 192.464844 32.710938 C 187.066406 21.105469 183.507812 12.160156 183.507812 12.160156 C 183.507812 12.160156 184.933594 12.914062 187.273438 14.140625 L 202.761719 37.09375 Z M 192.464844 32.710938 " fill-opacity="1" fill-rule="evenodd"/><path fill="#000000" d="M 220.429688 78.769531 C 220.429688 78.769531 238.644531 73.273438 258.917969 93.050781 C 246.945312 64.863281 223.535156 71.9375 220.429688 78.769531 Z M 220.429688 78.769531 " fill-opacity="1" fill-rule="evenodd"/><path fill="#000000" d="M 162.605469 79.429688 C 162.605469 79.429688 141.972656 76.332031 130.625 91.292969 C 144.296875 67.046875 160.027344 73.753906 162.605469 79.429688 Z M 162.605469 79.429688 " fill-opacity="1" fill-rule="evenodd"/><path fill="#000000" d="M 146.308594 169.996094 C 154.667969 169.996094 161.441406 158.539062 161.441406 144.410156 C 161.441406 130.277344 154.667969 118.820312 146.308594 118.820312 C 137.949219 118.820312 131.175781 130.277344 131.175781 144.410156 C 131.175781 158.539062 137.949219 169.996094 146.308594 169.996094 Z M 146.308594 169.996094 " fill-opacity="1" fill-rule="nonzero"/><path fill="#373435" d="M 159.960938 155.449219 C 157.523438 164.054688 152.328125 169.996094 146.308594 169.996094 C 141.390625 169.996094 137.027344 166.035156 134.261719 159.894531 C 134.84375 156.785156 139.1875 145.480469 140.230469 148.132812 C 142.835938 156.214844 145.152344 157.652344 148.746094 154.621094 C 151.570312 152.242188 149.730469 146.011719 150.507812 146.058594 C 154.929688 146.335938 159.230469 154.164062 159.960938 155.449219 Z M 159.960938 155.449219 " fill-opacity="1" fill-rule="evenodd"/><path fill="#000000" d="M 146.167969 165.613281 C 152.644531 165.613281 157.898438 156.5625 157.898438 145.402344 C 157.898438 134.238281 152.644531 125.191406 146.167969 125.191406 C 139.6875 125.191406 134.4375 134.238281 134.4375 145.402344 C 134.4375 156.5625 139.6875 165.613281 146.167969 165.613281 Z M 146.167969 165.613281 " fill-opacity="1" fill-rule="nonzero"/><path fill="#fefefe" d="M 138.917969 136.449219 C 141.945312 136.449219 144.402344 133.554688 144.402344 129.984375 C 144.402344 126.414062 141.945312 123.519531 138.917969 123.519531 C 135.894531 123.519531 133.4375 126.414062 133.4375 129.984375 C 133.4375 133.554688 135.894531 136.449219 138.917969 136.449219 Z M 138.917969 136.449219 " fill-opacity="1" fill-rule="nonzero"/><path fill="#e97f11" d="M 333.945312 333.140625 C 336.679688 338.015625 339.785156 344.390625 341.667969 350.941406 C 344.835938 330.136719 344.0625 317.296875 344.0625 317.296875 C 344.0625 317.296875 343.878906 317.484375 343.535156 317.800781 C 342.972656 324.929688 339.136719 330.84375 333.945312 333.140625 Z M 333.945312 333.140625 " fill-opacity="1" fill-rule="evenodd"/></svg>