<?xml version="1.0" encoding="UTF-8"?>
<!DOCTYPE svg PUBLIC "-//W3C//DTD SVG 1.1//EN" "http://www.w3.org/Graphics/SVG/1.1/DTD/svg11.dtd">
<!-- Creator: CorelDRAW -->
<svg xmlns="http://www.w3.org/2000/svg" xml:space="preserve" width="64.9206mm" height="64.4825mm" version="1.1" style="shape-rendering:geometricPrecision; text-rendering:geometricPrecision; image-rendering:optimizeQuality; fill-rule:evenodd; clip-rule:evenodd"
viewBox="0 0 447.58 444.56"
 xmlns:xlink="http://www.w3.org/1999/xlink"
 xmlns:xodm="http://www.corel.com/coreldraw/odm/2003">
 <defs>
  <style type="text/css">
   <![CDATA[
    .str0 {stroke:#848688;stroke-width:6.89;stroke-miterlimit:22.9256;stroke-opacity:0.501961}
    .fil3 {fill:#FEFEFE}
    .fil9 {fill:#E6E7E8}
    .fil8 {fill:#E6E7E8}
    .fil10 {fill:#373435}
    .fil7 {fill:#201E1E}
    .fil0 {fill:black}
    .fil4 {fill:black}
    .fil6 {fill:#C24C1A}
    .fil2 {fill:#E97F11}
    .fil11 {fill:#E97F11}
    .fil1 {fill:#FBC761}
    .fil5 {fill:#FC7A02}
    .fil12 {fill:#FEFEFE;fill-opacity:0.501961}
   ]]>
  </style>
 </defs>
 <g id="Camada_x0020_1">
  <metadata id="CorelCorpID_0Corel-Layer"/>
  <path class="fil0" d="M1.37 317.07c-7.53,-47.18 18.53,-65.66 18.53,-65.66 0,0 -4.75,-134.71 108.55,-183.48 -20.26,-16.51 -31.16,-14.3 -27.41,-18.54 3.74,-4.24 14.92,-10.86 51.53,-9.73 -9.44,-22.83 -10.3,-31.31 -10.2,-36.46 0.1,-5.16 4.04,-3.64 10.01,1.42 5.97,5.06 80.29,40.96 80.29,40.96 159.17,-2.07 259.68,158.8 195.08,301.68 -77.35,155.3 -398.6,109.4 -426.37,-30.18z"/>
  <path class="fil1" d="M34.82 253.57c0,0 -6.31,-148.59 123.78,-180.46 -18.86,-16.26 -37.9,-22 -37.9,-22 0,0 22.36,-2.86 53.07,3.73 -9.16,-19.62 -15.25,-34.9 -15.25,-34.9 0,0 61.42,32.5 72.36,35.98 38.06,1.49 106.7,10.3 154.74,79.63 132.14,190.67 -52,366 -291.48,268.47 -89.1,-42.16 -101.36,-116.45 -59.32,-150.45z"/>
  <path class="fil2" d="M340.26 91.12c15.69,11.04 31.8,25.02 45.37,44.43 133.26,190.6 -51.97,365.98 -291.48,268.47 -42.69,-20.2 -67.73,-47.78 -77.62,-74.76 0.3,0.26 126.35,118.07 253.1,68.09 126.75,-49.98 179.49,-156.96 70.63,-306.23z"/>
  <path class="fil3" d="M34.82 253.57c0,0 -6.31,-148.59 123.78,-180.46 -2.17,-1.87 -4.34,-3.6 -6.48,-5.19 5.21,2.84 9.89,6.3 12.53,10.35 -130.11,28.91 -123.36,176.04 -123.36,176.04 0,0 -26.86,21.19 -23.78,50.2 4.27,51.26 50.36,84.63 52.95,86.47 -67.26,-43.08 -73.61,-106.67 -35.63,-137.39zm100.53 -196.16c-8.63,-4.49 -14.66,-6.3 -14.66,-6.3 0,0 21.53,-2.76 51.35,3.37 2.25,1.22 4.69,2.52 7.35,3.94 -15.84,-2.32 -33.52,-1.72 -44.04,-1zm25.46 -31.89c-1.48,-3.55 -2.29,-5.59 -2.29,-5.59 0,0 61.42,32.5 72.36,35.98 38.06,1.49 105.06,9.59 155.75,77 89.53,119.05 42.2,288.56 -128.46,299.03 56.52,-9.25 116.22,-43.52 138.2,-84.58 67,-125.15 -18.12,-276.91 -167.02,-285.59 -34.78,-11.46 -68.52,-36.24 -68.54,-36.25z"/>
  <path class="fil4" d="M146.78 255.58c-16.77,1.45 -34.26,29.83 -49.22,36.45 -14.96,6.62 -50,6.39 -56.2,18.23 -6.21,11.84 -3.05,25.06 11.91,30.18 11.18,2.83 28.58,0.62 28.58,0.62 33.75,28.62 82.08,35.39 133.71,32.16 35.19,-2.2 78.66,0.59 91.18,-16.53 17.33,-30.94 -23.99,-46.51 -44.8,-53.85 -23.97,-8.46 -49.73,-3.37 -72.58,-23 -15.26,-13.11 -23.28,-24.67 -42.58,-24.26z"/>
  <path class="fil5" d="M88.15 328.33c0,0 -26.47,4.28 -34.81,1.53 -8.34,-2.75 -7.72,-16.72 6.11,-20.26 13.83,-3.55 22.52,-2.17 22.52,-2.17 0,0 23.19,-5.44 37.59,-23.71 14.41,-18.27 25.85,-22.69 37.59,-18.37 11.74,4.32 28.75,29.03 46.32,33.29 17.57,4.26 34.28,6.3 58.63,13.06 24.35,6.76 46.72,18.7 39.98,37.55 -6.75,18.84 -80.64,15.94 -103.27,18.45 -29.22,3.25 -85.13,-8.93 -107.09,-29.46 57.94,9.89 111.94,25.91 175.49,5.61 5.36,-1.71 2.5,12.44 6.07,10.54 22.85,-12.17 -11.53,-20.62 -22.96,-20.99 -8.31,-0.27 7.58,6.29 7.57,6.29 -7.48,3.72 -52.8,9.23 -88.58,5.46 -35.77,-3.76 -58.76,-16.17 -81.16,-16.82z"/>
  <path class="fil6" d="M299.22 331.37c3.93,5.1 5.32,11.04 2.87,17.88 -6.75,18.84 -80.64,15.94 -103.27,18.45 -22.93,2.55 -62.3,-4.41 -88.8,-17.44 0.87,0.3 50.01,17.28 75.62,14.47 25.84,-2.84 60.51,-5.67 74.37,-6.3 13.87,-0.63 33.05,-4.56 37.18,-14.17 2.25,-5.24 2.38,-9.82 2.02,-12.9z"/>
  <path class="fil6" d="M88.15 328.33c0,0 -26.47,4.28 -34.81,1.53 -1.82,-0.6 -3.21,-1.73 -4.13,-3.17 9.33,-1.68 29.42,-4.99 40.2,-4.45 14.35,0.72 58.47,15.07 101.52,16.86 33.22,1.38 52.93,-1.28 60.2,-2.58 2.92,1.58 6.76,3.17 6.75,3.17 -7.48,3.72 -52.8,9.23 -88.58,5.46 -35.77,-3.76 -58.76,-16.17 -81.16,-16.82z"/>
  <path class="fil3" d="M48.06 320.18c0.79,-4.32 4.4,-8.78 11.4,-10.58 13.83,-3.55 22.52,-2.17 22.52,-2.17 0,0 23.19,-5.44 37.59,-23.71 14.41,-18.27 25.85,-22.69 37.59,-18.37 6.68,2.46 15.08,11.53 24.31,19.67 -4.81,-2.43 -10.03,-5.61 -14.88,-9.67 -14.65,-12.23 -28.27,-6.67 -43.68,12.37 -15.4,19.04 -35.39,21.8 -35.39,21.8 0,0 2.96,1.45 14.98,6.48 -28.7,-7.36 -45.14,-2.57 -54.43,4.16z"/>
  <ellipse class="fil4" transform="matrix(0.463655 -0.407714 0.407714 0.463655 165.723 290.982)" rx="9.87" ry="14.93"/>
  <path class="fil7" d="M231.81 155.9c30.87,0 57.31,33.28 57.31,71.55 0,38.28 -27.58,61.49 -59.32,61.49 -88.52,0 -52.33,-132.51 2.01,-133.04z"/>
  <path class="fil8" d="M230.81 168.29c25.77,0 47.85,29.45 47.85,63.33 0,33.87 -23.03,54.42 -49.53,54.42 -26.5,0 -44.17,-10.53 -44.17,-54.87 0,-37.73 31.51,-62.73 45.85,-62.87z"/>
  <path class="fil3" d="M251.66 280.6c-6.83,3.55 -14.52,5.43 -22.52,5.43 -26.5,0 -44.17,-10.53 -44.17,-54.87 0,-13.1 3.8,-24.67 9.36,-34.19 9.98,-13.49 23.25,-21.35 31.15,-21.43 24.96,0 46.35,28.53 46.35,61.34 0,19.78 -8.11,34.87 -20.17,43.73z"/>
  <path class="fil7" d="M92.21 158.72c-20.51,0 -38.08,32.54 -38.08,69.97 0,37.43 18.32,60.13 39.41,60.13 58.81,0 34.77,-129.59 -1.34,-130.11z"/>
  <path class="fil3" d="M92.87 170.84c-17.12,0 -31.79,28.8 -31.79,61.93 0,33.13 15.3,53.22 32.91,53.22 17.61,0 29.35,-10.29 29.35,-53.66 0,-36.9 -20.93,-61.34 -30.46,-61.49z"/>
  <path class="fil9" d="M92.87 170.84c-9.04,0 -17.4,8.04 -23.28,20.5 5.47,-8.61 12.34,-13.88 19.66,-13.88 9.53,0.14 30.46,24.59 30.46,61.49 0,17.41 -1.89,29.49 -5.3,37.71 5.66,-7.82 8.92,-21.48 8.92,-44.33 0,-36.9 -20.93,-61.34 -30.46,-61.49z"/>
  <ellipse class="fil4" cx="222.34" cy="233.65" rx="32.76" ry="47.4"/>
  <path class="fil10" d="M251.9 254.11c-5.28,15.94 -16.53,26.95 -29.56,26.95 -10.64,0 -20.09,-7.34 -26.08,-18.71 1.26,-5.76 10.67,-26.7 12.92,-21.79 5.64,14.97 10.66,17.63 18.44,12.02 6.11,-4.41 2.12,-15.95 3.81,-15.86 9.57,0.52 18.88,15.02 20.47,17.4z"/>
  <ellipse class="fil4" cx="222.03" cy="233.65" rx="24.96" ry="38.68"/>
  <ellipse class="fil3" cx="206.34" cy="206.93" rx="11.87" ry="11.98"/>
  <path class="fil11" d="M158.6 73.11c-18.86,-16.26 -37.9,-22 -37.9,-22l0.05 -0.01c14.88,3.91 48.71,13.66 69.37,26.3 -23.2,-1.1 -81.75,32.04 -81.75,32.04 6.09,-10.84 30.94,-33.04 50.24,-36.34zm14.62 -19.46c-8.86,-19.04 -14.69,-33.71 -14.69,-33.71 0,0 2.34,1.24 6.18,3.25l25.41 37.65 -16.9 -7.19z"/>
  <path class="fil4" d="M282.25 142.56c0,0 -29.88,9.02 -63.15,-23.42 19.65,46.24 58.05,34.63 63.15,23.42z"/>
  <path class="fil4" d="M71.76 140.93c0,0 33.85,5.08 52.47,-19.46 -22.43,39.78 -48.24,28.77 -52.47,19.46z"/>
  <ellipse class="fil4" cx="97.49" cy="236.87" rx="24.83" ry="41.97"/>
  <path class="fil10" d="M119.89 254.98c-4,14.11 -12.53,23.86 -22.4,23.86 -8.06,0 -15.23,-6.5 -19.76,-16.57 0.95,-5.1 8.08,-23.64 9.79,-19.29 4.27,13.25 8.08,15.61 13.98,10.64 4.63,-3.9 1.61,-14.13 2.89,-14.05 7.25,0.46 14.31,13.3 15.51,15.4z"/>
  <ellipse class="fil4" cx="97.26" cy="238.5" rx="19.25" ry="33.15"/>
  <ellipse class="fil3" cx="85.37" cy="213.21" rx="8.99" ry="10.6"/>
  <path class="fil12 str0" d="M62.49 262.35c22.41,0 40.59,8.63 40.59,19.27 0,10.64 -18.17,19.27 -40.59,19.27 -22.41,0 -40.59,-8.63 -40.59,-19.27 0,-10.64 18.17,-19.27 40.59,-19.27z"/>
  <path class="fil12 str0" d="M266.59 262.35c22.41,0 40.59,8.63 40.59,19.27 0,10.64 -18.17,19.27 -40.59,19.27 -22.42,0 -40.59,-8.63 -40.59,-19.27 0,-10.64 18.17,-19.27 40.59,-19.27z"/>
 </g>
</svg>
