<?xml version="1.0" encoding="UTF-8"?>
<!DOCTYPE svg PUBLIC "-//W3C//DTD SVG 1.1//EN" "http://www.w3.org/Graphics/SVG/1.1/DTD/svg11.dtd">
<!-- Creator: CorelDRAW -->
<svg xmlns="http://www.w3.org/2000/svg" xml:space="preserve" width="67.8686mm" height="64.4825mm" version="1.1" style="shape-rendering:geometricPrecision; text-rendering:geometricPrecision; image-rendering:optimizeQuality; fill-rule:evenodd; clip-rule:evenodd"
viewBox="0 0 748.91 711.55"
 xmlns:xlink="http://www.w3.org/1999/xlink"
 xmlns:xodm="http://www.corel.com/coreldraw/odm/2003">
 <defs>
  <style type="text/css">
   <![CDATA[
    .fil3 {fill:#FEFEFE}
    .fil9 {fill:#E6E7E8}
    .fil8 {fill:#E6E7E8}
    .fil10 {fill:#373435}
    .fil7 {fill:#201E1E}
    .fil0 {fill:black}
    .fil4 {fill:black}
    .fil6 {fill:#BE4D13}
    .fil2 {fill:#E97F11}
    .fil11 {fill:#E97F11}
    .fil12 {fill:#F6F6F6}
    .fil1 {fill:#FBC761}
    .fil5 {fill:#FC7A02}
   ]]>
  </style>
 </defs>
 <g id="Camada_x0020_1">
  <metadata id="CorelCorpID_0Corel-Layer"/>
  <path class="fil0" d="M18 507.5c-12.05,-75.51 29.65,-105.09 29.65,-105.09 0,0 -7.6,-215.61 173.74,-293.67 -32.43,-26.42 -49.87,-22.89 -43.87,-29.68 5.99,-6.79 23.89,-17.39 82.48,-15.58 -15.1,-36.54 -16.49,-50.11 -16.33,-58.36 0.16,-8.25 6.47,-5.83 16.02,2.27 9.55,8.09 128.5,65.55 128.5,65.55 254.76,-3.31 415.64,254.18 312.25,482.86 -123.81,248.57 -637.98,175.11 -682.44,-48.3z"/>
  <path class="fil1" d="M71.55 405.86c0,0 -10.09,-237.83 198.11,-288.84 -30.19,-26.03 -60.66,-35.21 -60.66,-35.21 0,0 35.79,-4.58 84.95,5.97 -14.67,-31.4 -24.4,-55.86 -24.4,-55.86 0,0 98.3,52.02 115.82,57.59 60.92,2.39 170.77,16.49 247.67,127.45 211.5,305.18 -83.23,585.81 -466.54,429.71 -142.6,-67.47 -162.24,-186.38 -94.95,-240.81z"/>
  <path class="fil2" d="M560.42 145.84c25.11,17.67 50.89,40.04 72.62,71.12 213.29,305.06 -83.18,585.77 -466.54,429.71 -68.33,-32.33 -108.41,-76.47 -124.24,-119.66 0.47,0.41 202.23,188.98 405.1,108.98 202.87,-79.99 287.28,-251.22 113.05,-490.14z"/>
  <path class="fil3" d="M71.55 405.86c0,0 -10.09,-237.83 198.11,-288.84 -3.47,-2.99 -6.94,-5.76 -10.37,-8.31 8.35,4.55 15.84,10.08 20.05,16.56 -208.25,46.28 -197.45,281.76 -197.45,281.76 0,0 -42.98,33.91 -38.06,80.34 6.84,82.05 80.61,135.46 84.75,138.4 -107.65,-68.96 -117.81,-170.74 -57.03,-219.9zm160.91 -313.97c-13.82,-7.18 -23.46,-10.09 -23.46,-10.09 0,0 34.46,-4.41 82.2,5.39 3.6,1.95 7.5,4.04 11.76,6.31 -25.35,-3.72 -53.65,-2.75 -70.49,-1.61zm40.75 -51.04c-2.36,-5.67 -3.66,-8.94 -3.66,-8.94 0,0 98.3,52.02 115.82,57.59 60.92,2.39 168.15,15.34 249.29,123.24 143.3,190.55 67.54,461.86 -205.61,478.62 90.46,-14.81 186.01,-69.65 221.2,-135.37 107.24,-200.32 -29,-443.22 -267.33,-457.11 -55.66,-18.35 -109.68,-58 -109.7,-58.02z"/>
  <path class="fil4" d="M250.74 409.07c-26.84,2.33 -54.84,47.75 -78.78,58.34 -23.94,10.6 -80.03,10.23 -89.96,29.18 -9.93,18.95 -4.89,40.11 19.06,48.31 17.89,4.53 45.75,1 45.75,1 90.84,77.05 272.02,78.04 342.56,-19.55 27.74,-49.52 -34.09,-70.68 -64.32,-64.5 -39.87,8.14 -69.59,17.49 -106.16,-13.93 -24.42,-20.99 -37.26,-39.49 -68.15,-38.83z"/>
  <path class="fil5" d="M156.91 525.52c0,0 -42.36,6.86 -55.71,2.45 -13.35,-4.41 -12.35,-26.75 9.78,-32.43 22.14,-5.68 36.04,-3.47 36.04,-3.47 0,0 37.11,-8.71 60.17,-37.95 23.06,-29.24 41.37,-36.32 60.16,-29.4 18.79,6.92 46.02,46.47 74.13,53.29 28.11,6.82 67.96,1.23 97.94,-3.17 29.98,-4.4 57.83,23.97 26.54,57.61 -31.3,33.63 -95.71,52.07 -131.94,56.1 -46.77,5.2 -136.25,-14.3 -171.41,-47.15 92.74,15.82 151,60.43 248.62,-4.85 26.55,-17.76 26.41,-22.97 26.41,-22.97 0,0 12.58,-3.25 22.46,2.43 -6.16,-16.57 -20.33,-19.31 -39.03,-15.69 -18.7,3.62 -30.84,2.51 -30.84,2.51 0,0 9.06,6.69 18.57,9.03 9.5,2.33 -0.51,12.07 -12.48,18.03 -11.97,5.95 -52.25,28.6 -109.51,22.57 -57.26,-6.02 -94.06,-25.88 -129.9,-26.93z"/>
  <path class="fil6" d="M156.91 525.52c0,0 -42.36,6.86 -55.71,2.45 -3,-0.99 -5.28,-2.89 -6.75,-5.3 20.83,-6.05 50.4,-11.9 76.03,-6.66 45.26,9.25 83.84,24.76 131.28,24.56 47.43,-0.21 97.36,-32.41 97.36,-32.41l0 0c2.9,1.45 6.26,2.85 9.68,3.69 9.5,2.33 -0.51,12.07 -12.48,18.03 -11.97,5.95 -52.25,28.6 -109.51,22.57 -57.26,-6.02 -94.06,-25.88 -129.9,-26.93zm319.74 -34.47c5.7,10.65 4.17,25.43 -10.68,41.39 -72.99,78.44 -221.31,68.78 -303.35,8.95 95.98,41.24 188.99,62.74 289.24,-9.07 19.03,-13.63 24.04,-29.77 24.79,-41.27z"/>
  <path class="fil3" d="M92.74 512.47c1.26,-6.92 7.04,-14.06 18.24,-16.93 22.14,-5.68 36.04,-3.47 36.04,-3.47 0,0 37.11,-8.71 60.17,-37.95 23.06,-29.24 41.37,-36.32 60.16,-29.4 10.7,3.94 24.13,18.46 38.91,31.49 -7.7,-3.9 -16.05,-8.98 -23.82,-15.47 -23.44,-19.58 -45.26,-10.68 -69.91,19.8 -24.65,30.48 -56.64,34.9 -56.64,34.9 0,0 4.74,2.33 23.98,10.37 -45.93,-11.77 -72.24,-4.12 -87.13,6.67z"/>
  <ellipse class="fil4" transform="matrix(0.463655 -0.407714 0.407714 0.463655 281.061 465.736)" rx="15.8" ry="23.9"/>
  <path class="fil7" d="M386.83 249.52c49.41,0 91.72,53.26 91.72,114.53 0,61.26 -44.14,98.42 -94.94,98.42 -141.68,0 -83.76,-212.1 3.22,-212.94z"/>
  <path class="fil8" d="M385.24 269.35c41.25,0 76.58,47.14 76.58,101.36 0,54.22 -36.85,87.1 -79.27,87.1 -42.42,0 -70.69,-16.85 -70.69,-87.82 0,-60.39 50.43,-100.4 73.38,-100.63z"/>
  <path class="fil3" d="M418.6 449.12c-10.94,5.68 -23.24,8.69 -36.05,8.69 -42.42,0 -70.69,-16.85 -70.69,-87.82 0,-20.97 6.09,-39.49 14.99,-54.73 15.98,-21.59 37.22,-34.18 49.86,-34.31 39.96,0 74.18,45.66 74.18,98.18 0,31.66 -12.98,55.81 -32.29,69.99z"/>
  <path class="fil7" d="M163.39 254.05c-32.83,0 -60.94,52.09 -60.94,112 0,59.91 29.33,96.24 63.08,96.24 94.13,0 55.65,-207.42 -2.14,-208.24z"/>
  <path class="fil3" d="M164.45 273.44c-27.41,0 -50.88,46.1 -50.88,99.12 0,53.02 24.49,85.18 52.67,85.18 28.18,0 46.97,-16.48 46.97,-85.88 0,-59.06 -33.5,-98.18 -48.76,-98.41z"/>
  <path class="fil9" d="M164.45 273.44c-14.48,0 -27.85,12.86 -37.26,32.81 8.75,-13.78 19.75,-22.21 31.46,-22.21 15.25,0.23 48.76,39.35 48.76,98.41 0,27.87 -3.03,47.2 -8.48,60.36 9.06,-12.51 14.27,-34.38 14.27,-70.95 0,-59.06 -33.51,-98.18 -48.76,-98.41z"/>
  <ellipse class="fil4" cx="371.67" cy="373.98" rx="52.44" ry="75.87"/>
  <path class="fil10" d="M418.99 406.72c-8.45,25.51 -26.46,43.13 -47.32,43.13 -17.03,0 -32.16,-11.75 -41.74,-29.95 2.01,-9.22 17.08,-42.74 20.68,-34.87 9.03,23.96 17.07,28.22 29.52,19.24 9.78,-7.05 3.4,-25.53 6.1,-25.39 15.32,0.82 30.23,24.04 32.77,27.85z"/>
  <ellipse class="fil4" cx="371.19" cy="373.98" rx="39.94" ry="61.91"/>
  <ellipse class="fil3" cx="346.07" cy="331.21" rx="18.99" ry="19.17"/>
  <path class="fil11" d="M269.66 117.02c-30.19,-26.03 -60.66,-35.21 -60.66,-35.21l0.08 -0.01c23.81,6.26 77.97,21.86 111.03,42.1 -37.13,-1.77 -130.85,51.28 -130.85,51.28 9.74,-17.35 49.52,-52.89 80.41,-58.16zm23.4 -31.14c-14.17,-30.48 -23.52,-53.96 -23.52,-53.96 0,0 3.74,1.98 9.88,5.2l40.67 60.26 -27.04 -11.5z"/>
  <path class="fil4" d="M350.24 222.98c0,0 47.83,14.43 101.07,-37.49 -31.45,74 -92.92,55.42 -101.07,37.49z"/>
  <path class="fil4" d="M214.65 238.6c0,0 -54.18,8.13 -83.98,-31.15 35.9,63.66 77.21,46.05 83.98,31.15z"/>
  <ellipse class="fil4" cx="171.85" cy="379.12" rx="39.74" ry="67.18"/>
  <path class="fil10" d="M207.71 408.11c-6.4,22.59 -20.05,38.19 -35.86,38.19 -12.91,0 -24.37,-10.4 -31.63,-26.52 1.52,-8.16 12.94,-37.84 15.67,-30.88 6.84,21.21 12.93,24.99 22.37,17.03 7.41,-6.25 2.58,-22.61 4.62,-22.48 11.61,0.73 22.9,21.28 24.83,24.65z"/>
  <ellipse class="fil4" cx="171.48" cy="381.73" rx="30.8" ry="53.06"/>
  <ellipse class="fil3" cx="152.45" cy="341.25" rx="14.39" ry="16.97"/>
  <g id="_2874657841856">
   <path class="fil0" d="M212.03 381.19c-6.59,-2.87 -17.6,-1.96 -24.92,-0.78l-0.09 23.79 -21.73 0.22 -0.11 -23.36c-6.69,-2.63 -17.68,-1.96 -24.9,-0.5l0 23.88 -21.32 0.06 -0.66 21.62c6.6,0.65 13.95,1.32 20.19,-0.73 0.24,-0.08 0.73,-0.27 1.05,-0.48l0.98 -20.29 24.47 -0.05 0.23 21.57 21.84 0.18 0.24 -21.7 24.65 -0.28 0.09 -23.15zm305.35 -0.7c-7.36,-1.39 -18.3,-2.05 -25,0.63l0.04 23.27 -21.78 -0.04 -0.07 -23.92c-7.41,-1.23 -18.25,-2.06 -24.98,0.73l0.01 23.2 -23.6 0.09 -1.19 21.5 -23.73 0.46 -1.02 24.19 24.95 0.47 0.06 -24.41 24.74 -0.14 0.24 24.59 23.92 -0.02 0.75 -24.54 21.4 -0.16 0.59 -21.6 24.29 -0.41 0.38 -23.91zm184.32 2.02c11.72,0 23.45,0.12 35.17,-0.08 10.48,-0.18 13.56,-4.26 11.38,21.62 -9.61,1.33 -23.28,0.38 -33.45,0.53 -6.72,0.1 -11.62,1.68 -13.09,-3.13 -0.35,-1.14 -0.11,-16.28 -0.15,-18.84l-137.37 0 -0.17 21.41 -24.55 0.61 -0.25 21.42 -21.75 0.49 -0.29 24.34 -24.59 0.32 -0.19 21.59 -164.29 0.3 -0.78 -21.81 -24.02 -0.26 -0.77 -21.7 -21.16 -0.18 -0.85 -24.52 -46.44 -0.13 -0.18 21.16 -21.96 1.05 -0.09 24.1 -164.96 0.22 -0.25 -24.45 -24.6 -0.31 -0.22 -21.74 -21.82 -0.16 0.05 -46.42c201.33,-2.12 410.37,-0.05 613.23,-0.05 18.14,0 74.68,-2.33 88.39,0.8l0.04 23.81z"/>
   <path class="fil12" d="M470.34 404.57l-24.48 0.08 -0.01 21.62 24.58 0.02 -0.08 -21.71zm-74.28 46.04l1.02 -24.19 23.73 -0.46 1.19 -21.5 23.6 -0.09 -0.01 -23.2c6.73,-2.79 17.57,-1.96 24.98,-0.73l0.07 23.92 21.78 0.04 -0.04 -23.27c6.7,-2.68 17.64,-2.01 25,-0.63l-0.38 23.91 -24.29 0.41 -0.59 21.6 -21.4 0.16 -0.75 24.54 -23.92 0.02 -0.24 -24.59 -24.74 0.14 -0.06 24.41 -24.95 -0.47z"/>
   <path class="fil12" d="M138.49 425.39c-6.24,2.05 -13.59,1.38 -20.19,0.73l0.66 -21.62 21.32 -0.06 0 -23.88c7.22,-1.46 18.22,-2.13 24.9,0.5l0.11 23.36 21.73 -0.22 0.09 -23.79c7.32,-1.18 18.34,-2.09 24.92,0.78l-0.09 23.15 -24.65 0.28 -0.24 21.7 -21.84 -0.18 -0.23 -21.57 -24.47 0.05 -0.98 20.29c-0.32,0.21 -0.8,0.4 -1.05,0.48z"/>
   <polygon class="fil0" points="470.42,426.28 445.85,426.26 445.86,404.65 470.34,404.57 "/>
  </g>
 </g>
</svg>
