<svg width="413" height="645" viewBox="0 0 413 645" fill="none" xmlns="http://www.w3.org/2000/svg">
<path fill-rule="evenodd" clip-rule="evenodd" d="M386.184 459.15C386.184 459.15 410.184 365.595 412.214 356.923C414.243 348.251 410.922 342.531 400.773 342.346C390.625 342.162 290.104 347.156 284.022 347.633C277.94 348.11 271.103 351.95 268.771 363.883C256.427 346.327 234.275 325.578 234.275 325.578L234.637 299.689C234.637 299.689 127.391 297.248 90.2377 330.063C53.0837 362.878 44.6766 379.692 44.6766 379.692C44.6766 379.692 28.1985 385.325 14.2847 359.855C9.33251 398.295 0.290413 461.76 81.9884 523.429C79.3527 545.039 82.505 548.04 88.6221 551.376C86.2584 559.023 83.7988 570.583 80.5346 572.518C77.2708 574.452 26.9216 593.829 14.2202 599.031C1.5184 604.233 1.88139 613.184 9.62373 617.176C17.3656 621.168 30.2796 624.032 30.2796 624.032C30.2796 624.032 28.8806 634.89 39.2736 636.805C49.6672 638.719 62.5221 637.215 76.1973 639.54C89.8729 641.864 99.4778 648.36 111.334 641.102C123.19 633.843 151.029 620.323 152.723 606.289C154.417 592.255 140.896 585.705 141.44 580.478C141.984 575.252 143.618 561.751 143.618 561.751C143.618 561.751 159.201 559.681 159.736 543.947C173.758 541.271 180.5 540.95 180.5 540.95C180.5 540.95 180.761 550.775 182.139 554.406C183.516 558.037 192.031 561.419 192.031 561.419C192.031 561.419 194.699 580.368 194.453 582.707C194.207 585.046 182.911 596.573 183.274 605.648C183.637 614.723 193.798 617.703 204.742 626.216C215.687 634.728 223.15 643.691 235.615 644.147C248.08 644.603 265.65 637.403 275.213 637.702C284.776 638.001 298.075 641.437 303.454 632.621C308.834 623.805 313.915 624.253 322.88 619.92C331.845 615.587 331.039 608.119 324.165 605.198C317.292 602.276 289.407 595.65 272.016 589.129C254.625 582.607 250.811 581.496 248.551 577.271C246.291 573.046 242.53 553.423 242.53 553.423C242.53 553.423 250.308 549.856 251.388 543.272C252.469 536.688 251.502 524.849 251.502 524.849L261.225 497.646C261.225 497.646 287.174 515.171 323.61 505.331C360.045 495.491 361.711 469.844 361.711 469.844C373.669 468.809 383.68 470.189 386.184 459.15Z" fill="black"/>
<path fill-rule="evenodd" clip-rule="evenodd" d="M262.122 487.043L301.979 482.086C301.979 482.086 299.883 461.684 312.919 460.87C317.943 460.733 317.672 474.313 317.672 474.313C317.672 474.313 317.264 456.253 325.14 453.808C333.016 451.364 334.646 460.869 333.967 469.695C338.04 450.142 348.496 449.327 350.805 459.376C353.114 469.424 347.092 493.231 317.258 498.88C287.423 504.529 268.005 491.995 262.123 487.042L262.122 487.043Z" fill="#FBC761"/>
<path fill-rule="evenodd" clip-rule="evenodd" d="M262.122 487.043L280.057 484.813C309.673 501.121 335.781 490.269 347.818 477.66C343.375 486.693 334.121 495.687 317.257 498.88C287.423 504.53 268.004 491.995 262.122 487.043Z" fill="#E97F11"/>
<path fill-rule="evenodd" clip-rule="evenodd" d="M306.541 463.613C308.105 462.08 310.175 461.04 312.918 460.868C317.162 460.753 317.627 470.426 317.669 473.431C316.614 463.258 311.029 462.483 306.541 463.613H306.541ZM317.67 473.432C317.709 469.786 318.31 455.926 325.139 453.807C331.383 451.869 333.7 457.442 334.054 464.233C332.847 451.598 319.698 457.193 317.67 473.433V473.432ZM338.55 457.535C343.24 450.533 349.139 452.13 350.804 459.375C351.865 463.994 351.163 471.52 347.2 478.854C348.941 473.883 350.06 468.536 349.326 463.919C347.95 455.262 342.62 454.539 338.55 457.535Z" fill="#FEFEFE"/>
<path fill-rule="evenodd" clip-rule="evenodd" d="M316.933 609.416C316.933 609.416 256.322 591.241 246.558 585.155C242.627 582.239 240.595 579.168 239.577 574.078C238.558 568.989 236.269 557.453 236.269 557.453C236.269 557.453 225.617 566.33 200.002 564.174C202.411 582.941 203.553 583.702 202.031 585.604C200.51 587.507 187.587 602.472 191.458 607.346C195.328 612.22 205.363 617.954 217.548 626.125C229.733 634.296 230.02 639.314 249.373 635.013C268.725 630.712 277.377 632.118 288.415 632.261C299.454 632.404 303.611 627.53 300.314 620.649C316.657 616.635 321.208 616.908 321.586 613.44C321.775 611.737 319.568 610.413 316.933 609.416Z" fill="#F37F10"/>
<path fill-rule="evenodd" clip-rule="evenodd" d="M237.31 562.697L236.269 557.453C236.269 557.453 225.617 566.33 200.002 564.174C202.411 582.941 203.553 583.702 202.031 585.604C200.51 587.507 187.587 602.472 191.458 607.346C195.328 612.22 205.363 617.954 217.548 626.125C229.733 634.296 230.02 639.314 249.373 635.013C268.725 630.712 277.377 632.118 288.415 632.261C297.054 632.374 301.478 629.412 301.413 624.821C301.395 624.833 294.687 629.504 283.193 626.63C271.684 623.753 268.807 622.314 253.342 626.09C237.877 629.867 231.943 628.608 220.614 617.639C209.284 606.669 202.466 602.408 205.012 592.067C207.557 581.727 205.807 569 205.807 569C205.807 569 221.809 571.503 237.31 562.697V562.697ZM300.634 621.37C300.536 621.132 300.43 620.892 300.314 620.649C316.657 616.635 321.208 616.908 321.586 613.44C321.752 611.944 320.069 610.741 317.871 609.794C313.366 612.301 306.082 614.388 294.343 614.942C296.675 616.472 298.798 618.818 300.634 621.37Z" fill="#C24C1A"/>
<path fill-rule="evenodd" clip-rule="evenodd" d="M316.933 609.416C316.933 609.416 256.322 591.241 246.558 585.155C242.627 582.239 240.594 579.168 239.576 574.078C238.558 568.989 236.268 557.453 236.268 557.453C236.268 557.453 234.97 558.533 232.195 559.849C232.633 566.308 234.268 577.555 240.197 585.355C248.957 596.883 289.162 606.571 307.711 610.589C312.689 611.668 316.775 613.526 320.091 615.667C321.038 615.103 321.479 614.421 321.586 613.44C321.775 611.738 319.568 610.414 316.933 609.417L316.933 609.416Z" fill="#FEFEFE"/>
<path fill-rule="evenodd" clip-rule="evenodd" d="M107.864 633.722C107.864 633.722 137.29 617.062 143.128 609.89C148.965 602.718 144.461 599.382 132.62 583.704C133.287 570.861 134.73 564.96 134.73 564.96C134.73 564.96 113.267 568.321 95.6157 557.508C91.7996 571.979 88.1417 578.181 83.5297 580.408C78.9181 582.634 25.7797 601.275 19.3257 604.195C12.8721 607.114 11.3355 610.649 20.0946 613.26C28.8528 615.873 35.3073 617.563 37.6119 620.636C34.846 628.626 38.5336 631.239 48.8293 630.624C59.1245 630.009 69.0599 629.002 78.9561 631.829C88.8522 634.656 97.1093 638.928 107.864 633.722Z" fill="#F37F10"/>
<path fill-rule="evenodd" clip-rule="evenodd" d="M101.151 560.41C99.2843 559.579 97.43 558.619 95.6159 557.508C91.7998 571.979 88.1419 578.181 83.5299 580.407C78.9183 582.634 25.7799 601.275 19.3259 604.195C13.6518 606.762 11.7806 609.804 17.3636 612.276C30.2465 603.479 67.5981 594.424 85.1405 587.533C99.4009 581.93 101.222 567.752 101.151 560.409V560.41Z" fill="#FEFEFE"/>
<path fill-rule="evenodd" clip-rule="evenodd" d="M107.864 633.722C107.864 633.722 137.29 617.062 143.128 609.89C148.965 602.718 144.461 599.382 132.62 583.704C133.287 570.861 134.73 564.96 134.73 564.96C134.73 564.96 113.267 568.321 95.6157 557.508C95.1059 559.441 94.5989 561.225 94.0924 562.873C103.799 567.711 115.729 571.784 126.771 570.392C125.958 582.383 134.087 595.187 131.039 601.488C127.991 607.788 109.405 629.506 96.8967 627.248C84.3887 624.989 77.787 619.43 66.8422 620.82C55.8977 622.21 43.6033 628.563 41.5176 620.119C44.7956 615.153 44.3983 613.067 41.3188 611.279C38.8925 609.87 23.6927 606.543 17.3539 605.194C12.6573 607.893 12.3148 610.941 20.0942 613.261C28.8524 615.873 35.3069 617.563 37.6115 620.637C34.8456 628.627 38.5332 631.239 48.8289 630.625C59.1241 630.01 69.0595 629.002 78.9556 631.829C88.8517 634.656 97.1088 638.929 107.864 633.723L107.864 633.722Z" fill="#C24C1A"/>
<path fill-rule="evenodd" clip-rule="evenodd" d="M402.297 346.26C402.297 346.26 295.352 351.14 287.512 352.12C279.671 353.1 276.474 355.195 273.682 366.972C270.889 378.749 249.539 464.648 247.936 471.326C246.333 478.005 242.504 475.958 236.716 474.71C230.927 473.463 195.602 463.209 191.763 461.861C187.925 460.515 193.177 459.37 193.177 459.37L248.235 452.299L249.582 445.834C249.582 445.834 173.48 456.382 168.318 457.167C163.155 457.953 164.624 460.298 167.871 460.889C171.118 461.48 231.247 478.948 237.63 480.581C244.012 482.214 249.801 480.136 251.879 472.418C253.957 464.699 275.67 376.925 277.534 368.463C279.399 360.001 282.841 356.128 290.73 355.841C298.618 355.555 399.124 350.933 403.565 350.428C408.006 349.924 406.189 346.088 402.297 346.259V346.26Z" fill="#FEFEFE"/>
<path d="M332.183 428.463C325.627 428.463 322.098 421.185 324.299 412.206C326.5 403.228 333.599 395.949 340.154 395.949C346.709 395.949 350.239 403.228 348.038 412.206C345.837 421.185 338.738 428.463 332.183 428.463Z" fill="#FEFEFE"/>
<path fill-rule="evenodd" clip-rule="evenodd" d="M86.7024 512.639L87.8783 510.922L116.543 469.088C116.543 469.088 110.35 438.28 95.3765 430.075C80.4025 421.87 42.0236 446.082 44.7361 470.496C56.6721 495.182 76.7464 509.288 86.7024 512.639V512.639Z" fill="#FBC761"/>
<path fill-rule="evenodd" clip-rule="evenodd" d="M86.7025 512.639L87.8784 510.923L96.7275 498.008C84.3425 490.784 65.6773 475.467 55.073 445.395C48.2409 452.689 43.745 461.578 44.7362 470.496C56.6722 495.182 76.7465 509.289 86.7025 512.639Z" fill="#E97F11"/>
<path fill-rule="evenodd" clip-rule="evenodd" d="M86.7027 512.641L87.8785 510.925L88.21 510.442C75.7527 503.057 57.2987 487.61 46.8663 457.582C45.0847 461.757 44.2503 466.124 44.7363 470.499C56.6724 495.185 76.7467 509.291 86.7027 512.642V512.641Z" fill="#FEFEFE"/>
<path fill-rule="evenodd" clip-rule="evenodd" d="M37.6749 464.598C37.6749 464.598 49.9136 414.923 97.4287 423.322C90.9491 405.803 80.1501 398.845 56.3927 403.164C32.6354 407.483 25.1957 431.001 26.8759 439.4C28.556 447.798 37.6749 464.597 37.6749 464.597V464.598Z" fill="#FEFEFE"/>
<path fill-rule="evenodd" clip-rule="evenodd" d="M96.0771 419.969C94.7093 416.863 93.1599 414.15 91.3659 411.837C87.5078 411.524 79.4564 411.52 72.8639 415.81C79.5935 412.517 90.4763 416.383 90.4763 416.383C90.4763 416.383 73.4902 413.151 59.0493 427.718C72.6334 418.392 88.7893 418.552 96.0767 419.969H96.0771ZM90.4159 410.676C88.1721 408.08 85.5657 406.055 82.4912 404.609C76.0952 403.074 67.9387 402.601 59.5339 406.036C70.0979 403.118 84.1685 408.078 90.4159 410.676Z" fill="#D2D3D5"/>
<path fill-rule="evenodd" clip-rule="evenodd" d="M37.6752 464.596C37.6752 464.596 39.4687 457.332 44.3349 448.831C44.6782 445.21 46.2217 437.433 52.8535 427.879C43.7803 435.7 39.4006 443.208 39.4006 443.208C39.4006 443.208 40.9513 432.884 50.8808 421.458C37.9586 426.083 33.0618 437.509 33.0618 437.509C33.0618 437.509 36.823 421.232 47.6165 409.656C40.0525 413.404 34.597 417.508 30.8989 421.826C27.2304 428.659 26.1135 435.587 26.8761 439.399C28.5563 447.798 37.6752 464.596 37.6752 464.596V464.596Z" fill="#D2D3D5"/>
<path fill-rule="evenodd" clip-rule="evenodd" d="M31.9343 413.915C31.9343 413.915 59.6796 365.334 95.8685 340.064C102.42 341 108.713 349.151 110.729 359.234C108.868 341.551 100.492 337.208 100.492 337.208L110.885 330.383C110.885 330.383 146.054 361.015 164.774 377.835C174.541 362.643 176.44 357.488 176.44 357.488C176.44 357.488 179.424 364.813 182.68 366.169C181.052 385.431 168.604 433.878 168.604 433.878L183.412 449.377C183.412 449.377 160.894 453.38 157.926 453.784C154.959 454.189 154.554 456.212 154.419 459.18C154.285 462.147 153.745 465.654 157.117 467.138C160.489 468.622 199.337 479.826 199.337 479.826C162.616 485.413 123.731 461.838 120.334 455.045C113.419 441.215 106.893 427.111 100.345 413.095C108.959 402.32 113.125 387.182 113.21 386.87C114.532 379.515 112.662 370.167 112.662 370.167C112.662 370.167 117.947 389.696 93.921 404.337C77.0282 395.327 49.1521 394.838 31.9338 413.915L31.9343 413.915Z" fill="#FEFEFE"/>
<path fill-rule="evenodd" clip-rule="evenodd" d="M176.937 450.523C170.04 451.739 159.856 453.521 157.927 453.785C154.959 454.189 154.555 456.213 154.42 459.18C154.286 462.148 153.746 465.655 157.118 467.139C160.49 468.622 199.338 479.827 199.338 479.827C162.617 485.413 123.732 461.839 120.335 455.046C113.644 441.663 100.346 413.095 100.346 413.095C100.346 413.095 104.017 407.866 107.975 400.578C115.054 411.296 140.228 446.313 176.937 450.524V450.523Z" fill="#D2D3D5"/>
<path fill-rule="evenodd" clip-rule="evenodd" d="M60.9365 373.104C70.8815 361.306 82.8258 349.172 95.8691 340.064C99.4493 340.575 102.951 343.241 105.721 347.199C92.7548 352.144 77.757 360.244 60.9365 373.104V373.104ZM107.619 346.498C104.528 339.303 100.493 337.208 100.493 337.208L110.885 330.383C110.885 330.383 116.311 335.108 124.033 341.865C119.013 342.858 113.536 344.348 107.619 346.498Z" fill="#D2D3D5"/>
<path fill-rule="evenodd" clip-rule="evenodd" d="M31.9343 413.918C31.9343 413.918 33.6657 410.885 36.828 405.943C49.7515 394.258 71.372 388.356 86.7401 394.025C80.1037 385.578 78.8972 384.17 85.5336 387.187C92.17 390.204 111.735 390.982 113.115 373.5V373.501C112.994 375.581 112.919 377.37 112.861 378.935C111.837 385.941 107.699 395.943 93.9215 404.339C77.0287 395.328 49.1526 394.839 31.9343 413.917V413.918Z" fill="#D2D3D5"/>
<path fill-rule="evenodd" clip-rule="evenodd" d="M215.837 444.296L250.441 439.073C250.441 439.073 257.201 407.153 247.918 364.194C256.122 384.271 260.439 401.972 260.439 401.972L266.268 376.931C266.268 376.931 250.876 347.928 233.497 334.77C229.277 355.623 220.017 372.685 220.017 372.685L208.962 353.688C208.962 353.688 205.957 362.166 202.737 365.279C207.46 378.266 224.25 432.339 224.25 432.339L215.836 444.296H215.837Z" fill="#FEFEFE"/>
<path fill-rule="evenodd" clip-rule="evenodd" d="M215.837 444.295L250.441 439.072C250.441 439.072 255.842 413.562 250.356 377.461C249.243 393.045 238.024 414.403 223.551 430.088L224.251 432.338L215.837 444.295Z" fill="#D2D3D5"/>
<path fill-rule="evenodd" clip-rule="evenodd" d="M219.035 359.821C219.035 359.821 209.137 340.878 199.751 332.175C217.498 320.912 220.059 318.523 220.059 318.523L226.885 316.816C226.885 316.816 231.322 335.247 219.035 359.821Z" fill="#FEFEFE"/>
<path fill-rule="evenodd" clip-rule="evenodd" d="M202.409 334.885C201.525 333.907 200.635 332.996 199.751 332.175C217.498 320.912 220.059 318.523 220.059 318.523L226.885 316.816C226.885 316.816 227.405 318.981 227.596 322.813C226.982 323.248 226.346 323.692 225.69 324.143C220.634 326.939 212.755 331.148 202.409 334.885Z" fill="#D2D3D5"/>
<path fill-rule="evenodd" clip-rule="evenodd" d="M186.021 332.697L176.226 325.425C176.226 325.425 150.154 329.385 116.672 324.973C137.436 343.141 162.21 365.382 162.21 365.382C162.21 365.382 170.985 352.348 186.021 332.697V332.697Z" fill="#FEFEFE"/>
<path fill-rule="evenodd" clip-rule="evenodd" d="M186.021 332.697L176.226 325.425C176.226 325.425 150.154 329.385 116.672 324.973C119.48 327.43 122.363 329.962 125.247 332.504C145.999 336.21 165.83 335.109 176.916 333.931L177.177 333.875L177.158 333.905C182.721 333.306 186.021 332.697 186.021 332.697V332.697Z" fill="#D2D3D5"/>
<path fill-rule="evenodd" clip-rule="evenodd" d="M206.409 320.109C206.409 320.109 194.323 324.234 185.498 324.138C191.732 328.551 193.939 330.181 193.939 330.181C193.939 330.181 201.133 325.385 206.409 320.109Z" fill="#FBC761"/>
<path fill-rule="evenodd" clip-rule="evenodd" d="M37.5342 388.927C37.5342 388.927 26.3598 404.468 21.6207 420.934C17.8233 395.98 18.7514 380.578 18.7514 380.578C18.7514 380.578 27.2426 389.384 37.5337 388.928L37.5342 388.927Z" fill="#FBC761"/>
<path fill-rule="evenodd" clip-rule="evenodd" d="M203.88 447.65L218.017 431.461L199.628 367.023C199.628 367.023 196.929 367.473 191.382 367.323C194.98 385.764 204.827 416.26 192.291 440.196C199.562 445.925 203.88 447.65 203.88 447.65H203.88Z" fill="#4B4B4D"/>
<path fill-rule="evenodd" clip-rule="evenodd" d="M205.804 445.447L218.017 431.461L199.628 367.023C199.628 367.023 198.356 367.236 195.764 367.32L210.72 432.942L205.804 445.447Z" fill="#BDBFC1"/>
<path fill-rule="evenodd" clip-rule="evenodd" d="M198.96 360.86C195.168 359.137 186.78 354.081 187.125 340.407C192.411 336.156 196.662 333.053 201.948 343.28C203.901 355.46 198.961 360.86 198.961 360.86H198.96Z" fill="#4B4B4D"/>
<path fill-rule="evenodd" clip-rule="evenodd" d="M198.961 360.859L198.888 360.826C202.424 353.712 197.211 342.37 193.936 336.459C196.523 336.11 199.084 337.736 201.948 343.279C203.901 355.459 198.961 360.859 198.961 360.859V360.859Z" fill="#BDBFC1"/>
<path fill-rule="evenodd" clip-rule="evenodd" d="M154.275 469.351C154.275 469.351 138.313 460.098 131.836 454.777C125.358 449.457 118.418 422.621 118.418 422.621C118.418 422.621 131.836 454.777 154.275 469.351Z" fill="#FEFEFE"/>
<path fill-rule="evenodd" clip-rule="evenodd" d="M124.702 476.899L122.769 490.236C122.769 490.236 133.491 496.306 138.373 495.592C139.525 488.273 140.02 484.967 140.234 483.475C132.775 481.558 127.387 479.325 124.702 476.898V476.899Z" fill="#4B4B4D"/>
<path fill-rule="evenodd" clip-rule="evenodd" d="M124.702 476.898L124.303 479.649C127.848 481.823 133.179 483.82 139.926 485.561C140.067 484.627 140.165 483.956 140.234 483.475C132.775 481.558 127.387 479.325 124.702 476.898H124.702Z" fill="#848688"/>
<path fill-rule="evenodd" clip-rule="evenodd" d="M171.58 488.496L170.053 503.951C170.053 503.951 153.865 502.471 145.672 498.029C146.127 492.115 146.667 487.485 146.984 485.012C154.025 486.433 162.343 487.617 171.58 488.496H171.58Z" fill="#4B4B4D"/>
<path fill-rule="evenodd" clip-rule="evenodd" d="M171.58 488.497L171.355 490.769C162.199 489.849 153.887 488.614 146.724 487.132C146.821 486.311 146.908 485.6 146.984 485.012C154.025 486.433 162.343 487.617 171.58 488.496L171.58 488.497Z" fill="#848688"/>
<path fill-rule="evenodd" clip-rule="evenodd" d="M235.697 489.36L236.038 501.28C236.038 501.28 246.596 500.145 249.774 496.399C249.32 490.495 249.093 489.133 249.093 489.133C249.093 489.133 240.125 490.949 235.697 489.36Z" fill="#4B4B4D"/>
<path fill-rule="evenodd" clip-rule="evenodd" d="M230.298 489.797C230.378 492.134 230.626 501.471 229.526 503.011C223.734 505.404 215.109 504.9 215.109 504.9L215.351 490.21C220.462 490.154 225.457 490.015 230.298 489.797L230.298 489.797Z" fill="#4B4B4D"/>
<path fill-rule="evenodd" clip-rule="evenodd" d="M230.297 489.797C230.314 490.304 230.34 491.14 230.357 492.154C225.478 492.386 220.451 492.535 215.31 492.594L215.35 490.21C220.461 490.154 225.456 490.015 230.297 489.797V489.797Z" fill="#848688"/>
<path d="M204.335 494.849L204.032 504.497L180.861 504.575L181.285 494.987L204.335 494.849V494.849ZM210.139 507.684L210.638 491.827V491.717C210.631 490.005 209.237 488.623 207.525 488.629L178.425 488.804C176.723 488.744 175.288 490.067 175.215 491.771L174.516 507.553V507.687C174.516 509.399 175.904 510.787 177.617 510.787L206.955 510.688C208.661 510.733 210.085 509.392 210.138 507.684H210.139Z" fill="#FEFEFE"/>
<path fill-rule="evenodd" clip-rule="evenodd" d="M89.7744 539.953C89.7744 539.953 108.968 564.976 149.915 549.763C117.516 551.048 102.068 545.213 89.7744 539.953Z" fill="#4B4B4D"/>
<path fill-rule="evenodd" clip-rule="evenodd" d="M245.13 536.469C245.13 536.469 245.742 540.955 240.831 544.651C232.261 551.1 213.202 558.383 188.702 549.759C220.551 551.384 234.693 543.597 245.13 536.469Z" fill="#4B4B4D"/>
<path fill-rule="evenodd" clip-rule="evenodd" d="M173.74 362.949C175.869 359.04 176.441 357.487 176.441 357.487C176.441 357.487 179.425 364.812 182.681 366.169C182.574 367.438 182.418 368.838 182.223 370.338C177.71 368.196 175.166 365.465 173.74 362.949ZM232.595 338.863C231.81 342.164 230.918 345.342 229.978 348.338C232.61 348.497 237.143 350.191 244.369 356.859C241.744 350.621 236.152 343.232 232.595 338.863H232.595ZM220.018 372.684L208.963 353.686C208.963 353.686 205.958 362.165 202.737 365.278C203.323 366.887 204.093 369.128 204.994 371.817C210.564 368.633 210.765 362.517 210.765 362.517L220.018 372.684H220.018Z" fill="#D2D3D5"/>
<path fill-rule="evenodd" clip-rule="evenodd" d="M247.05 455.301L239.03 456.132L246.452 457.914L247.05 455.301ZM232.075 456.854L216.82 458.435L228.749 461.249L242.969 459.468L232.075 456.854ZM209.764 459.165C204.171 459.745 200.027 460.172 199.371 460.238C197.065 460.469 195.636 461.352 200.056 462.149C201.089 462.335 203.996 462.983 207.845 463.866L222.117 462.079L209.765 459.165H209.764ZM214.389 465.38C218.166 466.26 222.257 467.222 226.139 468.138L239.56 466.194L228.581 463.604L214.389 465.38ZM244.822 465.04L245.638 461.468L235.214 462.773L244.821 465.04H244.822ZM232.261 469.586C238.529 471.07 243.187 472.182 243.187 472.182L244.176 467.859L232.26 469.586H232.261Z" fill="#FEFEFE"/>
<path fill-rule="evenodd" clip-rule="evenodd" d="M326.289 231.857C331.794 197.36 312.741 183.846 312.741 183.846C312.741 183.846 316.215 85.342 233.366 49.6784C248.18 37.6074 256.147 39.2204 253.41 36.1184C250.673 33.016 242.497 28.1749 215.73 29.0024C222.629 12.3071 223.262 6.11098 223.188 2.33971C223.114 -1.43111 220.231 -0.32199 215.868 3.37476C211.506 7.07152 157.16 33.3228 157.16 33.3228C40.7705 31.8122 -32.7289 149.446 14.5064 253.924C71.0696 367.488 305.976 333.924 326.288 231.856L326.289 231.857Z" fill="black"/>
<path fill-rule="evenodd" clip-rule="evenodd" d="M301.824 185.423C301.824 185.423 306.435 76.7676 211.314 53.4629C225.107 41.573 239.029 37.3756 239.029 37.3756C239.029 37.3756 222.677 35.2808 200.22 40.1009C206.921 25.7573 211.368 14.582 211.368 14.582C211.368 14.582 166.458 38.3476 158.454 40.8945C130.621 41.9863 80.434 48.427 45.302 99.1205C-51.3233 238.546 83.3252 366.755 258.445 295.438C323.595 264.613 332.565 210.286 301.824 185.423Z" fill="#FBC761"/>
<path fill-rule="evenodd" clip-rule="evenodd" d="M78.479 66.6289C67.0051 74.7018 55.2277 84.9234 45.3028 99.1188C-52.1395 238.489 83.3036 366.736 258.446 295.437C289.662 280.666 307.973 260.501 315.205 240.767C314.988 240.956 222.814 327.103 130.128 290.556C37.443 254.01 -1.12056 175.783 78.479 66.6289Z" fill="#E97F11"/>
<path fill-rule="evenodd" clip-rule="evenodd" d="M301.823 185.423C301.823 185.423 306.434 76.7676 211.313 53.4629C212.898 52.0968 214.484 50.8336 216.051 49.6646C212.238 51.7439 208.816 54.2693 206.892 57.2296C302.035 78.3723 297.099 185.955 297.099 185.955C297.099 185.955 316.737 201.447 314.487 222.66C311.363 260.145 277.659 284.546 275.769 285.888C324.95 254.385 329.592 207.884 301.823 185.424L301.823 185.423ZM228.309 41.984C234.621 38.7037 239.028 37.3756 239.028 37.3756C239.028 37.3756 223.283 35.359 201.476 39.8375C199.833 40.7263 198.049 41.6836 196.104 42.7187C207.686 41.0198 220.613 41.4601 228.309 41.984ZM209.693 18.6674C210.773 16.0747 211.367 14.582 211.367 14.582C211.367 14.582 166.457 38.3476 158.453 40.8945C130.62 41.9863 81.6299 47.9036 44.5609 97.1976C-20.9049 184.255 13.7054 308.206 138.498 315.859C97.169 309.093 53.5143 284.038 37.4408 254.011C-11.552 162.494 50.6894 51.5217 159.575 45.1742C185.005 36.7909 209.682 18.6752 209.693 18.6674H209.693Z" fill="#FEFEFE"/>
<path fill-rule="evenodd" clip-rule="evenodd" d="M219.957 186.887C232.221 187.95 245.012 208.701 255.95 213.542C266.887 218.383 292.51 218.214 297.049 226.873C301.587 235.532 299.28 245.196 288.339 248.943C280.166 251.013 267.438 249.398 267.438 249.398C225.937 284.597 143.164 285.051 110.938 240.464C98.2654 217.842 126.511 208.174 140.324 210.995C158.537 214.715 172.115 218.988 188.824 204.629C199.983 195.04 205.846 186.586 219.957 186.887H219.957Z" fill="black"/>
<path fill-rule="evenodd" clip-rule="evenodd" d="M262.827 240.088C262.827 240.088 282.181 243.221 288.28 241.207C294.378 239.193 293.923 228.985 283.809 226.391C273.695 223.797 267.342 224.804 267.342 224.804C267.342 224.804 250.386 220.823 239.852 207.466C229.318 194.11 220.951 190.873 212.366 194.035C203.782 197.196 191.343 215.264 178.498 218.38C165.653 221.496 147.449 218.942 133.752 216.933C120.055 214.923 107.33 227.884 121.629 243.25C135.928 258.616 165.356 267.038 181.905 268.879C203.272 271.256 244.154 262.345 260.216 247.34C217.847 254.57 191.229 274.946 146.632 245.123C134.501 237.011 134.567 234.63 134.567 234.63C134.567 234.63 128.819 233.146 124.307 235.741C127.12 228.171 133.594 226.92 142.138 228.574C150.682 230.229 156.229 229.72 156.229 229.72C156.229 229.72 152.088 232.779 147.746 233.844C143.404 234.909 147.976 239.36 153.446 242.08C158.915 244.801 177.317 255.144 203.476 252.392C229.637 249.639 246.447 240.568 262.825 240.089L262.827 240.088Z" fill="#FC7A02"/>
<path fill-rule="evenodd" clip-rule="evenodd" d="M262.826 240.092C262.826 240.092 282.18 243.224 288.279 241.21C289.649 240.758 290.688 239.89 291.361 238.788C281.846 236.023 268.335 233.354 256.624 235.747C235.947 239.972 218.319 247.061 196.649 246.965C174.979 246.87 152.167 232.161 152.167 232.161H152.167C150.841 232.824 149.306 233.464 147.746 233.848C143.403 234.913 147.976 239.363 153.446 242.084C158.915 244.804 177.317 255.148 203.476 252.395C229.637 249.642 246.447 240.572 262.825 240.092L262.826 240.092ZM116.749 224.344C114.145 229.21 114.842 235.96 121.628 243.254C154.977 279.09 222.735 274.678 260.216 247.344C216.366 266.186 173.874 276.008 128.073 243.197C119.38 236.97 117.091 229.596 116.749 224.344H116.749Z" fill="#BE4D13"/>
<path fill-rule="evenodd" clip-rule="evenodd" d="M292.143 234.125C291.568 230.963 288.924 227.703 283.808 226.391C273.694 223.797 267.341 224.804 267.341 224.804C267.341 224.804 250.385 220.823 239.851 207.466C229.317 194.11 220.951 190.873 212.366 194.035C207.478 195.835 201.341 202.467 194.591 208.42C198.107 206.639 201.924 204.317 205.475 201.352C216.184 192.407 226.15 196.472 237.413 210.396C248.676 224.321 263.291 226.341 263.291 226.341C263.291 226.341 261.125 227.403 252.338 231.08C273.321 225.701 285.342 229.198 292.142 234.125L292.143 234.125Z" fill="#FEFEFE"/>
<path d="M201.652 217.839C199.804 216.214 200.299 212.63 202.758 209.833C205.216 207.037 208.708 206.088 210.557 207.713C212.405 209.339 211.91 212.923 209.451 215.719C206.992 218.516 203.501 219.465 201.652 217.839Z" fill="black"/>
<path fill-rule="evenodd" clip-rule="evenodd" d="M157.782 113.996C135.211 113.996 115.878 138.33 115.878 166.319C115.878 194.307 136.043 211.281 159.255 211.281C223.982 211.281 197.521 114.381 157.783 113.997L157.782 113.996Z" fill="#201E1E"/>
<path fill-rule="evenodd" clip-rule="evenodd" d="M158.509 123.059C139.663 123.059 123.521 144.595 123.521 169.365C123.521 194.135 140.358 209.156 159.738 209.156C179.118 209.156 192.035 201.459 192.035 169.034C192.035 141.443 168.997 123.166 158.509 123.059L158.509 123.059Z" fill="#E6E7E8"/>
<path fill-rule="evenodd" clip-rule="evenodd" d="M143.267 205.186C148.263 207.783 153.884 209.155 159.738 209.155C179.118 209.155 192.035 201.457 192.035 169.033C192.035 159.45 189.255 150.993 185.188 144.028C177.888 134.166 168.183 128.415 162.407 128.355C144.152 128.355 128.516 149.216 128.516 173.208C128.516 187.674 134.445 198.704 143.267 205.186L143.267 205.186Z" fill="#FEFEFE"/>
<path fill-rule="evenodd" clip-rule="evenodd" d="M259.861 116.066C274.858 116.066 287.703 139.864 287.703 167.235C287.703 194.606 274.305 211.205 258.883 211.205C215.876 211.205 233.458 116.443 259.861 116.066Z" fill="#201E1E"/>
<path fill-rule="evenodd" clip-rule="evenodd" d="M259.38 124.926C271.902 124.926 282.627 145.987 282.627 170.21C282.627 194.433 271.44 209.124 258.563 209.124C245.686 209.124 237.104 201.596 237.104 169.887C237.104 142.904 252.411 125.031 259.38 124.926Z" fill="#FEFEFE"/>
<path fill-rule="evenodd" clip-rule="evenodd" d="M259.38 124.926C265.993 124.926 272.105 130.803 276.4 139.915C272.401 133.617 267.378 129.766 262.026 129.766C255.058 129.871 239.75 147.745 239.75 174.727C239.75 187.458 241.134 196.289 243.625 202.302C239.487 196.585 237.104 186.593 237.104 169.887C237.104 142.904 252.411 125.031 259.38 124.926V124.926Z" fill="#E6E7E8"/>
<path d="M164.708 205.519C151.476 205.519 140.749 189.999 140.749 170.855C140.749 151.711 151.476 136.191 164.708 136.191C177.939 136.191 188.666 151.711 188.666 170.855C188.666 189.999 177.939 205.519 164.708 205.519Z" fill="black"/>
<path fill-rule="evenodd" clip-rule="evenodd" d="M143.089 185.816C146.949 197.471 155.179 205.52 164.708 205.52C172.488 205.52 179.402 200.152 183.778 191.837C182.859 187.626 175.977 172.311 174.33 175.906C170.206 186.85 166.534 188.798 160.843 184.694C156.375 181.471 159.291 173.028 158.059 173.094C151.058 173.47 144.25 184.076 143.09 185.816H143.089Z" fill="#373435"/>
<path d="M164.929 199.14C154.85 199.14 146.68 186.476 146.68 170.855C146.68 155.234 154.85 142.57 164.929 142.57C175.007 142.57 183.178 155.234 183.178 170.855C183.178 186.476 175.007 199.14 164.929 199.14Z" fill="black"/>
<path d="M176.403 160.074C171.61 160.074 167.726 156.153 167.726 151.316C167.726 146.48 171.61 142.559 176.403 142.559C181.195 142.559 185.08 146.48 185.08 151.316C185.08 156.153 181.195 160.074 176.403 160.074Z" fill="#FEFEFE"/>
<path fill-rule="evenodd" clip-rule="evenodd" d="M211.314 53.4629C225.106 41.573 239.029 37.3756 239.029 37.3756L238.993 37.3711C228.114 40.2303 203.372 47.3595 188.269 56.6064C205.234 55.7986 248.049 80.0337 248.049 80.0337C243.598 72.1094 225.426 55.8717 211.314 53.4633V53.4629ZM200.623 39.2341C207.099 25.3097 211.368 14.582 211.368 14.582C211.368 14.582 209.657 15.4872 206.851 16.9594L188.269 44.4889L200.623 39.2341Z" fill="#E97F11"/>
<path fill-rule="evenodd" clip-rule="evenodd" d="M167.072 94.4761C167.072 94.4761 145.222 87.8841 120.899 111.605C135.264 77.7955 163.348 86.2844 167.072 94.4761Z" fill="black"/>
<path fill-rule="evenodd" clip-rule="evenodd" d="M236.444 95.2669C236.444 95.2669 261.198 91.5537 274.812 109.5C258.413 80.4145 239.538 88.4595 236.444 95.2669Z" fill="black"/>
<path d="M255.998 203.9C245.971 203.9 237.842 190.159 237.842 173.208C237.842 156.257 245.971 142.516 255.998 142.516C266.026 142.516 274.154 156.257 274.154 173.208C274.154 190.159 266.026 203.9 255.998 203.9Z" fill="black"/>
<path fill-rule="evenodd" clip-rule="evenodd" d="M239.617 186.452C242.541 196.772 248.778 203.899 255.999 203.899C261.896 203.899 267.134 199.146 270.451 191.783C269.754 188.055 264.539 174.495 263.291 177.677C260.166 187.368 257.383 189.092 253.071 185.459C249.685 182.606 251.894 175.13 250.961 175.188C245.656 175.521 240.497 184.911 239.617 186.452H239.617Z" fill="#373435"/>
<path d="M256.167 198.642C248.394 198.642 242.094 187.788 242.094 174.399C242.094 161.01 248.394 150.156 256.167 150.156C263.939 150.156 270.24 161.01 270.24 174.399C270.24 187.788 263.939 198.642 256.167 198.642Z" fill="black"/>
<path d="M264.862 163.661C261.23 163.661 258.286 160.189 258.286 155.907C258.286 151.624 261.23 148.152 264.862 148.152C268.493 148.152 271.438 151.624 271.438 155.907C271.438 160.189 268.493 163.661 264.862 163.661Z" fill="#FEFEFE"/>
<path fill-rule="evenodd" clip-rule="evenodd" d="M30.8877 399.583C27.6088 405.431 23.8823 413.077 21.6211 420.934C17.8238 395.98 18.7519 380.578 18.7519 380.578C18.7519 380.578 18.9718 380.806 19.3823 381.186C20.0594 389.733 24.66 396.828 30.8877 399.584V399.583Z" fill="#E97F11"/>
</svg>
