<?xml version="1.0" encoding="UTF-8"?>
<!DOCTYPE svg PUBLIC "-//W3C//DTD SVG 1.1//EN" "http://www.w3.org/Graphics/SVG/1.1/DTD/svg11.dtd">
<!-- Creator: CorelDRAW -->
<svg xmlns="http://www.w3.org/2000/svg" xml:space="preserve" width="109.215mm" height="170.508mm" version="1.1" style="shape-rendering:geometricPrecision; text-rendering:geometricPrecision; image-rendering:optimizeQuality; fill-rule:evenodd; clip-rule:evenodd"
viewBox="0 0 9028.86 14095.99"
 xmlns:xlink="http://www.w3.org/1999/xlink"
 xmlns:xodm="http://www.corel.com/coreldraw/odm/2003">
 <defs>
  <style type="text/css">
   <![CDATA[
    .fil3 {fill:#FEFEFE}
    .fil18 {fill:#E6E7E8}
    .fil17 {fill:#E6E7E8}
    .fil6 {fill:#D2D3D5}
    .fil9 {fill:#BDBFC1}
    .fil10 {fill:#848688}
    .fil12 {fill:#4B4B4D}
    .fil8 {fill:#4B4B4D}
    .fil19 {fill:#373435}
    .fil16 {fill:#201E1E}
    .fil0 {fill:black}
    .fil13 {fill:black}
    .fil15 {fill:#BE4D13}
    .fil5 {fill:#C24C1A}
    .fil2 {fill:#E97F11}
    .fil20 {fill:#E97F11}
    .fil4 {fill:#F37F10}
    .fil1 {fill:#FBC761}
    .fil7 {fill:#FBC761}
    .fil14 {fill:#FC7A02}
    .fil11 {fill:#FEFEFE;fill-rule:nonzero}
   ]]>
  </style>
 </defs>
 <g id="Camada_x0020_1">
  <metadata id="CorelCorpID_0Corel-Layer"/>
  <path class="fil0" d="M581.78 10043.08c0,0 -524.97,-2046.34 -569.36,-2236.03 -44.39,-189.69 28.26,-314.8 250.24,-318.84 221.97,-4.04 2420.69,105.2 2553.73,115.64 133.04,10.43 282.58,94.43 333.58,355.43 270,-384.01 754.54,-837.85 754.54,-837.85l-7.91 -566.27c0,0 2345.81,-53.39 3158.48,664.38 812.68,717.76 996.57,1085.54 996.57,1085.54 0,0 360.43,123.2 664.77,-433.9 108.32,840.8 306.1,2228.99 -1480.9,3577.89 57.65,472.69 -11.3,538.32 -145.1,611.3 51.7,167.26 105.5,420.12 176.9,462.43 71.39,42.31 1172.69,466.15 1450.51,579.93 277.83,113.78 269.89,309.58 100.54,396.89 -169.34,87.32 -451.81,149.96 -451.81,149.96 0,0 30.6,237.51 -196.73,279.39 -227.34,41.87 -508.52,8.97 -807.64,59.82 -299.13,50.85 -509.22,192.94 -768.55,34.17 -259.33,-158.77 -868.26,-454.51 -905.31,-761.48 -37.05,-306.97 258.68,-450.22 246.78,-564.55 -11.9,-114.32 -47.63,-409.63 -47.63,-409.63 0,0 -340.85,-45.28 -352.55,-389.44 -306.7,-58.53 -454.19,-65.55 -454.19,-65.55 0,0 -5.7,214.9 -35.83,294.33 -30.13,79.43 -216.39,153.39 -216.39,153.39 0,0 -58.34,414.49 -52.97,465.64 5.38,51.16 252.47,303.29 244.53,501.8 -7.94,198.51 -230.2,263.69 -469.59,449.88 -239.39,186.2 -402.63,382.24 -675.28,392.21 -272.65,9.98 -656.97,-147.51 -866.14,-140.97 -209.18,6.54 -500.07,81.71 -617.73,-111.13 -117.67,-192.84 -228.8,-183.04 -424.9,-277.82 -196.1,-94.77 -178.47,-258.12 -28.12,-322.02 150.35,-63.9 760.27,-208.83 1140.67,-351.47 380.41,-142.66 463.83,-166.96 513.26,-259.38 49.43,-92.42 131.7,-521.63 131.7,-521.63 0,0 -170.12,-78.02 -193.76,-222.04 -23.64,-144.02 -2.48,-402.97 -2.48,-402.97l-212.67 -595.01c0,0 -567.6,383.32 -1364.56,168.09 -796.96,-215.24 -833.41,-776.21 -833.41,-776.21 -261.56,-22.64 -480.52,7.54 -535.29,-233.92z"/>
  <path class="fil1" d="M3295.41 10653.2l-871.79 -108.41c0,0 45.84,-446.26 -239.3,-464.08 -109.89,-2.98 -103.96,294.04 -103.96,294.04 0,0 8.91,-395.03 -163.36,-448.5 -172.27,-53.46 -207.92,154.45 -193.06,347.51 -89.11,-427.7 -317.81,-445.53 -368.31,-225.73 -50.5,219.79 81.21,740.52 733.78,864.08 652.58,123.57 1077.32,-150.59 1205.99,-258.92z"/>
  <path class="fil2" d="M3295.41 10653.2l-392.29 -48.78c-647.81,356.71 -1218.88,119.35 -1482.17,-156.45 97.19,197.57 299.6,394.31 668.47,464.15 652.58,123.57 1077.32,-150.59 1205.99,-258.92z"/>
  <path class="fil3" d="M2323.8 10140.75c-34.2,-33.52 -79.49,-56.28 -139.47,-60.04 -92.83,-2.51 -103.01,209.06 -103.93,274.8 23.07,-222.52 145.24,-239.47 243.41,-214.76zm-243.41 214.77c-0.86,-79.74 -14,-382.9 -163.38,-429.26 -136.57,-42.39 -187.27,79.51 -195.01,228.05 26.4,-276.37 314.02,-153.99 358.39,201.23l0 -0.02zm-456.72 -347.71c-102.58,-153.16 -231.62,-118.24 -268.03,40.24 -23.21,101.03 -7.86,265.65 78.82,426.06 -38.09,-108.73 -62.55,-225.67 -46.49,-326.66 30.09,-189.36 146.67,-205.18 235.7,-139.64z"/>
  <path class="fil4" d="M2096.52 13329.89c0,0 1325.76,-397.54 1539.33,-530.66 85.98,-63.8 130.44,-130.97 152.71,-242.3 22.27,-111.32 72.35,-363.64 72.35,-363.64 0,0 232.99,194.16 793.28,147 -52.7,410.51 -77.67,427.15 -44.39,468.76 33.28,41.61 315.94,368.94 231.28,475.55 -84.66,106.61 -304.16,232.03 -570.68,410.77 -266.53,178.73 -272.8,288.48 -696.11,194.41 -423.31,-94.07 -612.55,-63.32 -853.99,-60.19 -241.45,3.13 -332.39,-103.48 -260.26,-254 -357.47,-87.79 -457.02,-81.83 -465.3,-157.69 -4.13,-37.24 44.14,-66.2 101.78,-88.01z"/>
  <path class="fil5" d="M3838.12 12308l22.78 -114.71c0,0 232.99,194.16 793.28,147 -52.7,410.51 -77.67,427.15 -44.39,468.76 33.28,41.61 315.94,368.94 231.28,475.55 -84.66,106.61 -304.16,232.03 -570.68,410.77 -266.53,178.73 -272.8,288.48 -696.11,194.41 -423.31,-94.07 -612.55,-63.32 -853.99,-60.19 -188.96,2.46 -285.73,-62.32 -284.3,-162.75 0.4,0.27 147.12,102.44 398.53,39.58 251.73,-62.94 314.67,-94.41 652.94,-11.81 338.27,82.6 468.06,55.07 715.87,-184.87 247.81,-239.94 396.94,-333.15 341.27,-559.33 -55.67,-226.18 -17.39,-504.55 -17.39,-504.55 0,0 -350.03,54.74 -689.09,-137.87zm-1385.09 1283.36c2.13,-5.2 4.46,-10.46 7,-15.77 -357.47,-87.79 -457.02,-81.83 -465.3,-157.69 -3.63,-32.72 33.18,-59.04 81.27,-79.74 98.54,54.84 257.87,100.49 514.64,112.59 -51.02,33.47 -97.45,84.79 -137.61,140.61z"/>
  <path class="fil3" d="M2096.52 13329.89c0,0 1325.76,-397.54 1539.33,-530.66 85.98,-63.8 130.44,-130.97 152.71,-242.3 22.27,-111.32 72.35,-363.64 72.35,-363.64 0,0 28.4,23.63 89.09,52.4 -9.57,141.28 -45.34,387.29 -175.01,557.91 -191.63,252.15 -1071.04,464.05 -1476.77,551.95 -108.87,23.59 -198.25,64.24 -270.78,111.06 -20.72,-12.33 -30.36,-27.25 -32.71,-48.7 -4.13,-37.24 44.14,-66.2 101.78,-88.01z"/>
  <path class="fil4" d="M6669.52 13861.57c0,0 -643.64,-364.41 -771.32,-521.29 -127.68,-156.88 -29.17,-229.84 229.84,-572.77 -14.59,-280.92 -46.15,-410 -46.15,-410 0,0 469.45,73.53 855.55,-163 83.47,316.54 163.48,452.19 264.36,500.89 100.87,48.7 1263.18,456.44 1404.35,520.3 141.16,63.86 174.77,141.17 -16.82,198.3 -191.57,57.14 -332.75,94.11 -383.16,161.33 60.5,174.77 -20.16,231.92 -245.36,218.47 -225.19,-13.45 -442.51,-35.49 -658.97,26.35 -216.46,61.84 -397.07,155.29 -632.32,41.42z"/>
  <path class="fil3" d="M6816.36 12257.97c40.84,-18.17 81.4,-39.16 121.08,-63.47 83.47,316.54 163.48,452.19 264.36,500.89 100.87,48.7 1263.18,456.44 1404.35,520.3 124.11,56.15 165.04,122.69 42.92,176.77 -281.79,-192.42 -1098.79,-390.48 -1482.5,-541.22 -311.92,-122.54 -351.76,-432.66 -350.21,-593.29z"/>
  <path class="fil5" d="M6669.52 13861.57c0,0 -643.64,-364.41 -771.32,-521.29 -127.68,-156.88 -29.17,-229.84 229.84,-572.77 -14.59,-280.92 -46.15,-410 -46.15,-410 0,0 469.45,73.53 855.55,-163 11.15,42.29 22.24,81.3 33.32,117.35 -212.32,105.83 -473.27,194.92 -714.79,164.47 17.78,262.29 -160.03,542.35 -93.35,680.16 66.67,137.81 473.21,612.86 746.8,563.46 273.59,-49.4 417.99,-171 657.39,-140.6 239.39,30.4 508.31,169.36 553.93,-15.32 -71.7,-108.63 -63.01,-154.25 4.35,-193.36 53.07,-30.82 385.54,-103.61 524.19,-133.1 102.73,59.02 110.22,125.69 -59.94,176.44 -191.57,57.14 -332.75,94.11 -383.16,161.33 60.5,174.77 -20.16,231.92 -245.36,218.47 -225.19,-13.45 -442.51,-35.49 -658.97,26.35 -216.46,61.84 -397.07,155.29 -632.32,41.42z"/>
  <path class="fil3" d="M229.34 7573.85c0,0 2339.23,106.74 2510.72,128.17 171.5,21.43 241.43,67.25 302.51,324.85 61.08,257.61 528.09,2136.5 563.15,2282.58 35.06,146.09 118.81,101.3 245.42,74.01 126.62,-27.27 899.3,-251.57 983.26,-281.04 83.96,-29.46 -30.93,-54.5 -30.93,-54.5l-1204.3 -154.66 -29.46 -141.42c0,0 1664.6,230.72 1777.52,247.9 112.92,17.19 80.8,68.49 9.78,81.41 -71.03,12.92 -1386.25,395.01 -1525.86,430.72 -139.6,35.72 -266.22,-9.73 -311.68,-178.55 -45.45,-168.83 -520.38,-2088.73 -561.16,-2273.83 -40.78,-185.09 -116.08,-269.8 -288.63,-276.07 -172.54,-6.27 -2370.93,-107.36 -2468.08,-118.4 -97.14,-11.04 -57.4,-94.93 27.74,-91.19z"/>
  <ellipse class="fil3" transform="matrix(0.702809 -0 0.201906 0.823547 1675.77 9016.3)" rx="369.41" ry="431.78"/>
  <path class="fil1" d="M7132.4 11213.1l-25.72 -37.54 -626.99 -915.06c0,0 135.46,-673.87 462.98,-853.33 327.53,-179.47 1167,350.12 1107.67,884.14 -261.08,539.96 -700.17,848.51 -917.94,921.8z"/>
  <path class="fil2" d="M7132.4 11213.1l-25.72 -37.54 -193.56 -282.5c270.9,-158.01 679.17,-493.04 911.12,-1150.82 149.44,159.55 247.78,353.99 226.1,549.06 -261.08,539.96 -700.17,848.51 -917.94,921.8z"/>
  <path class="fil3" d="M7132.4 11213.1l-25.72 -37.54 -7.25 -10.57c272.48,-161.52 676.13,-499.41 904.32,-1156.21 38.97,91.33 57.22,186.85 46.59,282.53 -261.08,539.96 -700.17,848.51 -917.94,921.8z"/>
  <path class="fil3" d="M8204.79 10162.23c0,0 -267.7,-1086.55 -1307.01,-902.84 141.73,-383.18 377.94,-535.39 897.59,-440.92 519.65,94.48 682.38,608.89 645.63,792.6 -36.75,183.71 -236.21,551.15 -236.21,551.15z"/>
  <path class="fil6" d="M6927.35 9186.09c29.92,-67.95 63.81,-127.28 103.05,-177.87 84.39,-6.85 260.5,-6.94 404.7,86.9 -147.2,-72.04 -385.24,12.52 -385.24,12.52 0,0 371.54,-70.68 687.41,247.95 -297.13,-204 -650.51,-200.5 -809.91,-169.5zm123.83 -203.27c49.08,-56.78 106.09,-101.08 173.34,-132.71 139.9,-33.57 318.31,-43.91 502.15,31.21 -231.07,-63.82 -538.84,44.66 -675.49,101.5z"/>
  <path class="fil6" d="M8204.79 10162.23c0,0 -39.23,-158.89 -145.67,-344.84 -7.51,-79.2 -41.27,-249.31 -186.33,-458.28 198.46,171.07 294.26,335.3 294.26,335.3 0,0 -33.92,-225.83 -251.11,-475.75 282.65,101.16 389.76,351.08 389.76,351.08 0,0 -82.27,-356.01 -318.36,-609.22 165.45,81.98 284.78,171.75 365.67,266.2 80.24,149.46 104.67,300.98 87.99,384.37 -36.75,183.71 -236.21,551.15 -236.21,551.15z"/>
  <path class="fil3" d="M8330.36 9053.7c0,0 -606.88,-1062.62 -1398.45,-1615.37 -143.3,20.48 -280.94,198.77 -325.05,419.31 40.72,-386.77 223.92,-481.77 223.92,-481.77l-227.32 -149.29c0,0 -769.28,670.02 -1178.73,1037.93 -213.64,-332.3 -255.17,-445.06 -255.17,-445.06 0,0 -65.28,160.22 -136.49,189.89 35.61,421.33 307.88,1481.01 307.88,1481.01l-323.89 339.02c0,0 492.53,87.55 557.45,96.4 64.91,8.85 73.76,53.11 76.71,118.02 2.94,64.91 14.75,141.62 -59.01,174.08 -73.76,32.45 -923.49,277.52 -923.49,277.52 803.2,122.2 1653.74,-393.45 1728.04,-542.04 151.26,-302.52 294.01,-611.02 437.24,-917.59 -188.42,-235.67 -279.55,-566.8 -281.41,-573.63 -28.9,-160.87 11.99,-365.35 11.99,-365.35 0,0 -115.6,427.17 409.93,747.42 369.5,-197.08 979.24,-207.78 1355.86,209.51z"/>
  <path class="fil6" d="M5158.69 9854.43c150.84,26.6 373.61,65.57 415.8,71.34 64.91,8.85 73.76,53.11 76.71,118.02 2.94,64.91 14.75,141.62 -59.01,174.08 -73.76,32.45 -923.49,277.52 -923.49,277.52 803.21,122.2 1653.74,-393.45 1728.04,-542.04 146.36,-292.73 437.24,-917.59 437.24,-917.59 0,0 -80.31,-114.39 -166.87,-273.79 -154.85,234.44 -705.49,1000.38 -1508.42,1092.47z"/>
  <path class="fil6" d="M7695.99 8161.04c-217.53,-258.06 -478.79,-523.49 -764.09,-722.71 -78.31,11.19 -154.91,69.51 -215.5,156.08 283.62,108.15 611.67,285.33 979.59,566.62zm-1021.1 -581.97c67.62,-157.38 155.88,-203.2 155.88,-203.2l-227.32 -149.29c0,0 -118.68,103.36 -287.59,251.16 109.81,21.71 229.61,54.31 359.03,101.33z"/>
  <path class="fil6" d="M8330.36 9053.7c0,0 -37.87,-66.33 -107.04,-174.43 -282.68,-255.6 -755.59,-384.7 -1091.74,-260.69 145.16,-184.77 171.55,-215.56 26.39,-149.58 -145.16,65.99 -573.12,83.02 -603.3,-299.37l0 0.02c2.66,45.49 4.29,84.63 5.56,118.87 22.41,153.24 112.92,372.01 414.27,555.65 369.5,-197.08 979.24,-207.78 1355.86,209.51z"/>
  <path class="fil3" d="M4307.82 9718.2l-756.92 -114.25c0,0 -147.86,-698.18 55.19,-1637.85 -179.44,439.15 -273.87,826.34 -273.87,826.34l-127.49 -547.74c0,0 336.66,-634.39 716.79,-922.2 92.31,456.14 294.85,829.34 294.85,829.34l241.82 -415.54c0,0 65.73,185.46 136.17,253.55 -103.31,284.06 -470.57,1466.81 -470.57,1466.81l184.04 261.54z"/>
  <path class="fil6" d="M4307.82 9718.2l-756.92 -114.25c0,0 -118.12,-557.99 1.87,-1347.63 24.35,340.88 269.75,808.05 586.32,1151.13l-15.31 49.21 184.04 261.54z"/>
  <path class="fil3" d="M4237.87 7870.48c0,0 216.5,-414.34 421.8,-604.7 -388.2,-246.36 -444.2,-298.62 -444.2,-298.62l-149.31 -37.33c0,0 -97.05,403.13 171.71,940.65z"/>
  <path class="fil6" d="M4601.53 7325.03c19.35,-21.39 38.81,-41.32 58.15,-59.26 -388.2,-246.36 -444.2,-298.62 -444.2,-298.62l-149.31 -37.33c0,0 -11.38,47.34 -15.55,131.16 13.43,9.51 27.34,19.24 41.68,29.1 110.59,61.15 282.93,153.21 509.23,234.95z"/>
  <path class="fil3" d="M4960 7277.2l214.23 -159.06c0,0 570.29,86.61 1302.65,-9.9 -454.18,397.41 -996.06,883.88 -996.06,883.88 0,0 -191.94,-285.09 -520.82,-714.93z"/>
  <path class="fil6" d="M4960 7277.2l214.23 -159.06c0,0 570.29,86.61 1302.65,-9.9 -61.43,53.75 -124.48,109.14 -187.57,164.74 -453.92,81.06 -887.67,56.97 -1130.17,31.21l-5.7 -1.22 0.42 0.64c-121.69,-13.09 -193.86,-26.42 -193.86,-26.42z"/>
  <path class="fil7" d="M4514.03 7001.86c0,0 264.37,90.22 457.4,88.12 -136.37,96.52 -184.64,132.19 -184.64,132.19 0,0 -157.36,-104.91 -272.76,-220.31z"/>
  <path class="fil1" d="M8207.88 8507.12c0,0 244.42,339.92 348.08,700.1 83.06,-545.84 62.76,-882.72 62.76,-882.72 0,0 -185.73,192.61 -410.83,182.63z"/>
  <path class="fil8" d="M4569.36 9791.53l-309.21 -354.1 402.22 -1409.46c0,0 59.03,9.84 180.36,6.56 -78.7,403.36 -294.09,1070.41 -19.87,1593.96 -159.05,125.31 -253.49,163.04 -253.49,163.04z"/>
  <path class="fil9" d="M4527.28 9743.34l-267.13 -305.91 402.22 -1409.46c0,0 27.82,4.64 84.51,6.48l-327.12 1435.38 107.52 273.51z"/>
  <path class="fil8" d="M4676.96 7893.16c82.94,-37.69 266.42,-148.29 258.87,-447.37 -115.61,-92.99 -208.61,-160.85 -324.23,62.84 -42.72,266.41 65.35,384.53 65.35,384.53z"/>
  <path class="fil9" d="M4676.96 7893.16l1.6 -0.73c-77.36,-155.6 36.67,-403.7 108.31,-532.98 -56.58,-7.64 -112.6,27.93 -175.26,149.17 -42.72,266.41 65.35,384.53 65.35,384.53z"/>
  <path class="fil3" d="M5654.36 10266.21c0,0 349.15,-202.4 490.83,-318.78 141.68,-116.38 293.49,-703.36 293.49,-703.36 0,0 -293.49,703.36 -784.32,1022.14z"/>
  <path class="fil8" d="M6301.24 10431.36l42.29 291.72c0,0 -234.53,132.78 -341.31,117.15 -25.2,-160.09 -36.04,-232.4 -40.72,-265.03 163.15,-41.93 281.01,-90.77 339.74,-143.85z"/>
  <path class="fil10" d="M6301.24 10431.36l8.72 60.17c-77.55,47.54 -194.15,91.22 -341.73,129.32 -3.08,-20.43 -5.22,-35.11 -6.74,-45.64 163.15,-41.93 281.01,-90.77 339.74,-143.85z"/>
  <path class="fil8" d="M5275.87 10685.03l33.39 338.05c0,0 354.09,-32.39 533.29,-129.55 -9.95,-129.35 -21.76,-230.62 -28.69,-284.72 -154.01,31.08 -335.95,56.98 -538,76.22z"/>
  <path class="fil10" d="M5275.87 10685.03l4.91 49.69c200.28,-20.12 382.09,-47.12 538.77,-79.54 -2.12,-17.96 -4.04,-33.51 -5.69,-46.38 -154.01,31.08 -335.95,56.98 -538,76.22z"/>
  <path class="fil8" d="M3873.41 10703.94l-7.45 260.72c0,0 -230.93,-24.82 -300.46,-106.76 9.94,-129.13 14.9,-158.93 14.9,-158.93 0,0 196.17,39.73 293.01,4.97z"/>
  <path class="fil8" d="M3991.52 10713.42c-1.76,51.11 -7.18,255.35 16.87,289.03 126.69,52.33 315.36,41.31 315.36,41.31l-5.29 -321.31c-111.8,-1.22 -221.07,-4.27 -326.95,-9.04z"/>
  <path class="fil10" d="M3991.52 10713.42c-0.38,11.09 -0.93,29.37 -1.32,51.55 106.73,5.08 216.69,8.33 329.13,9.62l-0.86 -52.14c-111.8,-1.22 -221.07,-4.27 -326.95,-9.04z"/>
  <path class="fil11" d="M4559.39 10823.98l6.64 211.02 506.82 1.72 -9.28 -209.72 -504.18 -3.03zm-126.94 280.74l-10.91 -346.85 0 -2.4c0.15,-37.45 30.63,-67.69 68.09,-67.55l636.51 3.83c37.23,-1.32 68.62,27.63 70.22,64.9l15.28 345.2 0 2.93c0,37.45 -30.37,67.81 -67.82,67.81l-641.73 -2.17c-37.31,0.98 -68.46,-28.35 -69.63,-65.7z"/>
  <path class="fil12" d="M7065.22 11810.49c0,0 -419.82,547.34 -1315.47,214.58 708.68,28.11 1046.58,-99.53 1315.47,-214.58z"/>
  <path class="fil12" d="M3667.08 11734.36c0,0 -13.38,98.12 94.04,178.97 187.45,141.07 604.33,300.37 1140.23,111.73 -696.64,35.55 -1005.97,-134.79 -1234.27,-290.7z"/>
  <path class="fil6" d="M5228.61 7938.91c-46.57,-85.51 -59.07,-119.46 -59.07,-119.46 0,0 -65.28,160.22 -136.49,189.89 2.35,27.77 5.75,58.38 10.01,91.2 98.72,-46.85 154.37,-106.6 185.55,-161.63zm-1287.35 -526.83c17.17,72.2 36.7,141.7 57.26,207.24 -57.57,3.48 -156.74,40.53 -314.79,186.38 57.41,-136.44 179.73,-298.06 257.54,-393.62zm275.1 739.76l241.82 -415.54c0,0 65.73,185.46 136.17,253.55 -12.81,35.19 -29.66,84.21 -49.35,143.04 -121.84,-69.64 -126.24,-203.42 -126.24,-203.42l-202.39 222.37z"/>
  <path class="fil3" d="M3625.1 9958.88l175.42 18.19 -162.34 38.96 -13.08 -57.15zm327.55 33.97l333.67 34.58 -260.93 61.55 -311.03 -38.94 238.29 -57.19zm488.01 50.56c122.33,12.67 212.99,22.03 227.34,23.47 50.44,5.04 81.68,24.35 -14.99,41.79 -22.59,4.08 -86.18,18.24 -170.37,37.55l-312.17 -39.08 270.18 -63.73zm-101.17 135.94c-82.6,19.25 -172.1,40.29 -257,60.32l-293.56 -42.53 240.14 -56.65 310.42 38.86zm-665.65 -7.45l-17.87 -78.12 228.01 28.54 -210.13 49.58zm274.75 99.44c-137.11,32.47 -239,56.79 -239,56.79l-21.63 -94.56 260.64 37.77z"/>
  <path class="fil0" d="M1891.87 5071.47c-120.41,-754.56 296.32,-1050.16 296.32,-1050.16 0,0 -75.98,-2154.6 1736.21,-2934.68 -324.04,-264.03 -498.31,-228.75 -438.44,-296.6 59.87,-67.86 238.7,-173.75 824.19,-155.65 -150.91,-365.18 -164.76,-500.71 -163.14,-583.2 1.62,-82.48 64.69,-58.22 160.11,22.64 95.42,80.86 1284.15,655.06 1284.15,655.06 2545.81,-33.04 4153.48,2539.99 3120.29,4825.27 -1237.22,2484.02 -6375.39,1749.86 -6819.68,-482.7z"/>
  <path class="fil1" d="M2427 4055.81c0,0 -100.85,-2376.65 1979.75,-2886.4 -301.69,-260.07 -606.22,-351.88 -606.22,-351.88 0,0 357.68,-45.82 848.88,59.61 -146.58,-313.74 -243.85,-558.18 -243.85,-558.18 0,0 982.33,519.83 1157.4,575.54 608.8,23.88 1706.56,164.76 2475.01,1273.59 2113.51,3049.68 -831.69,5854.04 -4662.14,4294.11 -1425.03,-674.26 -1621.24,-1862.55 -948.83,-2406.39z"/>
  <path class="fil2" d="M7312.3 1457.42c250.97,176.58 508.58,400.16 725.67,710.66 2131.38,3048.48 -831.2,5853.65 -4662.14,4294.11 -682.8,-323.08 -1083.31,-764.15 -1241.5,-1195.81 4.74,4.13 2020.89,1888.45 4048.23,1089.06 2027.33,-799.39 2870.84,-2510.46 1129.74,-4898.02z"/>
  <path class="fil3" d="M2427 4055.81c0,0 -100.85,-2376.65 1979.75,-2886.4 -34.66,-29.88 -69.37,-57.51 -103.64,-83.08 83.41,45.48 158.25,100.72 200.34,165.47 -2081.08,462.46 -1973.12,2815.64 -1973.12,2815.64 0,0 -429.55,338.87 -380.33,802.86 68.33,819.93 805.54,1353.66 846.89,1383 -1075.75,-689.08 -1177.29,-1706.2 -569.88,-2197.48zm1607.99 -3137.48c-138.06,-71.75 -234.46,-100.8 -234.46,-100.8 0,0 344.4,-44.11 821.39,53.85 35.93,19.44 74.96,40.38 117.51,63.02 -253.34,-37.16 -536.11,-27.53 -704.44,-16.07zm407.19 -510.01c-23.62,-56.71 -36.61,-89.36 -36.61,-89.36 0,0 982.33,519.83 1157.4,575.54 608.8,23.88 1680.37,153.31 2491.19,1231.53 1431.95,1904.22 674.91,4615.43 -2054.7,4782.83 903.99,-147.98 1858.86,-696.03 2210.44,-1352.8 1071.63,-2001.78 -289.79,-4429.11 -2671.47,-4567.95 -556.24,-183.37 -1096,-579.62 -1096.24,-579.79z"/>
  <path class="fil13" d="M4217.71 4087.84c-268.25,23.25 -548.04,477.14 -787.28,583.03 -239.23,105.89 -799.7,102.19 -898.97,291.59 -99.26,189.41 -48.81,400.8 190.51,482.75 178.78,45.27 457.17,9.95 457.17,9.95 907.76,769.93 2718.29,779.86 3423.17,-195.4 277.19,-494.82 -340.64,-706.3 -642.76,-644.6 -398.39,81.37 -695.37,174.83 -1060.87,-139.24 -244.07,-209.73 -372.32,-394.66 -680.98,-388.08z"/>
  <path class="fil14" d="M3280.02 5251.55c0,0 -423.35,68.52 -556.74,24.47 -133.39,-44.06 -123.44,-267.34 97.79,-324.08 221.22,-56.74 360.19,-34.72 360.19,-34.72 0,0 370.88,-87.06 601.3,-379.22 230.41,-292.15 413.41,-362.94 601.19,-293.79 187.77,69.15 459.86,464.35 740.82,532.51 280.95,68.15 679.14,12.28 978.74,-31.66 299.59,-43.96 577.93,239.55 265.17,575.65 -312.78,336.11 -956.46,520.31 -1318.44,560.58 -467.37,52 -1361.58,-142.91 -1712.92,-471.12 926.75,158.13 1508.98,603.84 2484.45,-48.5 265.35,-177.44 263.91,-229.52 263.91,-229.52 0,0 125.73,-32.46 224.42,24.31 -61.53,-165.59 -203.14,-192.95 -390.03,-156.76 -186.89,36.19 -308.21,25.06 -308.21,25.06 0,0 90.57,66.91 185.55,90.21 94.98,23.3 -5.04,120.64 -124.68,180.15 -119.63,59.5 -522.13,285.75 -1094.33,225.54 -572.21,-60.21 -939.91,-258.61 -1298.15,-269.1z"/>
  <path class="fil15" d="M3280.02 5251.55c0,0 -423.35,68.52 -556.74,24.47 -29.98,-9.9 -52.71,-28.89 -67.43,-52.98 208.13,-60.48 503.65,-118.87 759.82,-66.53 452.27,92.41 837.86,247.48 1311.84,245.39 473.99,-2.08 972.97,-323.83 972.97,-323.83l0.01 0c28.99,14.51 62.57,28.52 96.7,36.9 94.98,23.3 -5.04,120.64 -124.68,180.15 -119.63,59.5 -522.13,285.75 -1094.33,225.54 -572.21,-60.21 -939.91,-258.61 -1298.15,-269.1zm3195.17 -344.46c56.95,106.44 41.72,254.09 -106.73,413.62 -729.44,783.85 -2211.54,687.36 -3031.36,89.46 959.14,412.14 1888.57,626.98 2890.4,-90.69 190.14,-136.21 240.21,-297.51 247.68,-412.39z"/>
  <path class="fil3" d="M2638.77 5121.12c12.57,-69.17 70.39,-140.48 182.3,-169.18 221.22,-56.74 360.19,-34.72 360.19,-34.72 0,0 370.88,-87.06 601.3,-379.22 230.41,-292.15 413.41,-362.94 601.19,-293.79 106.91,39.37 241.15,184.43 388.8,314.64 -76.92,-38.94 -160.41,-89.73 -238.07,-154.59 -234.25,-195.66 -452.24,-106.74 -698.6,197.83 -246.35,304.57 -566.04,348.75 -566.04,348.75 0,0 47.38,23.24 239.59,103.66 -458.96,-117.65 -721.91,-41.15 -870.64,66.61z"/>
  <ellipse class="fil13" transform="matrix(0.618447 -0.543831 0.543831 0.618447 4520.7 4654.13)" rx="118.37" ry="179.07"/>
  <path class="fil16" d="M5577.66 2493.49c493.71,0 916.58,532.27 916.58,1144.47 0,612.2 -441.07,983.47 -948.79,983.47 -1415.8,0 -837,-2119.52 32.2,-2127.93z"/>
  <path class="fil17" d="M5561.77 2691.68c412.22,0 765.31,471.06 765.31,1012.86 0,541.81 -368.28,870.37 -792.19,870.37 -423.91,0 -706.44,-168.37 -706.44,-877.61 0,-603.5 503.92,-1003.27 733.33,-1005.63z"/>
  <path class="fil3" d="M5895.15 4488.11c-109.28,56.79 -232.22,86.8 -360.27,86.8 -423.91,0 -706.44,-168.37 -706.44,-877.6 0,-209.6 60.82,-394.59 149.77,-546.93 159.67,-215.71 371.95,-341.51 498.3,-342.81 399.3,0 741.3,456.28 741.3,981.08 0,316.4 -129.69,557.68 -322.65,699.45z"/>
  <path class="fil16" d="M3344.85 2538.72c-328.03,0 -609,520.52 -609,1119.22 0,598.69 293.06,961.76 630.4,961.76 940.69,0 556.12,-2072.75 -21.4,-2080.98z"/>
  <path class="fil3" d="M3355.41 2732.54c-273.89,0 -508.49,460.67 -508.49,990.51 0,529.84 244.7,851.17 526.36,851.17 281.65,0 469.37,-164.65 469.37,-858.24 0,-590.19 -334.81,-981.13 -487.24,-983.44z"/>
  <path class="fil18" d="M3355.41 2732.54c-144.65,0 -278.34,128.54 -372.3,327.85 87.47,-137.76 197.34,-221.99 314.42,-221.99 152.41,2.3 487.24,393.25 487.24,983.44 0,278.48 -30.28,471.64 -84.75,603.16 90.51,-125.06 142.63,-343.6 142.63,-709.03 0,-590.19 -334.82,-981.14 -487.24,-983.44z"/>
  <ellipse class="fil13" cx="5426.19" cy="3737.16" rx="524.05" ry="758.21"/>
  <path class="fil19" d="M5899.05 4064.37c-84.42,254.93 -264.43,431 -472.86,431 -170.19,0 -321.41,-117.43 -417.14,-299.3 20.11,-92.11 170.64,-427.09 206.67,-348.47 90.19,239.38 170.53,282 294.99,192.23 97.75,-70.5 33.96,-255.17 60.91,-253.73 153.12,8.23 302.04,240.2 327.42,278.27z"/>
  <ellipse class="fil13" cx="5421.34" cy="3737.16" rx="399.16" ry="618.68"/>
  <ellipse class="fil3" cx="5170.38" cy="3309.8" rx="189.8" ry="191.56"/>
  <path class="fil20" d="M4406.75 1169.41c-301.69,-260.07 -606.22,-351.88 -606.22,-351.88l0.79 -0.1c237.94,62.54 779.14,218.48 1109.49,420.74 -371.08,-17.67 -1307.58,512.43 -1307.58,512.43 97.35,-173.33 494.83,-528.5 803.52,-581.18zm233.83 -311.23c-141.65,-304.57 -235.02,-539.22 -235.02,-539.22 0,0 37.42,19.8 98.79,52l406.46 602.16 -270.23 -114.94z"/>
  <path class="fil13" d="M5374.46 2066.47c0,0 477.93,-144.19 1009.97,374.67 -314.23,-739.53 -928.51,-553.85 -1009.97,-374.67z"/>
  <path class="fil13" d="M3857.09 2083.8c0,0 -541.44,-81.22 -839.24,311.33 358.71,-636.2 771.56,-460.23 839.24,-311.33z"/>
  <ellipse class="fil13" cx="3429.35" cy="3788.58" rx="397.13" ry="671.34"/>
  <path class="fil19" d="M3787.68 4078.3c-63.97,225.72 -200.39,381.62 -358.33,381.62 -128.98,0 -243.57,-103.97 -316.12,-265.01 15.24,-81.55 129.31,-378.16 156.62,-308.55 68.34,211.96 129.23,249.69 223.54,170.22 74.07,-62.42 25.74,-225.94 46.16,-224.67 116.03,7.29 228.88,212.68 248.12,246.39z"/>
  <ellipse class="fil13" cx="3425.67" cy="3814.67" rx="307.83" ry="530.27"/>
  <ellipse class="fil3" cx="3235.5" cy="3410.18" rx="143.83" ry="169.61"/>
  <path class="fil2" d="M8353.26 8740.19c71.72,127.91 153.23,295.15 202.69,467.02 83.06,-545.84 62.76,-882.72 62.76,-882.72 0,0 -4.81,4.99 -13.79,13.29 -14.81,186.96 -115.44,342.15 -251.66,402.42z"/>
 </g>
</svg>
