<svg width="77" height="64" viewBox="0 0 77 64" fill="none" xmlns="http://www.w3.org/2000/svg">
<path d="M42.5666 6.76675L39.7272 0.792191C39.258 -0.245232 37.7902 -0.282729 37.2728 0.792191L34.4334 6.76675L28.1411 7.70418C27.0222 7.87916 26.5409 9.31656 27.3711 10.179L31.943 14.8037L30.8602 21.3157C30.6917 22.4781 31.8467 23.378 32.8814 22.8406L38.5241 19.7408L44.1306 22.7906C45.1653 23.328 46.3323 22.4281 46.1519 21.2657L45.0691 14.7537L49.6409 10.179C50.4591 9.32906 49.9898 7.89166 48.8709 7.70418L42.5786 6.76675H42.5666ZM30.8 32.0024C28.6705 32.0024 26.95 33.7897 26.95 36.0021V60.0003C26.95 62.2126 28.6705 64 30.8 64H46.2C48.3295 64 50.05 62.2126 50.05 60.0003V36.0021C50.05 33.7897 48.3295 32.0024 46.2 32.0024H30.8ZM3.85 40.0018C1.72047 40.0018 0 41.7892 0 44.0015V60.0003C0 62.2126 1.72047 64 3.85 64H19.25C21.3795 64 23.1 62.2126 23.1 60.0003V44.0015C23.1 41.7892 21.3795 40.0018 19.25 40.0018H3.85ZM53.9 52.0009V60.0003C53.9 62.2126 55.6205 64 57.75 64H73.15C75.2795 64 77 62.2126 77 60.0003V52.0009C77 49.7886 75.2795 48.0012 73.15 48.0012H57.75C55.6205 48.0012 53.9 49.7886 53.9 52.0009Z" fill="#FFB900"/>
</svg>
