<svg width="800" height="800" viewBox="0 0 800 800" fill="none" xmlns="http://www.w3.org/2000/svg">
<path d="M400 700C558.782 700 687.5 571.282 687.5 412.5C687.5 253.718 558.782 125 400 125C241.218 125 112.5 253.718 112.5 412.5C112.5 571.282 241.218 700 400 700Z" fill="#FFCE56" stroke="#4C241D" stroke-width="25" stroke-linecap="round" stroke-linejoin="round"/>
<path d="M244.388 250C211.95 281.066 189.551 321.13 180.076 365.034C170.601 408.938 174.483 454.673 191.222 496.352C207.961 538.031 236.791 573.747 274.001 598.902C311.211 624.056 355.098 637.499 400.013 637.499C444.928 637.499 488.815 624.056 526.025 598.902C563.235 573.747 592.065 538.031 608.804 496.352C625.543 454.673 629.424 408.938 619.949 365.034C610.474 321.13 588.076 281.066 555.638 250" stroke="#FC8C29" stroke-width="25" stroke-linecap="round" stroke-linejoin="round"/>
<path d="M332.662 325.95L394.937 348.2C398.212 349.362 401.787 349.362 405.062 348.2L467.337 325.95C470.018 324.978 472.921 324.791 475.704 325.41C478.488 326.03 481.037 327.43 483.053 329.446C485.07 331.462 486.47 334.012 487.089 336.795C487.708 339.579 487.521 342.481 486.55 345.162L464.3 407.5C463.138 410.775 463.138 414.35 464.3 417.625L486.55 479.9C487.521 482.581 487.708 485.483 487.089 488.267C486.47 491.05 485.07 493.599 483.053 495.616C481.037 497.632 478.488 499.032 475.704 499.651C472.921 500.27 470.018 500.084 467.337 499.112L405.062 476.862C401.787 475.7 398.212 475.7 394.937 476.862L332.662 499.112C329.981 500.084 327.079 500.27 324.295 499.651C321.512 499.032 318.962 497.632 316.946 495.616C314.93 493.599 313.53 491.05 312.911 488.267C312.291 485.483 312.478 482.581 313.45 479.9L335.7 417.625C336.862 414.35 336.862 410.775 335.7 407.5L313.45 345.225C312.462 342.54 312.262 339.629 312.873 336.835C313.485 334.041 314.883 331.48 316.903 329.454C318.922 327.428 321.478 326.021 324.271 325.401C327.063 324.78 329.975 324.97 332.662 325.95Z" fill="white" stroke="#4C241D" stroke-width="25" stroke-linecap="round" stroke-linejoin="round"/>
</svg>
