<svg width="620" height="664" viewBox="0 0 620 664" fill="none" xmlns="http://www.w3.org/2000/svg">
<path d="M340.504 11.5612C286.193 -12.9746 236.352 7.95386 189.081 42.5542C102.827 105.688 38.375 197.232 11.5763 286.847C-15.2224 376.462 9.84632 456.944 46.3887 514.12C101.78 600.79 122.435 611.195 204.949 639.221C265.174 659.676 300.027 665.851 383.298 662.462C466.569 659.072 602.636 644.615 618.264 548.991C630.636 473.295 494.188 393.379 494.188 393.379C494.188 393.379 429.674 357.977 403.218 312.057C375.836 264.53 388.048 175.268 388.048 175.268C388.048 175.268 405.468 40.9104 340.504 11.5612Z" fill="#E2AA4F"/>
</svg>
