<?xml version="1.0" standalone="no"?>
<!DOCTYPE svg PUBLIC "-//W3C//DTD SVG 20010904//EN"
 "http://www.w3.org/TR/2001/REC-SVG-20010904/DTD/svg10.dtd">
<svg version="1.0" xmlns="http://www.w3.org/2000/svg"
 width="128.000000pt" height="128.000000pt" viewBox="0 0 128.000000 128.000000"
 preserveAspectRatio="xMidYMid meet">

<g transform="translate(0.000000,128.000000) scale(0.100000,-0.100000)"
fill="#000000" stroke="none">
<path d="M285 1231 c-91 -23 -173 -90 -215 -176 l-25 -50 0 -365 c0 -359 0
-366 23 -410 35 -72 75 -114 144 -151 l63 -34 365 0 365 0 51 27 c76 40 107
70 145 140 l34 63 0 365 0 365 -34 63 c-37 69 -79 109 -151 144 -44 22 -54 23
-390 25 -190 1 -358 -2 -375 -6z m163 -472 c65 -59 112 -108 112 -119 0 -21
-217 -220 -240 -220 -20 0 -40 20 -40 39 0 9 39 53 87 99 l88 82 -88 83 c-86
81 -98 102 -75 125 23 23 44 11 156 -89z m546 -281 c8 -13 8 -23 0 -35 -10
-16 -32 -18 -189 -21 -182 -3 -205 2 -205 37 0 38 18 42 204 39 158 -3 180 -5
190 -20z"/>
</g>
</svg>
