<?xml version="1.0" standalone="no"?>
<!DOCTYPE svg PUBLIC "-//W3C//DTD SVG 20010904//EN"
 "http://www.w3.org/TR/2001/REC-SVG-20010904/DTD/svg10.dtd">
<svg version="1.0" xmlns="http://www.w3.org/2000/svg"
 width="512.000000pt" height="512.000000pt" viewBox="0 0 512.000000 512.000000"
 preserveAspectRatio="xMidYMid meet">

<g transform="translate(0.000000,512.000000) scale(0.100000,-0.100000)"
fill="#000000" stroke="none">
<path d="M890 5109 c-234 -36 -485 -177 -638 -359 -300 -357 -333 -860 -82
-1248 145 -225 362 -379 640 -454 115 -32 362 -31 484 1 392 102 682 394 777
780 l22 91 546 0 546 0 17 -48 c77 -215 320 -382 558 -382 221 0 440 137 536
336 l40 81 55 -16 c155 -49 289 -161 359 -303 70 -142 86 -281 51 -420 -59
-228 -221 -390 -449 -449 -70 -18 -115 -19 -642 -19 l-566 0 -17 53 c-73 230
-319 407 -567 407 -248 0 -494 -177 -567 -407 l-16 -52 -606 -3 c-693 -4 -673
-2 -866 -97 -178 -88 -318 -228 -406 -406 -75 -152 -93 -230 -92 -405 0 -175
18 -255 92 -405 116 -234 340 -415 592 -477 l86 -21 16 -51 c73 -229 319 -406
567 -406 243 0 479 165 561 392 l22 58 545 -2 544 -3 18 -70 c67 -264 228
-491 450 -634 99 -64 201 -108 330 -144 109 -29 371 -29 480 0 204 56 366 147
501 282 135 135 226 297 282 501 29 109 29 371 0 480 -56 202 -146 363 -280
499 -133 134 -299 228 -503 283 -115 32 -362 31 -484 -1 -388 -101 -678 -390
-775 -771 -11 -46 -21 -92 -21 -102 0 -17 -26 -18 -544 -18 l-543 0 -22 58
c-82 227 -318 392 -561 392 -238 0 -482 -167 -558 -383 -17 -48 -18 -49 -52
-43 -19 3 -72 24 -118 46 -247 123 -381 415 -312 684 57 224 222 389 446 446
72 19 113 20 646 20 533 0 569 -1 574 -17 3 -10 22 -52 42 -93 72 -152 236
-279 407 -315 285 -60 571 93 681 363 l23 57 608 5 c695 7 676 4 868 99 178
88 318 228 406 406 74 150 92 230 92 405 0 175 -18 255 -92 405 -114 232 -338
413 -585 475 -44 11 -81 22 -84 25 -2 2 -14 33 -26 68 -80 237 -316 407 -566
407 -83 0 -187 -26 -270 -66 -137 -68 -282 -242 -306 -370 l-6 -34 -543 0
-542 0 -22 91 c-95 386 -386 679 -776 780 -94 24 -305 33 -405 18z m308 -305
c365 -75 622 -409 599 -774 -13 -195 -77 -341 -210 -479 -298 -307 -776 -307
-1074 0 -104 109 -167 227 -197 371 -107 520 362 989 882 882z m2696 -448
c105 -51 161 -144 161 -266 0 -85 -21 -142 -74 -203 -82 -92 -237 -121 -353
-64 -160 79 -215 278 -118 430 80 126 246 170 384 103z m-1200 -1530 c105 -51
161 -144 161 -266 0 -85 -21 -142 -74 -203 -82 -92 -237 -121 -353 -64 -160
79 -215 278 -118 430 80 126 246 170 384 103z m1524 -1042 c364 -75 622 -409
599 -774 -13 -195 -79 -345 -213 -482 -296 -304 -775 -303 -1071 3 -331 343
-268 885 133 1149 161 105 362 143 552 104z m-2724 -488 c105 -51 161 -144
161 -266 0 -123 -56 -214 -163 -267 -47 -23 -70 -28 -132 -28 -62 0 -85 5
-132 28 -160 79 -215 278 -118 430 80 126 246 170 384 103z"/>
<path d="M832 4518 l-102 -103 172 -172 173 -173 -173 -173 -172 -172 105
-105 c57 -57 108 -101 112 -97 4 4 131 130 281 280 l272 272 -272 272 c-150
150 -277 273 -283 273 -6 0 -56 -46 -113 -102z"/>
<path d="M3965 1486 c-84 -21 -147 -57 -211 -121 -177 -176 -177 -453 1 -630
258 -259 695 -118 757 244 24 141 -22 281 -127 387 -112 113 -269 158 -420
120z m175 -306 c45 -23 80 -80 80 -130 0 -76 -74 -150 -151 -150 -46 0 -108
39 -130 82 -37 72 -14 151 57 194 48 29 92 30 144 4z"/>
</g>
</svg>
